<svg width="173" height="24" viewBox="0 0 173 24" fill="none" xmlns="http://www.w3.org/2000/svg">
<path d="M99.6283 10.4984V7.50521H95.0848V5.92183C95.0848 4.06732 96.0499 3.13465 97.98 3.13465H98.9776V0C98.9776 0 97.6331 0.000424708 96.9499 0.000424708C95.3234 0.000424708 94.0005 0.531833 92.9921 1.5838C91.9836 2.61409 91.474 4.07817 91.474 5.95436V23.6427H95.0848V10.4984H99.6283Z" fill="#091922"/>
<path d="M65.383 8.94728C64.2661 10.1402 63.7022 11.7345 63.7022 13.73V23.6423H67.3131V14.3481C67.3131 13.0467 67.5842 12.1032 68.1372 11.5284C68.7119 10.9536 69.5577 10.6716 70.6854 10.6716L71.9541 10.6716V7.15784C71.9541 7.15784 71.3109 7.15758 70.7189 7.15772L69.9915 7.15784C68.0613 7.15784 66.5324 7.75432 65.383 8.94728Z" fill="#091922"/>
<path fill-rule="evenodd" clip-rule="evenodd" d="M31.7263 16.8965C31.748 16.5494 31.7589 16.1156 31.7589 15.5842L31.7697 15.5951C31.7697 14.0117 31.4227 12.5693 30.7396 11.2896C30.0565 10.0099 29.1022 9.00126 27.8878 8.2638C26.695 7.52633 25.3721 7.1576 23.9299 7.1576C22.3467 7.1576 20.9371 7.52633 19.7009 8.2638C18.4539 8.97957 17.4889 9.97732 16.7732 11.257C16.0901 12.5259 15.7431 13.9683 15.7431 15.5951C15.7431 17.2218 16.0901 18.6859 16.7732 19.9656C17.4889 21.2236 18.4648 22.2105 19.7009 22.9263C20.9588 23.6313 22.3793 23.9891 23.9624 23.9891C25.6974 23.9891 27.248 23.5336 28.6034 22.6118C29.9589 21.6683 30.8806 20.3994 31.3577 18.7944H27.8119C27.1179 20.15 25.8275 20.8224 23.9191 20.8224C22.748 20.8224 21.7504 20.4753 20.9263 19.7921C20.1021 19.098 19.5708 18.1328 19.3431 16.8965H31.7263ZM20.9263 11.3438C21.7504 10.6606 22.748 10.3135 23.9191 10.3135V10.3027C25.0468 10.3027 26.0118 10.6822 26.8143 11.4414C27.6167 12.1789 28.0721 13.079 28.1914 14.131H19.3431C19.5925 12.9597 20.1238 12.027 20.9263 11.3438Z" fill="#091922"/>
<path fill-rule="evenodd" clip-rule="evenodd" d="M89.0867 15.5842C89.0867 16.1156 89.0759 16.5494 89.0542 16.8965H76.671C76.8987 18.1328 77.43 19.098 78.2541 19.7921C79.0782 20.4753 80.0758 20.8224 81.2469 20.8224C83.1553 20.8224 84.4457 20.15 85.1397 18.7944H88.6855C88.2084 20.3994 87.2867 21.6683 85.9313 22.6118C84.5759 23.5336 83.0252 23.9891 81.2903 23.9891C79.7071 23.9891 78.2866 23.6313 77.0288 22.9263C75.7926 22.2105 74.8167 21.2236 74.1011 19.9656C73.4179 18.6859 73.0709 17.2218 73.0709 15.5951C73.0709 13.9683 73.4179 12.5259 74.1011 11.257C74.8167 9.97732 75.7818 8.97957 77.0288 8.2638C78.265 7.52633 79.6746 7.1576 81.2578 7.1576C82.6999 7.1576 84.0228 7.52633 85.2156 8.2638C86.4301 9.00126 87.3843 10.0099 88.0675 11.2896C88.7506 12.5693 89.0976 14.0117 89.0976 15.5951L89.0867 15.5842ZM81.2361 10.3135C80.065 10.3135 79.0674 10.6606 78.2433 11.3438C77.4408 12.027 76.9095 12.9597 76.6601 14.131H85.5084C85.3891 13.079 84.9337 12.1789 84.1313 11.4414C83.3288 10.6822 82.3638 10.3027 81.2361 10.3027V10.3135Z" fill="#091922"/>
<path d="M101.081 13.7297C101.081 11.7342 101.645 10.14 102.762 8.94704C103.911 7.75408 105.451 7.1576 107.37 7.1576C107.945 7.1576 109.301 7.15797 109.301 7.15797V10.6714H108.064C106.937 10.6714 106.091 10.9534 105.516 11.5282C104.963 12.103 104.692 13.0465 104.692 14.3479V23.6421H101.081V13.7297Z" fill="#091922"/>
<path fill-rule="evenodd" clip-rule="evenodd" d="M126.772 7.50464H123.649L123.302 10.0207C122.76 9.09887 122.001 8.39394 121.036 7.91676C120.071 7.40704 118.998 7.1576 117.805 7.1576C116.449 7.1576 115.192 7.4938 114.02 8.15535C112.849 8.82774 111.917 9.8038 111.201 11.0835C110.496 12.3524 110.139 13.8707 110.139 15.5951C110.139 17.3194 110.486 18.8269 111.201 20.1066C111.906 21.3755 112.849 22.3407 114.02 23.0022C115.192 23.6638 116.449 24 117.805 24C118.998 24 120.071 23.7505 121.036 23.2734C121.99 22.7636 122.749 22.0696 123.302 21.1694L123.574 23.6421H126.772V7.50464ZM120.852 20.1391C120.136 20.5513 119.366 20.7573 118.542 20.7573C117.198 20.7573 116.048 20.3018 115.105 19.38C114.183 18.4365 113.728 17.1784 113.728 15.5951C113.728 14.5431 113.945 13.6213 114.378 12.8404C114.812 12.0596 115.398 11.4631 116.135 11.051C116.872 10.6389 117.675 10.4328 118.542 10.4328C119.345 10.4328 120.115 10.6497 120.852 11.0835C121.589 11.4956 122.175 12.0921 122.609 12.8729C123.064 13.6538 123.292 14.5431 123.292 15.5951C123.292 16.647 123.064 17.5689 122.609 18.3497C122.175 19.1306 121.589 19.727 120.852 20.1391Z" fill="#091922"/>
<path d="M129.872 14.2503C129.872 12.1138 130.479 10.4111 131.694 9.12056C132.908 7.8083 134.557 7.1576 136.649 7.1576C137.636 7.1576 138.493 7.33112 139.23 7.67816C139.989 8.02521 140.586 8.42647 141.019 8.88197C141.475 9.31577 141.789 9.71704 141.952 10.0858H142.017C142.158 9.73873 142.44 9.33746 142.874 8.88197C143.329 8.42647 143.925 8.02521 144.663 7.67816C145.422 7.33112 146.289 7.1576 147.276 7.1576C149.39 7.1576 151.039 7.8083 152.231 9.12056C153.446 10.4003 154.053 12.1138 154.053 14.2503V23.6421H150.442V14.5214C150.442 13.2417 150.16 12.2439 149.586 11.5282C149.033 10.8124 148.208 10.4653 147.113 10.4653C146.018 10.4653 145.172 10.8232 144.598 11.5282C144.045 12.2439 143.774 13.2525 143.774 14.5539V23.6746H140.163V14.5539C140.163 13.2417 139.881 12.2331 139.306 11.5282C138.753 10.8124 137.929 10.4653 136.834 10.4653C135.739 10.4653 134.893 10.8232 134.318 11.5282C133.765 12.2439 133.494 13.2417 133.494 14.5214V23.6421H129.883V14.2503H129.872Z" fill="#091922"/>
<path fill-rule="evenodd" clip-rule="evenodd" d="M172.205 16.8965C172.227 16.5494 172.238 16.1156 172.238 15.5842L172.249 15.5951C172.249 14.0117 171.902 12.5693 171.219 11.2896C170.535 10.0099 169.581 9.00126 168.367 8.2638C167.174 7.52633 165.851 7.1576 164.409 7.1576C162.826 7.1576 161.416 7.52633 160.18 8.2638C158.933 8.97957 157.968 9.97732 157.252 11.257C156.569 12.5259 156.222 13.9683 156.222 15.5951C156.222 17.2218 156.569 18.6859 157.252 19.9656C157.968 21.2236 158.944 22.2105 160.18 22.9263C161.438 23.6313 162.858 23.9891 164.441 23.9891C166.176 23.9891 167.727 23.5336 169.082 22.6118C170.438 21.6683 171.359 20.3994 171.837 18.7944H168.291C167.597 20.15 166.306 20.8224 164.398 20.8224C163.227 20.8224 162.229 20.4753 161.405 19.7921C160.581 19.098 160.05 18.1328 159.822 16.8965H172.205ZM161.394 11.3438C162.218 10.6606 163.216 10.3135 164.387 10.3135V10.3027C165.515 10.3027 166.48 10.6822 167.282 11.4414C168.085 12.1789 168.54 13.079 168.659 14.131H159.811C160.061 12.9597 160.592 12.027 161.394 11.3438Z" fill="#091922"/>
<path d="M48.881 22.0266C50.1594 23.3377 51.9033 23.9885 54.1019 23.9896C55.4986 23.9888 56.7329 23.6852 57.7835 23.0894C58.8353 22.4712 59.6485 21.6145 60.2232 20.5408C60.8196 19.4672 61.1124 18.2634 61.1124 16.9294V7.50506H57.5015V16.6583C57.5015 17.9163 57.2196 18.9032 56.6449 19.619C56.0702 20.3239 55.2678 20.6818 54.0967 20.6818C52.9256 20.6818 52.0473 20.3348 51.4509 19.6515C50.8545 18.9466 50.5617 17.938 50.5617 16.6258V7.50506H46.9508V7.51566H41.6158C40.0652 7.51566 38.6664 7.87354 37.4085 8.58932C36.1724 9.2834 35.1965 10.2595 34.4808 11.5175C33.7868 12.7755 33.4398 13.8709 33.4398 15.4434C33.4398 17.0159 33.7868 18.4258 34.4808 19.6838C35.1965 20.9418 36.1724 21.9179 37.4085 22.612C38.6664 23.3061 40.0652 23.6531 41.6158 23.6531V23.6748H45.1643V20.508H41.6483C40.2929 20.508 39.176 20.0417 38.276 19.0982C37.3977 18.1547 36.9639 16.94 36.9639 15.4542C36.9639 13.9685 37.3977 13.0683 38.276 12.1248C39.176 11.1813 40.3037 10.715 41.6483 10.715H46.9508V16.8969C46.9508 19.0117 47.6014 20.7143 48.881 22.0266Z" fill="#091922"/>
<path d="M4.76028 7.51566C2.12532 7.51566 0 9.73889 0 12.3634V12.3742C0 14.9988 2.13616 16.9075 4.76028 16.9075H8.5555C9.88924 16.9075 10.6591 17.7751 10.6591 18.7728C10.6591 19.7706 9.75912 20.649 8.5555 20.649H0.943382V23.6856H9.11936C11.7977 23.6856 13.9664 21.4949 13.9664 18.8162C13.9664 16.1375 11.7977 14.1528 9.11936 14.1528H5.34583C4.1422 14.1528 3.32894 13.3178 3.32894 12.3634C3.32894 11.409 3.97955 10.5523 5.34583 10.5523H13.023V7.51566H4.76028Z" fill="#091922"/>
</svg>
