<svg width="24" height="24" viewBox="0 0 24 24" fill="none" xmlns="http://www.w3.org/2000/svg">
<path d="M20.25 6V18H12V6H20.25Z" fill="#F59AE0"/>
<path d="M21.0004 11.9999C21.0004 12.1988 20.9214 12.3896 20.7807 12.5303C20.6401 12.6709 20.4493 12.7499 20.2504 12.7499H12.0004C11.8015 12.7499 11.6107 12.6709 11.4701 12.5303C11.3294 12.3896 11.2504 12.1988 11.2504 11.9999C11.2504 11.801 11.3294 11.6103 11.4701 11.4696C11.6107 11.3289 11.8015 11.2499 12.0004 11.2499H20.2504C20.4493 11.2499 20.6401 11.3289 20.7807 11.4696C20.9214 11.6103 21.0004 11.801 21.0004 11.9999ZM12.0004 6.74993H20.2504C20.4493 6.74993 20.6401 6.67091 20.7807 6.53026C20.9214 6.38961 21.0004 6.19884 21.0004 5.99993C21.0004 5.80102 20.9214 5.61025 20.7807 5.4696C20.6401 5.32895 20.4493 5.24993 20.2504 5.24993H12.0004C11.8015 5.24993 11.6107 5.32895 11.4701 5.4696C11.3294 5.61025 11.2504 5.80102 11.2504 5.99993C11.2504 6.19884 11.3294 6.38961 11.4701 6.53026C11.6107 6.67091 11.8015 6.74993 12.0004 6.74993ZM20.2504 17.2499H12.0004C11.8015 17.2499 11.6107 17.3289 11.4701 17.4696C11.3294 17.6103 11.2504 17.801 11.2504 17.9999C11.2504 18.1988 11.3294 18.3896 11.4701 18.5303C11.6107 18.6709 11.8015 18.7499 12.0004 18.7499H20.2504C20.4493 18.7499 20.6401 18.6709 20.7807 18.5303C20.9214 18.3896 21.0004 18.1988 21.0004 17.9999C21.0004 17.801 20.9214 17.6103 20.7807 17.4696C20.6401 17.3289 20.4493 17.2499 20.2504 17.2499ZM7.71979 3.9693L5.25042 6.43962L4.28104 5.4693C4.14031 5.32857 3.94944 5.24951 3.75042 5.24951C3.55139 5.24951 3.36052 5.32857 3.21979 5.4693C3.07906 5.61003 3 5.80091 3 5.99993C3 6.19895 3.07906 6.38982 3.21979 6.53055L4.71979 8.03055C4.78945 8.10029 4.87216 8.15561 4.96321 8.19335C5.05426 8.23109 5.15186 8.25052 5.25042 8.25052C5.34898 8.25052 5.44657 8.23109 5.53762 8.19335C5.62867 8.15561 5.71139 8.10029 5.78104 8.03055L8.78104 5.03055C8.92177 4.88982 9.00083 4.69895 9.00083 4.49993C9.00083 4.30091 8.92177 4.11003 8.78104 3.9693C8.64031 3.82857 8.44944 3.74951 8.25042 3.74951C8.05139 3.74951 7.86052 3.82857 7.71979 3.9693ZM7.71979 9.9693L5.25042 12.4396L4.28104 11.4693C4.14031 11.3286 3.94944 11.2495 3.75042 11.2495C3.55139 11.2495 3.36052 11.3286 3.21979 11.4693C3.07906 11.61 3 11.8009 3 11.9999C3 12.0985 3.01941 12.1961 3.05712 12.2871C3.09483 12.3781 3.15011 12.4609 3.21979 12.5306L4.71979 14.0306C4.78945 14.1003 4.87216 14.1556 4.96321 14.1933C5.05426 14.2311 5.15186 14.2505 5.25042 14.2505C5.34898 14.2505 5.44657 14.2311 5.53762 14.1933C5.62867 14.1556 5.71139 14.1003 5.78104 14.0306L8.78104 11.0306C8.92177 10.8898 9.00083 10.699 9.00083 10.4999C9.00083 10.3009 8.92177 10.11 8.78104 9.9693C8.64031 9.82857 8.44944 9.74951 8.25042 9.74951C8.05139 9.74951 7.86052 9.82857 7.71979 9.9693ZM7.71979 15.9693L5.25042 18.4396L4.28104 17.4693C4.21136 17.3996 4.12863 17.3443 4.03759 17.3066C3.94654 17.2689 3.84896 17.2495 3.75042 17.2495C3.65187 17.2495 3.55429 17.2689 3.46324 17.3066C3.3722 17.3443 3.28947 17.3996 3.21979 17.4693C3.15011 17.539 3.09483 17.6217 3.05712 17.7128C3.01941 17.8038 3 17.9014 3 17.9999C3 18.0985 3.01941 18.1961 3.05712 18.2871C3.09483 18.3781 3.15011 18.4609 3.21979 18.5306L4.71979 20.0306C4.78945 20.1003 4.87216 20.1556 4.96321 20.1933C5.05426 20.2311 5.15186 20.2505 5.25042 20.2505C5.34898 20.2505 5.44657 20.2311 5.53762 20.1933C5.62867 20.1556 5.71139 20.1003 5.78104 20.0306L8.78104 17.0306C8.92177 16.8898 9.00083 16.699 9.00083 16.4999C9.00083 16.3009 8.92177 16.11 8.78104 15.9693C8.64031 15.8286 8.44944 15.7495 8.25042 15.7495C8.05139 15.7495 7.86052 15.8286 7.71979 15.9693Z" fill="#09151D"/>
</svg>
