<svg width="20" height="20" viewBox="0 0 20 20" fill="none" xmlns="http://www.w3.org/2000/svg">
<path d="M16.5948 3.70557C15.3465 3.12431 14.0287 2.71194 12.675 2.479C12.4897 2.8158 12.3221 3.16231 12.1729 3.5171C10.7309 3.29611 9.26456 3.29611 7.82262 3.5171C7.67327 3.16235 7.50566 2.81584 7.3205 2.479C5.96594 2.71391 4.64723 3.12725 3.39766 3.70861C0.916928 7.4415 0.244441 11.0817 0.580684 14.6702C2.03346 15.7619 3.65953 16.5921 5.38822 17.1248C5.77747 16.5924 6.1219 16.0275 6.41787 15.4362C5.85572 15.2227 5.31315 14.9592 4.79643 14.6489C4.93242 14.5486 5.06543 14.4452 5.19394 14.3449C6.69747 15.0641 8.3385 15.4369 9.99999 15.4369C11.6615 15.4369 13.3025 15.0641 14.806 14.3449C14.936 14.4528 15.069 14.5562 15.2035 14.6489C14.6858 14.9597 14.1423 15.2237 13.5791 15.4377C13.8747 16.0288 14.2192 16.5932 14.6088 17.1248C16.3389 16.5943 17.9662 15.7644 19.4193 14.6717C19.8138 10.5102 18.7453 6.90346 16.5948 3.70557ZM6.84378 12.4633C5.90678 12.4633 5.13267 11.5985 5.13267 10.5345C5.13267 9.47058 5.87988 8.59815 6.84079 8.59815C7.8017 8.59815 8.56983 9.47058 8.55339 10.5345C8.53695 11.5985 7.79871 12.4633 6.84378 12.4633ZM13.1562 12.4633C12.2177 12.4633 11.4466 11.5985 11.4466 10.5345C11.4466 9.47058 12.1938 8.59815 13.1562 8.59815C14.1186 8.59815 14.8807 9.47058 14.8643 10.5345C14.8479 11.5985 14.1111 12.4633 13.1562 12.4633Z" fill="#F0F0F0"/>
</svg>
