<svg width="32" height="32" viewBox="0 0 32 32" fill="none" xmlns="http://www.w3.org/2000/svg">
<path d="M5.0762 11.6177C5.15185 11.435 5.27999 11.2787 5.44441 11.1688C5.60884 11.0589 5.80217 11.0002 5.99995 11.0002L25.9999 11.0002C26.1978 11 26.3913 11.0586 26.5559 11.1685C26.7205 11.2783 26.8488 11.4346 26.9246 11.6174C27.0003 11.8002 27.0201 12.0014 26.9815 12.1955C26.9428 12.3896 26.8475 12.5678 26.7074 12.7077L16.7074 22.7077C16.6146 22.8007 16.5043 22.8744 16.3829 22.9248C16.2615 22.9751 16.1314 23.001 15.9999 23.001C15.8685 23.001 15.7384 22.9751 15.617 22.9248C15.4956 22.8744 15.3853 22.8007 15.2924 22.7077L5.29245 12.7077C5.15264 12.5678 5.05747 12.3895 5.01898 12.1955C4.98048 12.0015 5.0004 11.8004 5.0762 11.6177Z" fill="#E7000B"/>
</svg>
