<svg width="101" height="110" viewBox="0 0 101 110" fill="none" xmlns="http://www.w3.org/2000/svg">
<g filter="url(#filter0_dddd_18267_8594)">
<path d="M43.32 5.53994C47.2867 2.31308 52.9735 2.31307 56.9403 5.53994C59.3259 7.48058 62.4261 8.31128 65.4624 7.82343C70.5111 7.01225 75.4361 9.85567 77.2579 14.6336C78.3536 17.507 80.6231 19.7765 83.4965 20.8722C88.2745 22.6941 91.1179 27.619 90.3067 32.6677C89.8188 35.704 90.6496 38.8043 92.5902 41.1898C95.8171 45.1566 95.8171 50.8434 92.5902 54.8102C90.6496 57.1957 89.8188 60.296 90.3067 63.3323C91.1179 68.381 88.2745 73.3059 83.4965 75.1278C80.6231 76.2235 78.3536 78.493 77.2579 81.3664C75.4361 86.1443 70.5111 88.9877 65.4624 88.1766C62.4261 87.6887 59.3259 88.5194 56.9403 90.4601C52.9735 93.6869 47.2867 93.6869 43.32 90.4601C40.9344 88.5194 37.8342 87.6887 34.7979 88.1766C29.7491 88.9877 24.8242 86.1443 23.0023 81.3664C21.9067 78.493 19.6371 76.2235 16.7637 75.1278C11.9858 73.3059 9.14238 68.381 9.95356 63.3323C10.4414 60.296 9.6107 57.1957 7.67007 54.8102C4.4432 50.8434 4.4432 45.1566 7.67007 41.1898C9.6107 38.8043 10.4414 35.704 9.95356 32.6677C9.14238 27.619 11.9858 22.6941 16.7637 20.8722C19.6371 19.7765 21.9067 17.507 23.0023 14.6336C24.8242 9.85567 29.7491 7.01225 34.7979 7.82343C37.8342 8.31128 40.9344 7.48058 43.32 5.53994Z" fill="#083896"/>
<path d="M43.32 5.53994C47.2867 2.31308 52.9735 2.31307 56.9403 5.53994C59.3259 7.48058 62.4261 8.31128 65.4624 7.82343C70.5111 7.01225 75.4361 9.85567 77.2579 14.6336C78.3536 17.507 80.6231 19.7765 83.4965 20.8722C88.2745 22.6941 91.1179 27.619 90.3067 32.6677C89.8188 35.704 90.6496 38.8043 92.5902 41.1898C95.8171 45.1566 95.8171 50.8434 92.5902 54.8102C90.6496 57.1957 89.8188 60.296 90.3067 63.3323C91.1179 68.381 88.2745 73.3059 83.4965 75.1278C80.6231 76.2235 78.3536 78.493 77.2579 81.3664C75.4361 86.1443 70.5111 88.9877 65.4624 88.1766C62.4261 87.6887 59.3259 88.5194 56.9403 90.4601C52.9735 93.6869 47.2867 93.6869 43.32 90.4601C40.9344 88.5194 37.8342 87.6887 34.7979 88.1766C29.7491 88.9877 24.8242 86.1443 23.0023 81.3664C21.9067 78.493 19.6371 76.2235 16.7637 75.1278C11.9858 73.3059 9.14238 68.381 9.95356 63.3323C10.4414 60.296 9.6107 57.1957 7.67007 54.8102C4.4432 50.8434 4.4432 45.1566 7.67007 41.1898C9.6107 38.8043 10.4414 35.704 9.95356 32.6677C9.14238 27.619 11.9858 22.6941 16.7637 20.8722C19.6371 19.7765 21.9067 17.507 23.0023 14.6336C24.8242 9.85567 29.7491 7.01225 34.7979 7.82343C37.8342 8.31128 40.9344 7.48058 43.32 5.53994Z" stroke="white" stroke-width="2.5"/>
</g>
<path d="M44.1712 10.8474C47.6421 8.02394 52.6181 8.02394 56.089 10.8474C58.1764 12.5455 60.8891 13.2724 63.5459 12.8455C67.9635 12.1357 72.2728 14.6237 73.867 18.8044C74.8257 21.3186 76.8115 23.3045 79.3257 24.2632C83.5064 25.8573 85.9944 30.1666 85.2846 34.5843C84.8578 37.241 85.5846 39.9537 87.2827 42.0411C90.1062 45.512 90.1062 50.488 87.2827 53.9589C85.5846 56.0463 84.8578 58.759 85.2846 61.4157C85.9944 65.8334 83.5064 70.1427 79.3257 71.7368C76.8115 72.6955 74.8257 74.6814 73.867 77.1956C72.2728 81.3763 67.9635 83.8643 63.5459 83.1545C60.8891 82.7276 58.1764 83.4545 56.089 85.1525C52.6181 87.9761 47.6421 87.9761 44.1712 85.1525C42.0838 83.4545 39.3712 82.7276 36.7144 83.1545C32.2968 83.8643 27.9874 81.3763 26.3933 77.1956C25.4346 74.6814 23.4488 72.6955 20.9345 71.7368C16.7538 70.1427 14.2658 65.8334 14.9756 61.4157C15.4025 58.759 14.6756 56.0463 12.9776 53.9589C10.1541 50.488 10.1541 45.512 12.9776 42.0411C14.6756 39.9537 15.4025 37.241 14.9756 34.5843C14.2658 30.1666 16.7538 25.8573 20.9345 24.2632C23.4488 23.3045 25.4346 21.3186 26.3933 18.8044C27.9874 14.6237 32.2968 12.1357 36.7144 12.8455C39.3712 13.2724 42.0838 12.5455 44.1712 10.8474Z" fill="white"/>
<path d="M43.6975 10.2656C47.4441 7.21786 52.8162 7.21786 56.5627 10.2656C58.4843 11.8287 60.9814 12.4984 63.427 12.1055C68.1955 11.3393 72.8469 14.0245 74.5676 18.5371C75.4502 20.8517 77.2785 22.6799 79.593 23.5625C84.1057 25.2833 86.7908 29.9347 86.0247 34.7031C85.6317 37.1488 86.3015 39.6458 87.8645 41.5674C90.9123 45.314 90.9123 50.686 87.8645 54.4326C86.3015 56.3542 85.6317 58.8512 86.0247 61.2969C86.7908 66.0653 84.1057 70.7167 79.593 72.4375C77.2785 73.3201 75.4502 75.1483 74.5676 77.4629C72.8469 81.9755 68.1955 84.6607 63.427 83.8945C60.9814 83.5016 58.4843 84.1713 56.5627 85.7344C52.8162 88.7821 47.4441 88.7821 43.6975 85.7344C41.7759 84.1713 39.2789 83.5016 36.8333 83.8945C32.0648 84.6607 27.4134 81.9755 25.6926 77.4629C24.8101 75.1483 22.9818 73.3201 20.6672 72.4375C16.1546 70.7167 13.4695 66.0653 14.2356 61.2969C14.6285 58.8512 13.9588 56.3542 12.3958 54.4326C9.34799 50.686 9.34799 45.314 12.3958 41.5674C13.9588 39.6458 14.6285 37.1488 14.2356 34.7031C13.4695 29.9347 16.1546 25.2833 20.6672 23.5625C22.9818 22.6799 24.8101 20.8517 25.6926 18.5371C27.4134 14.0245 32.0648 11.3393 36.8333 12.1055C39.2789 12.4984 41.7759 11.8287 43.6975 10.2656Z" stroke="white" stroke-opacity="0.4" stroke-width="1.5"/>
<path d="M29.0199 55.731C27.9419 55.731 26.9269 55.535 25.9749 55.143C25.0369 54.751 24.2179 54.212 23.5179 53.526C22.8179 52.826 22.2649 52.014 21.8589 51.09C21.4669 50.152 21.2709 49.144 21.2709 48.066C21.2709 46.988 21.4739 45.987 21.8799 45.063C22.2859 44.139 22.8459 43.334 23.5599 42.648C24.2879 41.948 25.1349 41.409 26.1009 41.031C27.0669 40.639 28.1029 40.443 29.2089 40.443C30.4829 40.443 31.6379 40.674 32.6739 41.136C33.7239 41.598 34.5919 42.235 35.2779 43.047L33.0309 45.294C32.5549 44.678 31.9949 44.216 31.3509 43.908C30.7069 43.6 29.9789 43.446 29.1669 43.446C28.2989 43.446 27.5219 43.642 26.8359 44.034C26.1499 44.412 25.6109 44.951 25.2189 45.651C24.8409 46.337 24.6519 47.142 24.6519 48.066C24.6519 48.99 24.8409 49.802 25.2189 50.502C25.5969 51.202 26.1149 51.748 26.7729 52.14C27.4309 52.532 28.1869 52.728 29.0409 52.728C29.9089 52.728 30.6439 52.567 31.2459 52.245C31.8619 51.909 32.3309 51.433 32.6529 50.817C32.9889 50.187 33.1569 49.424 33.1569 48.528L35.3409 49.998L28.7259 49.893V47.1H36.5169V47.583C36.5169 49.361 36.1949 50.859 35.5509 52.077C34.9209 53.281 34.0389 54.191 32.9049 54.807C31.7849 55.423 30.4899 55.731 29.0199 55.731ZM40.7412 55.5V52.602H44.4162C45.3122 52.602 46.0962 52.427 46.7682 52.077C47.4402 51.713 47.9582 51.188 48.3222 50.502C48.6862 49.816 48.8682 49.004 48.8682 48.066C48.8682 47.128 48.6792 46.323 48.3012 45.651C47.9372 44.979 47.4192 44.461 46.7472 44.097C46.0892 43.733 45.3122 43.551 44.4162 43.551H40.6362V40.674H44.4582C45.5782 40.674 46.6072 40.856 47.5452 41.22C48.4972 41.57 49.3232 42.081 50.0232 42.753C50.7372 43.411 51.2832 44.195 51.6612 45.105C52.0532 46.001 52.2492 46.995 52.2492 48.087C52.2492 49.165 52.0532 50.159 51.6612 51.069C51.2832 51.979 50.7442 52.763 50.0442 53.421C49.3442 54.079 48.5182 54.59 47.5662 54.954C46.6282 55.318 45.6062 55.5 44.5002 55.5H40.7412ZM38.5152 55.5V40.674H41.8122V55.5H38.5152ZM56.8672 50.103V47.541H60.0592C60.4652 47.541 60.8362 47.457 61.1722 47.289C61.5082 47.121 61.7742 46.876 61.9702 46.554C62.1662 46.232 62.2642 45.84 62.2642 45.378C62.2642 44.93 62.1662 44.545 61.9702 44.223C61.7742 43.901 61.5082 43.656 61.1722 43.488C60.8362 43.32 60.4652 43.236 60.0592 43.236H56.8672V40.674H60.5422C61.4802 40.674 62.3272 40.863 63.0832 41.241C63.8392 41.619 64.4342 42.165 64.8682 42.879C65.3162 43.579 65.5402 44.412 65.5402 45.378C65.5402 46.344 65.3162 47.184 64.8682 47.898C64.4342 48.598 63.8392 49.144 63.0832 49.536C62.3272 49.914 61.4802 50.103 60.5422 50.103H56.8672ZM54.3472 55.5V40.674H57.6442V55.5H54.3472ZM69.9102 49.389V46.953H73.0392C73.6972 46.953 74.2012 46.785 74.5512 46.449C74.9152 46.113 75.0972 45.658 75.0972 45.084C75.0972 44.552 74.9222 44.111 74.5722 43.761C74.2222 43.411 73.7182 43.236 73.0602 43.236H69.9102V40.674H73.4382C74.4182 40.674 75.2792 40.863 76.0212 41.241C76.7632 41.605 77.3442 42.116 77.7642 42.774C78.1842 43.432 78.3942 44.188 78.3942 45.042C78.3942 45.91 78.1842 46.673 77.7642 47.331C77.3442 47.975 76.7562 48.479 76.0002 48.843C75.2442 49.207 74.3552 49.389 73.3332 49.389H69.9102ZM67.3902 55.5V40.674H70.6872V55.5H67.3902ZM75.4542 55.5L70.8342 49.116L73.8582 48.297L79.3602 55.5H75.4542Z" fill="#09151D"/>
<path d="M50.8801 18L51.7618 20.5365L54.4466 20.5912L52.3067 22.2135L53.0843 24.7838L50.8801 23.25L48.6759 24.7838L49.4535 22.2135L47.3137 20.5912L49.9984 20.5365L50.8801 18Z" fill="#083896" fill-opacity="0.2"/>
<path d="M50.8801 70.5L51.7618 73.0365L54.4466 73.0912L52.3067 74.7135L53.0843 77.2838L50.8801 75.75L48.6759 77.2838L49.4535 74.7135L47.3137 73.0912L49.9984 73.0365L50.8801 70.5Z" fill="#083896" fill-opacity="0.2"/>
<path d="M24.8997 33L27.5371 33.5046L28.9269 31.2069L29.262 33.8713L31.8767 34.483L29.4463 35.625L29.6725 38.3008L27.8354 36.3422L25.3605 37.3842L26.6555 35.0318L24.8997 33Z" fill="#083896" fill-opacity="0.2"/>
<path d="M70.3655 59.25L73.003 59.7546L74.3927 57.4569L74.7278 60.1213L77.3425 60.733L74.9121 61.875L75.1383 64.5508L73.3012 62.5922L70.8263 63.6342L72.1213 61.2818L70.3655 59.25Z" fill="#083896" fill-opacity="0.2"/>
<path d="M65.8802 22.0195L65.3755 24.657L67.6732 26.0468L65.0089 26.3818L64.3971 28.9966L63.2552 26.5662L60.5794 26.7924L62.5379 24.9553L61.4959 22.4803L63.8484 23.7753L65.8802 22.0195Z" fill="#083896" fill-opacity="0.2"/>
<path d="M39.6302 67.4854L39.1255 70.1228L41.4232 71.5126L38.7589 71.8477L38.1471 74.4624L37.0052 72.032L34.3294 72.2582L36.2879 70.4211L35.2459 67.9462L37.5984 69.2412L39.6302 67.4854Z" fill="#083896" fill-opacity="0.2"/>
<path d="M35.8802 22.0195L37.912 23.7753L40.2644 22.4803L39.2224 24.9553L41.181 26.7924L38.5052 26.5662L37.3632 28.9966L36.7515 26.3818L34.0871 26.0468L36.3848 24.657L35.8802 22.0195Z" fill="#083896" fill-opacity="0.2"/>
<path d="M62.1302 67.4854L64.162 69.2412L66.5144 67.9462L65.4724 70.4211L67.431 72.2582L64.7552 72.032L63.6132 74.4624L63.0015 71.8477L60.3371 71.5126L62.6348 70.1228L62.1302 67.4854Z" fill="#083896" fill-opacity="0.2"/>
<path d="M76.8606 33L75.1048 35.0318L76.3998 37.3843L73.9249 36.3423L72.0877 38.3008L72.314 35.625L69.8835 34.4831L72.4983 33.8713L72.8333 31.207L74.2231 33.5047L76.8606 33Z" fill="#083896" fill-opacity="0.2"/>
<path d="M31.3948 59.25L29.639 61.2818L30.934 63.6343L28.459 62.5923L26.6219 64.5508L26.8481 61.875L24.4177 60.7331L27.0325 60.1213L27.3675 57.457L28.7573 59.7547L31.3948 59.25Z" fill="#083896" fill-opacity="0.2"/>
<defs>
<filter id="filter0_dddd_18267_8594" x="0" y="0.869629" width="100.26" height="108.261" filterUnits="userSpaceOnUse" color-interpolation-filters="sRGB">
<feFlood flood-opacity="0" result="BackgroundImageFix"/>
<feColorMatrix in="SourceAlpha" type="matrix" values="0 0 0 0 0 0 0 0 0 0 0 0 0 0 0 0 0 0 127 0" result="hardAlpha"/>
<feOffset dy="1"/>
<feGaussianBlur stdDeviation="1"/>
<feColorMatrix type="matrix" values="0 0 0 0 0.0313726 0 0 0 0 0.219608 0 0 0 0 0.588235 0 0 0 0.08 0"/>
<feBlend mode="normal" in2="BackgroundImageFix" result="effect1_dropShadow_18267_8594"/>
<feColorMatrix in="SourceAlpha" type="matrix" values="0 0 0 0 0 0 0 0 0 0 0 0 0 0 0 0 0 0 127 0" result="hardAlpha"/>
<feOffset dy="3"/>
<feGaussianBlur stdDeviation="1.5"/>
<feColorMatrix type="matrix" values="0 0 0 0 0.0313726 0 0 0 0 0.219608 0 0 0 0 0.588235 0 0 0 0.07 0"/>
<feBlend mode="normal" in2="effect1_dropShadow_18267_8594" result="effect2_dropShadow_18267_8594"/>
<feColorMatrix in="SourceAlpha" type="matrix" values="0 0 0 0 0 0 0 0 0 0 0 0 0 0 0 0 0 0 127 0" result="hardAlpha"/>
<feOffset dy="6"/>
<feGaussianBlur stdDeviation="2"/>
<feColorMatrix type="matrix" values="0 0 0 0 0.0313726 0 0 0 0 0.219608 0 0 0 0 0.588235 0 0 0 0.04 0"/>
<feBlend mode="normal" in2="effect2_dropShadow_18267_8594" result="effect3_dropShadow_18267_8594"/>
<feColorMatrix in="SourceAlpha" type="matrix" values="0 0 0 0 0 0 0 0 0 0 0 0 0 0 0 0 0 0 127 0" result="hardAlpha"/>
<feOffset dy="11"/>
<feGaussianBlur stdDeviation="2"/>
<feColorMatrix type="matrix" values="0 0 0 0 0.0313726 0 0 0 0 0.219608 0 0 0 0 0.588235 0 0 0 0.01 0"/>
<feBlend mode="normal" in2="effect3_dropShadow_18267_8594" result="effect4_dropShadow_18267_8594"/>
<feBlend mode="normal" in="SourceGraphic" in2="effect4_dropShadow_18267_8594" result="shape"/>
</filter>
</defs>
</svg>
