<svg width="20" height="20" viewBox="0 0 20 20" fill="none" xmlns="http://www.w3.org/2000/svg">
<path d="M0.5 10.2405C0.5 4.86087 4.75402 0.5 10.0001 0.5C15.2466 0.5 19.5 4.86087 19.5 10.2405C19.5 14.5427 16.7814 18.1925 13.0088 19.482C12.5272 19.5776 12.3562 19.2739 12.3562 19.0147C12.3562 18.9084 12.3574 18.7221 12.3591 18.4731C12.3623 17.9708 12.3672 17.2127 12.3672 16.3416C12.3672 15.4329 12.0636 14.8401 11.7229 14.5378C13.8383 14.2967 16.0607 13.4729 16.0607 9.73178C16.0607 8.66833 15.6921 7.79942 15.083 7.11728C15.1816 6.87195 15.507 5.88125 14.9899 4.53957C14.9899 4.53957 14.1932 4.27778 12.38 5.53801C11.6208 5.32219 10.8074 5.21396 10.0001 5.21025C9.19273 5.21396 8.38002 5.32219 7.62223 5.53801C5.80679 4.27778 5.00903 4.53957 5.00903 4.53957C4.49319 5.88125 4.81836 6.87195 4.917 7.11728C4.30928 7.79942 3.93817 8.66833 3.93817 9.73178C3.93817 13.4641 6.15634 14.2993 8.26644 14.5456C7.99476 14.7888 7.74855 15.2185 7.66329 15.8481C7.12117 16.097 5.74606 16.5275 4.89875 15.0383C4.89875 15.0383 4.39644 14.1033 3.44246 14.0346C3.44246 14.0346 2.51555 14.0222 3.37749 14.6267C3.37749 14.6267 4.00015 14.9261 4.4323 16.0519C4.4323 16.0519 4.98999 17.7904 7.63293 17.2012C7.63515 17.6436 7.63877 18.0721 7.6416 18.4086C7.64399 18.6909 7.64582 18.9087 7.64582 19.0147C7.64582 19.272 7.47152 19.5734 6.99673 19.4833C3.22206 18.1953 0.5 14.5441 0.5 10.2405Z" fill="#F0F0F0"/>
<path d="M3.96375 14.4477C4.03127 14.4806 4.10538 14.4663 4.12627 14.4184C4.15013 14.3703 4.11088 14.3043 4.04194 14.2729C3.97332 14.2398 3.89905 14.2535 3.87864 14.3029C3.85634 14.351 3.89497 14.4163 3.96375 14.4477Z" fill="#F0F0F0"/>
<path d="M4.50972 14.8541C4.4645 14.8967 4.3761 14.8769 4.31611 14.8095C4.25409 14.7423 4.24247 14.6524 4.28832 14.6091C4.33495 14.5665 4.42069 14.5864 4.48287 14.6537C4.5449 14.7217 4.55699 14.811 4.50972 14.8541Z" fill="#F0F0F0"/>
<path d="M4.67184 15.3264C4.73056 15.4122 4.82556 15.4507 4.88366 15.4096C4.94302 15.3676 4.94302 15.2648 4.88508 15.1776C4.82556 15.0924 4.73198 15.0554 4.67309 15.0966C4.61374 15.1378 4.61374 15.2407 4.67184 15.3264Z" fill="#F0F0F0"/>
<path d="M5.39598 15.9462C5.344 16.0045 5.2333 15.9888 5.15228 15.9093C5.06937 15.8315 5.04628 15.7212 5.09842 15.6629C5.15102 15.6044 5.26235 15.6209 5.344 15.6998C5.42628 15.7774 5.45141 15.8885 5.39598 15.9462Z" fill="#F0F0F0"/>
<path d="M5.86583 16.3355C5.97324 16.3676 6.07986 16.3333 6.10278 16.2577C6.12508 16.1809 6.05473 16.0931 5.94764 16.0602C5.83945 16.0258 5.73236 16.0616 5.71007 16.1376C5.6884 16.214 5.75859 16.3025 5.86583 16.3355Z" fill="#F0F0F0"/>
<path d="M6.879 16.3156C6.88167 16.3951 6.79059 16.4611 6.67785 16.4625C6.56448 16.4651 6.47277 16.4007 6.47152 16.3225C6.47152 16.2421 6.56055 16.1768 6.67392 16.1749C6.78667 16.1727 6.879 16.2365 6.879 16.3156Z" fill="#F0F0F0"/>
<path d="M7.42418 16.3691C7.53614 16.3478 7.61449 16.2681 7.60099 16.1905C7.5867 16.1116 7.48636 16.065 7.37424 16.0848C7.26433 16.1054 7.18456 16.1851 7.19822 16.2646C7.2122 16.3416 7.3141 16.3895 7.42418 16.3691Z" fill="#F0F0F0"/>
</svg>
