<svg width="24" height="24" viewBox="0 0 24 24" fill="none" xmlns="http://www.w3.org/2000/svg">
<g clip-path="url(#clip0_18267_8480)">
<path d="M23.0306 12.0939L20.3438 14.7808C20.2032 14.921 20.0127 14.9998 19.8141 14.9998C19.6155 14.9998 19.425 14.921 19.2844 14.7808L15.7594 11.2502L13.1344 13.8752L10.1344 10.8752L12.7594 8.25016L7.5 2.97954C9.02561 2.29033 10.7251 2.08263 12.3718 2.38413C14.0185 2.68563 15.5341 3.482 16.7166 4.66704L23.0306 11.0317C23.1005 11.1014 23.1559 11.1842 23.1938 11.2753C23.2316 11.3664 23.2511 11.4641 23.2511 11.5628C23.2511 11.6615 23.2316 11.7592 23.1938 11.8503C23.1559 11.9415 23.1005 12.0242 23.0306 12.0939Z" fill="#AF9AF5"/>
<path d="M23.5629 10.4999L17.2385 4.13242C15.5494 2.44673 13.2606 1.5 10.8743 1.5C8.48795 1.5 6.19911 2.44673 4.51005 4.13242L4.50161 4.14086L3.21067 5.47492C3.07694 5.61863 3.00489 5.80905 3.00999 6.00529C3.01508 6.20153 3.09691 6.38795 3.23791 6.52454C3.37891 6.66112 3.56784 6.73698 3.76415 6.73582C3.96045 6.73466 4.14848 6.65659 4.28786 6.51836L5.57505 5.18898C6.09291 4.67122 6.68388 4.23218 7.32911 3.88586L11.6885 8.24992L2.68848 17.2499C2.54916 17.3892 2.43864 17.5546 2.36324 17.7366C2.28783 17.9186 2.24902 18.1137 2.24902 18.3107C2.24902 18.5077 2.28783 18.7028 2.36324 18.8848C2.43864 19.0668 2.54916 19.2322 2.68848 19.3715L4.62817 21.3112C4.76746 21.4505 4.93284 21.561 5.11485 21.6364C5.29686 21.7118 5.49194 21.7506 5.68895 21.7506C5.88596 21.7506 6.08105 21.7118 6.26306 21.6364C6.44507 21.561 6.61044 21.4505 6.74973 21.3112L15.7497 12.3112L17.0941 13.6555L18.7497 15.3093C18.889 15.4486 19.0544 15.5591 19.2364 15.6345C19.4184 15.7099 19.6135 15.7488 19.8105 15.7488C20.0075 15.7488 20.2026 15.7099 20.3846 15.6345C20.5666 15.5591 20.732 15.4486 20.8713 15.3093L23.561 12.6196C23.842 12.3386 24.0001 11.9576 24.0004 11.5602C24.0008 11.1627 23.8434 10.7814 23.5629 10.4999ZM5.68848 20.2499L3.74973 18.3102L10.1247 11.9352L12.0635 13.8749L5.68848 20.2499ZM15.2191 10.7174L13.1247 12.8127L11.185 10.8749L13.2804 8.77961C13.3501 8.70995 13.4054 8.62724 13.4432 8.53619C13.4809 8.44514 13.5003 8.34754 13.5003 8.24898C13.5003 8.15042 13.4809 8.05283 13.4432 7.96178C13.4054 7.87073 13.3501 7.78801 13.2804 7.71836L8.84223 3.28117C10.1245 2.92004 11.4798 2.90695 12.7688 3.24324C14.0578 3.57954 15.2339 4.25308 16.1763 5.19461L20.3219 9.36742L17.6247 12.0618L16.2804 10.7174C16.2107 10.6477 16.128 10.5924 16.0369 10.5546C15.9459 10.5169 15.8483 10.4975 15.7497 10.4975C15.6512 10.4975 15.5536 10.5169 15.4625 10.5546C15.3715 10.5924 15.2888 10.6477 15.2191 10.7174ZM19.8129 14.248L18.6879 13.123L21.3747 10.4296L22.4997 11.5546L19.8129 14.248Z" fill="#09151D"/>
</g>
<defs>
<clipPath id="clip0_18267_8480">
<rect width="24" height="24" fill="white"/>
</clipPath>
</defs>
</svg>
