<svg width="101" height="110" viewBox="0 0 101 110" fill="none" xmlns="http://www.w3.org/2000/svg">
<g filter="url(#filter0_dddd_18267_8562)">
<path d="M43.32 5.53994C47.2867 2.31308 52.9735 2.31307 56.9403 5.53994C59.3259 7.48058 62.4261 8.31128 65.4624 7.82343C70.5111 7.01225 75.4361 9.85567 77.2579 14.6336C78.3536 17.507 80.6231 19.7765 83.4965 20.8722C88.2745 22.6941 91.1179 27.619 90.3067 32.6677C89.8188 35.704 90.6496 38.8043 92.5902 41.1898C95.8171 45.1566 95.8171 50.8434 92.5902 54.8102C90.6496 57.1957 89.8188 60.296 90.3067 63.3323C91.1179 68.381 88.2745 73.3059 83.4965 75.1278C80.6231 76.2235 78.3536 78.493 77.2579 81.3664C75.4361 86.1443 70.5111 88.9877 65.4624 88.1766C62.4261 87.6887 59.3259 88.5194 56.9403 90.4601C52.9735 93.6869 47.2867 93.6869 43.32 90.4601C40.9344 88.5194 37.8342 87.6887 34.7979 88.1766C29.7491 88.9877 24.8242 86.1443 23.0023 81.3664C21.9067 78.493 19.6371 76.2235 16.7637 75.1278C11.9858 73.3059 9.14238 68.381 9.95356 63.3323C10.4414 60.296 9.6107 57.1957 7.67007 54.8102C4.4432 50.8434 4.4432 45.1566 7.67007 41.1898C9.6107 38.8043 10.4414 35.704 9.95356 32.6677C9.14238 27.619 11.9858 22.6941 16.7637 20.8722C19.6371 19.7765 21.9067 17.507 23.0023 14.6336C24.8242 9.85567 29.7491 7.01225 34.7979 7.82343C37.8342 8.31128 40.9344 7.48058 43.32 5.53994Z" fill="#3578BE"/>
<path d="M43.32 5.53994C47.2867 2.31308 52.9735 2.31307 56.9403 5.53994C59.3259 7.48058 62.4261 8.31128 65.4624 7.82343C70.5111 7.01225 75.4361 9.85567 77.2579 14.6336C78.3536 17.507 80.6231 19.7765 83.4965 20.8722C88.2745 22.6941 91.1179 27.619 90.3067 32.6677C89.8188 35.704 90.6496 38.8043 92.5902 41.1898C95.8171 45.1566 95.8171 50.8434 92.5902 54.8102C90.6496 57.1957 89.8188 60.296 90.3067 63.3323C91.1179 68.381 88.2745 73.3059 83.4965 75.1278C80.6231 76.2235 78.3536 78.493 77.2579 81.3664C75.4361 86.1443 70.5111 88.9877 65.4624 88.1766C62.4261 87.6887 59.3259 88.5194 56.9403 90.4601C52.9735 93.6869 47.2867 93.6869 43.32 90.4601C40.9344 88.5194 37.8342 87.6887 34.7979 88.1766C29.7491 88.9877 24.8242 86.1443 23.0023 81.3664C21.9067 78.493 19.6371 76.2235 16.7637 75.1278C11.9858 73.3059 9.14238 68.381 9.95356 63.3323C10.4414 60.296 9.6107 57.1957 7.67007 54.8102C4.4432 50.8434 4.4432 45.1566 7.67007 41.1898C9.6107 38.8043 10.4414 35.704 9.95356 32.6677C9.14238 27.619 11.9858 22.6941 16.7637 20.8722C19.6371 19.7765 21.9067 17.507 23.0023 14.6336C24.8242 9.85567 29.7491 7.01225 34.7979 7.82343C37.8342 8.31128 40.9344 7.48058 43.32 5.53994Z" stroke="white" stroke-width="2.5"/>
</g>
<path d="M44.1712 10.8474C47.6421 8.02394 52.6181 8.02394 56.089 10.8474C58.1764 12.5455 60.8891 13.2724 63.5459 12.8455C67.9635 12.1357 72.2728 14.6237 73.867 18.8044C74.8257 21.3186 76.8115 23.3045 79.3257 24.2632C83.5064 25.8573 85.9944 30.1666 85.2846 34.5843C84.8578 37.241 85.5846 39.9537 87.2827 42.0411C90.1062 45.512 90.1062 50.488 87.2827 53.9589C85.5846 56.0463 84.8578 58.759 85.2846 61.4157C85.9944 65.8334 83.5064 70.1427 79.3257 71.7368C76.8115 72.6955 74.8257 74.6814 73.867 77.1956C72.2728 81.3763 67.9635 83.8643 63.5459 83.1545C60.8891 82.7276 58.1764 83.4545 56.089 85.1525C52.6181 87.9761 47.6421 87.9761 44.1712 85.1525C42.0838 83.4545 39.3712 82.7276 36.7144 83.1545C32.2968 83.8643 27.9874 81.3763 26.3933 77.1956C25.4346 74.6814 23.4488 72.6955 20.9345 71.7368C16.7538 70.1427 14.2658 65.8334 14.9756 61.4157C15.4025 58.759 14.6756 56.0463 12.9776 53.9589C10.1541 50.488 10.1541 45.512 12.9776 42.0411C14.6756 39.9537 15.4025 37.241 14.9756 34.5843C14.2658 30.1666 16.7538 25.8573 20.9345 24.2632C23.4488 23.3045 25.4346 21.3186 26.3933 18.8044C27.9874 14.6237 32.2968 12.1357 36.7144 12.8455C39.3712 13.2724 42.0838 12.5455 44.1712 10.8474Z" fill="white"/>
<path d="M43.6975 10.2656C47.4441 7.21786 52.8162 7.21786 56.5627 10.2656C58.4843 11.8287 60.9814 12.4984 63.427 12.1055C68.1955 11.3393 72.8469 14.0245 74.5676 18.5371C75.4502 20.8517 77.2785 22.6799 79.593 23.5625C84.1057 25.2833 86.7908 29.9347 86.0247 34.7031C85.6317 37.1488 86.3015 39.6458 87.8645 41.5674C90.9123 45.314 90.9123 50.686 87.8645 54.4326C86.3015 56.3542 85.6317 58.8512 86.0247 61.2969C86.7908 66.0653 84.1057 70.7167 79.593 72.4375C77.2785 73.3201 75.4502 75.1483 74.5676 77.4629C72.8469 81.9755 68.1955 84.6607 63.427 83.8945C60.9814 83.5016 58.4843 84.1713 56.5627 85.7344C52.8162 88.7821 47.4441 88.7821 43.6975 85.7344C41.7759 84.1713 39.2789 83.5016 36.8333 83.8945C32.0648 84.6607 27.4134 81.9755 25.6926 77.4629C24.8101 75.1483 22.9818 73.3201 20.6672 72.4375C16.1546 70.7167 13.4695 66.0653 14.2356 61.2969C14.6285 58.8512 13.9588 56.3542 12.3958 54.4326C9.34799 50.686 9.34799 45.314 12.3958 41.5674C13.9588 39.6458 14.6285 37.1488 14.2356 34.7031C13.4695 29.9347 16.1546 25.2833 20.6672 23.5625C22.9818 22.6799 24.8101 20.8517 25.6926 18.5371C27.4134 14.0245 32.0648 11.3393 36.8333 12.1055C39.2789 12.4984 41.7759 11.8287 43.6975 10.2656Z" stroke="white" stroke-opacity="0.4" stroke-width="1.5"/>
<path d="M50.01 15C49.4167 15 48.8367 15.1759 48.3433 15.5056C47.85 15.8352 47.4654 16.3038 47.2384 16.8519C47.0113 17.4001 46.9519 18.0033 47.0677 18.5853C47.1834 19.1672 47.4691 19.7018 47.8887 20.1213C48.3083 20.5409 48.8428 20.8266 49.4247 20.9424C50.0067 21.0581 50.6099 20.9987 51.1581 20.7716C51.7062 20.5446 52.1748 20.1601 52.5044 19.6667C52.8341 19.1734 53.01 18.5933 53.01 18C53.01 17.2044 52.6939 16.4413 52.1313 15.8787C51.5687 15.3161 50.8057 15 50.01 15Z" fill="#3578BE" fill-opacity="0.2"/>
<path d="M51.0154 21.5254H48.9904C48.883 21.5254 48.78 21.5681 48.7041 21.644C48.6281 21.72 48.5854 21.823 48.5854 21.9304C48.5854 22.0392 48.6276 22.1438 48.7031 22.2222C48.7787 22.3005 48.8817 22.3465 48.9904 22.3504H51.0154C51.1256 22.3467 51.2303 22.3012 51.3083 22.2232C51.3863 22.1453 51.4317 22.0406 51.4354 21.9304C51.4316 21.8216 51.3856 21.7186 51.3072 21.6431C51.2289 21.5675 51.1243 21.5253 51.0154 21.5254Z" fill="#3578BE" fill-opacity="0.2"/>
<path d="M50.0101 22.7705C49.6351 22.7705 49.3201 22.8905 49.3201 23.4305L49.4401 43.5755L50.1451 43.2155C50.2424 43.1606 50.3493 43.125 50.4601 43.1105H50.5951V23.4905C50.7151 22.9055 50.3851 22.7705 50.0101 22.7705Z" fill="#3578BE" fill-opacity="0.2"/>
<path d="M49.5002 54.2707C49.8411 54.1422 50.201 54.0712 50.5652 54.0607V51.8857C50.2033 51.9455 49.8371 51.9756 49.4702 51.9757L49.5002 54.2707Z" fill="#3578BE" fill-opacity="0.2"/>
<path d="M50.2199 66.2705L49.575 66.5405V68.5505H49.6649C49.8595 68.4344 50.0656 68.3388 50.2799 68.2655H50.4V66.3755H50.2649L50.2199 66.2705Z" fill="#3578BE" fill-opacity="0.2"/>
<path d="M49.5903 71.4155V73.4555L49.7103 73.5755C49.7103 73.5755 49.7103 73.5755 49.8003 73.6505C49.9914 73.5278 50.2229 73.4848 50.4453 73.5305V70.9805H50.0853L49.5903 71.4155Z" fill="#3578BE" fill-opacity="0.2"/>
<path d="M50.0404 75.75L49.6204 75.99V79.89C49.6204 79.9974 49.663 80.1004 49.739 80.1764C49.8149 80.2523 49.9179 80.295 50.0254 80.295C50.1328 80.295 50.2358 80.2523 50.3117 80.1764C50.3877 80.1004 50.4304 79.9974 50.4304 79.89V75.885C50.3511 75.9004 50.2696 75.9004 50.1904 75.885L50.0404 75.75Z" fill="#3578BE" fill-opacity="0.2"/>
<path d="M50.4453 61.4398C50.3279 61.3839 50.2213 61.3077 50.1303 61.2148L49.5603 61.3798V63.7498C49.6981 63.7836 49.8231 63.8566 49.9203 63.9598C50.1011 63.899 50.2868 63.8539 50.4753 63.8248V61.4848H50.3853L50.4453 61.4398Z" fill="#3578BE" fill-opacity="0.2"/>
<path d="M49.5302 58.5154C49.5917 58.5707 49.6426 58.6368 49.6802 58.7104V58.8004L50.4002 58.5604H50.5052V56.7754L49.4702 57.0754L49.5302 58.5154Z" fill="#3578BE" fill-opacity="0.2"/>
<path d="M49.4548 47.2804V49.2154L50.3698 48.9604H50.5648V47.0254H50.1748C49.94 47.1242 49.6996 47.2094 49.4548 47.2804Z" fill="#3578BE" fill-opacity="0.2"/>
<path d="M45.6901 27.1505C44.5051 26.5505 45.5701 25.6505 45.9901 24.9455C46.5508 24.0493 46.8182 23.0007 46.7551 21.9455C46.547 21.368 46.1833 20.8591 45.7042 20.4753C45.2251 20.0915 44.6492 19.8476 44.0401 19.7705C43.4492 19.6969 42.8494 19.7497 42.2804 19.9256C41.7115 20.1014 41.1864 20.3963 40.7401 20.7905C39.6289 21.5286 38.4483 22.1566 37.2151 22.6655C32.8801 24.4055 26.3251 27.1655 21.6301 27.6755C22.1716 28.3838 22.8481 28.9778 23.6205 29.4232C24.3929 29.8686 25.2458 30.1566 26.1301 30.2705C26.0401 31.1105 27.6301 31.9955 28.2901 32.2205C29.2035 32.5126 30.1928 32.4537 31.0651 32.0555C31.3294 32.4505 31.6709 32.7879 32.0689 33.0475C32.467 33.3071 32.9134 33.4836 33.3814 33.5662C33.8494 33.6489 34.3293 33.6361 34.7922 33.5286C35.2551 33.421 35.6915 33.221 36.0751 32.9405C36.1651 33.7055 37.5751 34.1255 38.1451 34.2605C39.0821 34.3856 40.0355 34.256 40.9051 33.8855C41.5651 33.7355 41.8351 34.1555 42.5401 34.3205C43.2705 34.5236 44.0515 34.432 44.7151 34.0655C45.0451 33.9005 44.9101 33.8105 45.2701 33.8255C45.6301 33.8405 45.7951 34.0955 46.0351 34.1255C46.7251 34.2305 47.1901 33.7205 47.5351 33.2405C48.0468 32.4317 48.4503 31.5592 48.7351 30.6455V27.2705C47.7209 27.4087 46.6903 27.3681 45.6901 27.1505Z" fill="#3578BE" fill-opacity="0.2"/>
<path d="M59.2055 20.7597C58.7539 20.3704 58.2251 20.0809 57.6538 19.9103C57.0825 19.7397 56.4816 19.6918 55.8905 19.7697C55.2762 19.8505 54.6967 20.1011 54.217 20.4933C53.7374 20.8855 53.3767 21.4037 53.1755 21.9897C53.1203 23.0441 53.3871 24.0904 53.9405 24.9897C54.3755 25.7547 55.4405 26.5947 54.2405 27.1947C53.2581 27.4267 52.2424 27.4825 51.2405 27.3597V30.8697C51.5065 31.7138 51.8795 32.5204 52.3505 33.2697C52.4944 33.5413 52.7108 33.7677 52.9755 33.924C53.2403 34.0802 53.5431 34.16 53.8505 34.1547C54.1055 34.1547 54.4205 33.8697 54.6305 33.8547C54.8405 33.8397 54.8555 33.9297 55.1855 34.0947C55.8486 34.4628 56.6302 34.5544 57.3605 34.3497C58.0655 34.1847 58.3355 33.7647 58.9805 33.9147C59.8551 34.2864 60.8136 34.416 61.7555 34.2897C62.3555 34.1547 63.7205 33.7347 63.8105 32.9697C64.1941 33.2502 64.6305 33.4502 65.0934 33.5577C65.5563 33.6653 66.0362 33.6781 66.5042 33.5954C66.9722 33.5127 67.4186 33.3363 67.8167 33.0767C68.2147 32.8171 68.5562 32.4796 68.8205 32.0847C69.6978 32.4839 70.6922 32.5427 71.6105 32.2497C72.2705 32.0247 73.8455 31.1397 73.7555 30.2997C74.6398 30.1858 75.4927 29.8978 76.2651 29.4524C77.0375 29.007 77.714 28.413 78.2555 27.7047C73.5605 27.2547 67.0055 24.4347 62.6555 22.6947C61.4455 22.1631 60.29 21.515 59.2055 20.7597Z" fill="#3578BE" fill-opacity="0.2"/>
<path d="M42.5702 40.4101C41.6402 39.7651 42.7952 39.1201 43.2452 38.9101C44.5404 38.5464 45.7527 37.9352 46.8152 37.1101C47.2052 36.7651 47.8052 35.7301 47.1902 35.2951C46.5752 34.8601 45.4202 35.2951 44.9102 35.4001C44.1755 35.4367 43.4581 35.6365 42.8102 35.9851C41.5541 36.5092 40.5235 37.4602 39.9002 38.6701C39.7228 39.1443 39.6682 39.6557 39.7417 40.1567C39.8151 40.6576 40.0142 41.1318 40.3202 41.5351C41.4543 42.6946 42.8256 43.5952 44.3402 44.1751C44.7152 44.3401 45.3302 44.6251 46.1552 44.9701C47.22 44.5234 48.2614 44.0228 49.2752 43.4701C47.3852 42.6901 46.0352 42.0751 45.4052 41.7901C44.4217 41.4139 43.473 40.9522 42.5702 40.4101Z" fill="#3578BE" fill-opacity="0.2"/>
<path d="M50.7149 74.9253C50.5349 75.1203 50.4599 75.2403 50.2649 75.4353L50.5049 75.7053C50.7886 76.0036 50.9892 76.3712 51.0866 76.7712C51.184 77.1713 51.1748 77.5899 51.0599 77.9853C51.0599 77.9853 51.3149 77.8503 51.4649 77.3703C51.5386 77.0216 51.5351 76.661 51.4548 76.3138C51.3745 75.9666 51.2192 75.6412 50.9999 75.3603L50.7149 74.9253Z" fill="#3578BE" fill-opacity="0.2"/>
<path d="M51.9748 65.3101C51.4931 65.6441 50.9923 65.9496 50.4748 66.2251C50.9594 66.4634 51.4301 66.7289 51.8848 67.0201C52.0048 67.0201 51.4648 67.9201 50.9248 68.2801C50.3848 68.6401 49.7248 69.2101 49.1398 69.6751C48.5026 70.1335 47.9876 70.7413 47.6398 71.4451C47.4917 71.834 47.4761 72.2609 47.5955 72.6596C47.7148 73.0583 47.9624 73.4065 48.2998 73.6501C48.5548 73.8601 48.9748 74.3251 49.1998 74.5201C49.1998 74.4001 49.5898 74.1751 49.6948 73.9351C48.4798 72.9151 47.7298 71.6851 49.8598 70.5751C50.4298 70.1551 51.0748 69.7651 51.7348 69.2551C52.0923 68.981 52.4192 68.6692 52.7098 68.3251C52.9525 68.1112 53.1284 67.8319 53.2162 67.5206C53.304 67.2092 53.3 66.8792 53.2048 66.5701C53.0936 66.289 52.9275 66.0328 52.7164 65.8165C52.5052 65.6002 52.2532 65.4281 51.9748 65.3101Z" fill="#3578BE" fill-opacity="0.2"/>
<path d="M53.7148 55.7705C53.6248 55.7705 51.7348 56.5655 50.9248 56.9405L52.0948 57.2855C52.3112 57.341 52.5221 57.4164 52.7248 57.5105C52.6827 57.5812 52.6265 57.6425 52.5598 57.6905C52.2582 57.9533 51.913 58.1615 51.5398 58.3055L48.8548 59.5655C47.9398 60.1205 47.0548 60.1805 46.0948 61.4855C45.8944 61.8425 45.8153 62.2548 45.8694 62.6606C45.9235 63.0663 46.1078 63.4435 46.3948 63.7355C46.7654 64.1409 47.1892 64.4941 47.6548 64.7855L48.1048 65.0405C48.5898 64.7208 49.0904 64.4255 49.6048 64.1555C49.2148 63.9305 48.8398 63.7055 48.4948 63.4655C47.7598 63.0305 47.2648 62.2805 47.5048 62.3405C48.1326 61.8457 48.8302 61.4464 49.5748 61.1555C50.4448 60.7655 51.3598 60.3905 52.2898 59.9855C52.8402 59.7721 53.3481 59.4623 53.7898 59.0705C54.1828 58.8169 54.4689 58.4276 54.5933 57.9767C54.7178 57.5258 54.6721 57.0448 54.4648 56.6255C54.3053 56.2723 54.0442 55.9747 53.7148 55.7705Z" fill="#3578BE" fill-opacity="0.2"/>
<path d="M55.2902 45.9605C54.7791 45.7 54.2532 45.4696 53.7152 45.2705C52.6746 45.8516 51.5915 46.353 50.4752 46.7705L52.2452 47.4155C52.9129 47.6307 53.5689 47.881 54.2102 48.1655L54.6752 48.3905C54.4455 48.4812 54.2099 48.5564 53.9702 48.6155C53.1527 48.8456 52.3209 49.0209 51.4802 49.1405C49.4743 49.2449 47.5033 49.7072 45.6602 50.5055C45.0116 50.7791 44.4585 51.2384 44.0702 51.8255C43.9315 52.0665 43.8452 52.3339 43.8168 52.6104C43.7883 52.887 43.8185 53.1664 43.9052 53.4305C44.0629 53.8303 44.3091 54.1893 44.6252 54.4805C45.0813 54.8563 45.5858 55.1691 46.1252 55.4105C46.6954 55.2554 47.2522 55.0548 47.7902 54.8105L48.1502 54.6755L49.0952 54.3005L48.3452 54.0455C47.5306 53.7906 46.7649 53.4001 46.0802 52.8905C46.2706 52.7388 46.4768 52.608 46.6952 52.5005C48.3587 51.8986 50.1031 51.5497 51.8702 51.4655C52.7993 51.3427 53.7208 51.1674 54.6302 50.9405C55.0986 50.8178 55.5594 50.6675 56.0102 50.4905C56.41 50.3732 56.7724 50.1539 57.0617 49.854C57.351 49.5542 57.5572 49.1842 57.6602 48.7805C58.0952 47.2955 55.6802 46.1555 55.2902 45.9605Z" fill="#3578BE" fill-opacity="0.2"/>
<path d="M51.1497 70.0205C50.8947 70.2455 50.4747 70.6505 50.3247 70.7405C53.2047 72.3905 49.6497 73.8905 48.9747 75.3605C48.7581 75.6429 48.6045 75.9684 48.5243 76.3151C48.4441 76.6618 48.4391 77.0217 48.5097 77.3705C48.6747 77.8505 48.8997 78.0005 48.9147 77.9855C48.8043 77.5897 48.7974 77.1723 48.8946 76.7731C48.9918 76.3738 49.1898 76.0063 49.4697 75.7055C50.15 74.9786 50.8819 74.3018 51.6597 73.6805C51.984 73.4262 52.2216 73.0776 52.3398 72.6828C52.458 72.288 52.451 71.8662 52.3197 71.4755C52.0533 70.9029 51.6518 70.4036 51.1497 70.0205Z" fill="#3578BE" fill-opacity="0.2"/>
<path d="M52.485 60.2705C52.485 60.2705 51.105 60.9905 50.49 61.2755C51.1883 61.5502 51.8408 61.9295 52.425 62.4005C52.665 62.4005 52.185 63.0905 51.45 63.5255C50.715 63.9605 49.95 64.4105 49.17 64.8605C48.39 65.3105 47.31 65.2655 46.755 66.6755C46.6635 66.9849 46.6614 67.3139 46.749 67.6245C46.8366 67.935 47.0103 68.2145 47.25 68.4305C47.5444 68.7711 47.8709 69.0825 48.225 69.3605L48.6 69.6305L49.71 68.9555L49.005 68.3855C48.465 68.0255 47.925 67.2005 48.045 67.1255C48.6098 66.7523 49.2072 66.431 49.83 66.1655C50.625 65.7455 51.45 65.3855 52.305 64.8455C52.7705 64.5541 53.1944 64.2009 53.565 63.7955C53.8519 63.5035 54.0363 63.1263 54.0904 62.7206C54.1445 62.3148 54.0654 61.9024 53.865 61.5455C53.5191 61.0116 53.0446 60.5731 52.485 60.2705Z" fill="#3578BE" fill-opacity="0.2"/>
<path d="M55.1247 51.0601C54.4947 51.2851 52.0047 51.7951 51.4347 51.9151C52.0666 52.026 52.6816 52.2176 53.2647 52.4851C53.4766 52.5959 53.6775 52.7264 53.8647 52.8751C53.1801 53.3847 52.4143 53.7752 51.5997 54.0301C50.7297 54.3601 49.7547 54.6001 48.7647 54.9001L47.2647 55.3651C46.8297 55.5901 46.0197 55.5151 45.4497 56.5801C45.249 57.0006 45.2068 57.4794 45.3308 57.9286C45.4548 58.3777 45.7367 58.7671 46.1247 59.0251C46.4897 59.3501 46.9051 59.6136 47.3547 59.8051C48.0597 59.5051 48.8547 59.2501 49.4997 58.9501L49.6797 58.8451L48.4347 58.2601C48.0615 58.116 47.7163 57.9079 47.4147 57.6451C47.3518 57.5928 47.2963 57.5323 47.2497 57.4651C47.4486 57.382 47.6544 57.3168 47.8647 57.2701L49.2897 56.8651C50.2347 56.5951 51.2247 56.3701 52.2897 56.0251C53.3743 55.7158 54.3916 55.2071 55.2897 54.5251C55.6105 54.2378 55.8574 53.8777 56.0097 53.4751C56.1003 53.2116 56.1325 52.9315 56.104 52.6544C56.0755 52.3772 55.9871 52.1096 55.8447 51.8701C55.6559 51.5586 55.4119 51.2841 55.1247 51.0601Z" fill="#3578BE" fill-opacity="0.2"/>
<path d="M57.1202 36.0452C56.4731 35.6947 55.7553 35.4947 55.0202 35.4602C54.5102 35.3852 53.1902 35.0552 52.7402 35.3552C52.2902 35.6552 52.7402 36.8552 53.1152 37.1702C54.1867 37.9987 55.4095 38.6102 56.7152 38.9702C57.1652 39.1202 58.3202 39.7652 57.3902 40.4702C56.4973 41.0542 55.5535 41.5563 54.5702 41.9702C53.8952 42.2852 52.4252 42.9302 50.3552 43.8002C49.3202 44.2202 48.1352 44.7002 46.8452 45.1802C46.1051 45.4311 45.3791 45.7215 44.6702 46.0502C44.2802 46.2452 41.8652 47.3852 42.3152 48.8552C42.4208 49.2577 42.628 49.6263 42.9169 49.9257C43.2058 50.2251 43.5668 50.4453 43.9652 50.5652C44.2652 50.6852 44.5502 50.7752 44.8502 50.8652L45.0152 50.7002C45.8212 50.0056 46.7326 49.4436 47.7152 49.0352C47.1002 48.9152 46.5002 48.7952 45.9452 48.6302C45.7054 48.5711 45.4699 48.4959 45.2402 48.4052L45.7052 48.1802C46.3652 47.8802 46.9352 47.6852 47.6702 47.4302C49.0352 46.9502 50.2502 46.4702 51.3002 46.0502C53.4152 45.2102 54.9002 44.5502 55.6052 44.2352C57.1218 43.6592 58.4939 42.7581 59.6252 41.5952C59.9313 41.1919 60.1303 40.7177 60.2037 40.2168C60.2772 39.7158 60.2226 39.2044 60.0452 38.7302C59.4182 37.5177 58.3819 36.5664 57.1202 36.0452Z" fill="#3578BE" fill-opacity="0.2"/>
<path d="M20.4043 55.5V40.674H23.7013V55.5H20.4043ZM29.5813 55.5V40.674H32.8993V55.5H29.5813ZM22.3783 49.305V46.449H30.6733V49.305H22.3783ZM35.7442 55.5V40.674H39.0412V55.5H35.7442ZM44.4165 50.103V47.541H47.6085C48.0145 47.541 48.3855 47.457 48.7215 47.289C49.0575 47.121 49.3235 46.876 49.5195 46.554C49.7155 46.232 49.8135 45.84 49.8135 45.378C49.8135 44.93 49.7155 44.545 49.5195 44.223C49.3235 43.901 49.0575 43.656 48.7215 43.488C48.3855 43.32 48.0145 43.236 47.6085 43.236H44.4165V40.674H48.0915C49.0295 40.674 49.8765 40.863 50.6325 41.241C51.3885 41.619 51.9835 42.165 52.4175 42.879C52.8655 43.579 53.0895 44.412 53.0895 45.378C53.0895 46.344 52.8655 47.184 52.4175 47.898C51.9835 48.598 51.3885 49.144 50.6325 49.536C49.8765 49.914 49.0295 50.103 48.0915 50.103H44.4165ZM41.8965 55.5V40.674H45.1935V55.5H41.8965ZM52.8011 55.5L58.6811 40.674H61.6631L67.4801 55.5H63.9941L59.5421 43.194H60.7391L56.2241 55.5H52.8011ZM56.1401 52.812V50.124H64.2251V52.812H56.1401ZM67.3001 55.5L73.1801 40.674H76.1621L81.9791 55.5H78.4931L74.0411 43.194H75.2381L70.7231 55.5H67.3001ZM70.6391 52.812V50.124H78.7241V52.812H70.6391Z" fill="#09151D"/>
<defs>
<filter id="filter0_dddd_18267_8562" x="0" y="0.869629" width="100.26" height="108.261" filterUnits="userSpaceOnUse" color-interpolation-filters="sRGB">
<feFlood flood-opacity="0" result="BackgroundImageFix"/>
<feColorMatrix in="SourceAlpha" type="matrix" values="0 0 0 0 0 0 0 0 0 0 0 0 0 0 0 0 0 0 127 0" result="hardAlpha"/>
<feOffset dy="1"/>
<feGaussianBlur stdDeviation="1"/>
<feColorMatrix type="matrix" values="0 0 0 0 0.207843 0 0 0 0 0.470588 0 0 0 0 0.745098 0 0 0 0.08 0"/>
<feBlend mode="normal" in2="BackgroundImageFix" result="effect1_dropShadow_18267_8562"/>
<feColorMatrix in="SourceAlpha" type="matrix" values="0 0 0 0 0 0 0 0 0 0 0 0 0 0 0 0 0 0 127 0" result="hardAlpha"/>
<feOffset dy="3"/>
<feGaussianBlur stdDeviation="1.5"/>
<feColorMatrix type="matrix" values="0 0 0 0 0.207843 0 0 0 0 0.470588 0 0 0 0 0.745098 0 0 0 0.07 0"/>
<feBlend mode="normal" in2="effect1_dropShadow_18267_8562" result="effect2_dropShadow_18267_8562"/>
<feColorMatrix in="SourceAlpha" type="matrix" values="0 0 0 0 0 0 0 0 0 0 0 0 0 0 0 0 0 0 127 0" result="hardAlpha"/>
<feOffset dy="6"/>
<feGaussianBlur stdDeviation="2"/>
<feColorMatrix type="matrix" values="0 0 0 0 0.207843 0 0 0 0 0.470588 0 0 0 0 0.745098 0 0 0 0.04 0"/>
<feBlend mode="normal" in2="effect2_dropShadow_18267_8562" result="effect3_dropShadow_18267_8562"/>
<feColorMatrix in="SourceAlpha" type="matrix" values="0 0 0 0 0 0 0 0 0 0 0 0 0 0 0 0 0 0 127 0" result="hardAlpha"/>
<feOffset dy="11"/>
<feGaussianBlur stdDeviation="2"/>
<feColorMatrix type="matrix" values="0 0 0 0 0.207843 0 0 0 0 0.470588 0 0 0 0 0.745098 0 0 0 0.01 0"/>
<feBlend mode="normal" in2="effect3_dropShadow_18267_8562" result="effect4_dropShadow_18267_8562"/>
<feBlend mode="normal" in="SourceGraphic" in2="effect4_dropShadow_18267_8562" result="shape"/>
</filter>
</defs>
</svg>
