<svg width="16" height="16" viewBox="0 0 16 16" fill="none" xmlns="http://www.w3.org/2000/svg">
<path d="M11.0001 14.4999C11.0001 14.6325 10.9474 14.7597 10.8536 14.8534C10.7599 14.9472 10.6327 14.9999 10.5001 14.9999H5.50008C5.36747 14.9999 5.2403 14.9472 5.14653 14.8534C5.05276 14.7597 5.00008 14.6325 5.00008 14.4999C5.00008 14.3673 5.05276 14.2401 5.14653 14.1463C5.2403 14.0526 5.36747 13.9999 5.50008 13.9999H10.5001C10.6327 13.9999 10.7599 14.0526 10.8536 14.1463C10.9474 14.2401 11.0001 14.3673 11.0001 14.4999ZM13.5001 6.49989C13.5022 7.33341 13.3139 8.15642 12.9496 8.90608C12.5852 9.65575 12.0543 10.3123 11.3976 10.8255C11.2748 10.9196 11.1751 11.0406 11.1062 11.1792C11.0373 11.3177 11.001 11.4702 11.0001 11.6249V11.9999C11.0001 12.2651 10.8947 12.5195 10.7072 12.707C10.5197 12.8945 10.2653 12.9999 10.0001 12.9999H6.00008C5.73487 12.9999 5.48051 12.8945 5.29298 12.707C5.10544 12.5195 5.00008 12.2651 5.00008 11.9999V11.6249C4.99998 11.472 4.96483 11.3212 4.89733 11.184C4.82983 11.0469 4.73177 10.927 4.61071 10.8336C3.95558 10.3234 3.42511 9.67085 3.05944 8.92533C2.69378 8.17981 2.5025 7.36088 2.50008 6.53051C2.48383 3.55176 4.89133 1.07114 7.86758 0.999887C8.60092 0.982215 9.33039 1.11142 10.0131 1.3799C10.6957 1.64838 11.3178 2.0507 11.8426 2.56319C12.3674 3.07569 12.7845 3.68799 13.0691 4.36407C13.3538 5.04014 13.5003 5.76633 13.5001 6.49989ZM11.4932 5.91614C11.3636 5.19195 11.0151 4.52486 10.4949 4.0047C9.97458 3.48453 9.30743 3.13626 8.58321 3.00676C8.51845 2.99585 8.45217 2.99779 8.38817 3.01249C8.32416 3.02719 8.26368 3.05435 8.21017 3.09242C8.15666 3.13049 8.11117 3.17873 8.0763 3.23438C8.04144 3.29003 8.01787 3.352 8.00696 3.41676C7.99604 3.48152 7.99799 3.54779 8.01268 3.6118C8.02738 3.67581 8.05454 3.73629 8.09261 3.7898C8.13068 3.84331 8.17892 3.8888 8.23457 3.92367C8.29022 3.95853 8.3522 3.9821 8.41696 3.99301C9.45258 4.16739 10.3313 5.04614 10.507 6.08364C10.5267 6.20009 10.5871 6.30578 10.6774 6.38197C10.7676 6.45816 10.882 6.49993 11.0001 6.49989C11.0283 6.49972 11.0565 6.49742 11.0845 6.49301C11.2152 6.4707 11.3316 6.39739 11.4083 6.28921C11.4849 6.18103 11.5155 6.04684 11.4932 5.91614Z" fill="#2CCBAB"/>
</svg>
