<svg width="21" height="9" viewBox="0 0 21 9" fill="none" xmlns="http://www.w3.org/2000/svg">
<path d="M0.58 9V0.24H2.02L4.696 7.74C4.68 7.54 4.66 7.296 4.636 7.008C4.62 6.712 4.604 6.404 4.588 6.084C4.58 5.756 4.576 5.448 4.576 5.16V0.24H5.62V9H4.18L1.516 1.5C1.532 1.692 1.548 1.936 1.564 2.232C1.58 2.52 1.592 2.828 1.6 3.156C1.616 3.476 1.624 3.784 1.624 4.08V9H0.58ZM7.89531 9V0.24H12.9353V1.224H8.96331V3.936H12.5153V4.908H8.96331V8.016H12.9353V9H7.89531ZM15.1986 9L14.1906 0.24H15.2226L15.8826 6.72C15.8986 6.896 15.9146 7.08 15.9306 7.272C15.9466 7.456 15.9586 7.632 15.9666 7.8C15.9826 7.968 15.9906 8.108 15.9906 8.22C16.0066 8.108 16.0186 7.968 16.0266 7.8C16.0426 7.632 16.0586 7.456 16.0746 7.272C16.0986 7.08 16.1226 6.896 16.1466 6.72L16.9626 0.24H18.0786L18.8226 6.72C18.8466 6.896 18.8666 7.08 18.8826 7.272C18.9066 7.456 18.9266 7.632 18.9426 7.8C18.9666 7.968 18.9826 8.108 18.9906 8.22C18.9986 8.108 19.0066 7.968 19.0146 7.8C19.0306 7.632 19.0466 7.456 19.0626 7.272C19.0866 7.08 19.1066 6.896 19.1226 6.72L19.8066 0.24H20.7906L19.7586 9H18.4026L17.6586 2.4C17.6426 2.216 17.6226 2.036 17.5986 1.86C17.5826 1.684 17.5666 1.52 17.5506 1.368C17.5346 1.216 17.5226 1.092 17.5146 0.995999C17.5066 1.092 17.4906 1.216 17.4666 1.368C17.4506 1.52 17.4346 1.684 17.4186 1.86C17.4026 2.036 17.3826 2.216 17.3586 2.4L16.5546 9H15.1986Z" fill="#3498DA"/>
</svg>
