<svg width="44" height="32" viewBox="0 0 44 32" fill="none" xmlns="http://www.w3.org/2000/svg">
<path d="M10.7402 32C8.89239 32 7.27559 31.6559 5.88976 30.9677C4.50394 30.2031 3.38758 29.2091 2.54068 27.9857C1.77078 26.7622 1.15486 25.3094 0.692913 23.6272C0.230971 21.945 0 20.1864 0 18.3513C0 14.6045 0.96238 11.0872 2.88714 7.79928C4.88889 4.51135 7.9685 1.91159 12.126 0L13.1654 2.06452C11.0096 3.05854 9.08487 4.51135 7.39108 6.42294C5.77428 8.25807 4.8119 10.2079 4.50394 12.2724C4.042 13.8781 4.0035 15.4456 4.38845 16.9749C6.08224 15.1398 8.35346 14.2222 11.2021 14.2222C13.8198 14.2222 15.9755 15.0251 17.6693 16.6308C19.3631 18.1601 20.21 20.3011 20.21 23.0538C20.21 25.73 19.3246 27.9092 17.5538 29.5914C15.783 31.1971 13.5118 32 10.7402 32ZM34.5302 32C32.6824 32 31.0656 31.6559 29.6798 30.9677C28.294 30.2031 27.1776 29.2091 26.3307 27.9857C25.5608 26.7622 24.9449 25.3094 24.4829 23.6272C24.021 21.945 23.79 20.1864 23.79 18.3513C23.79 14.6045 24.7524 11.0872 26.6772 7.79928C28.6789 4.51135 31.7585 1.91159 35.916 0L36.9554 2.06452C34.7997 3.05854 32.8749 4.51135 31.1811 6.42294C29.5643 8.25807 28.6019 10.2079 28.294 12.2724C27.832 13.8781 27.7935 15.4456 28.1785 16.9749C29.8723 15.1398 32.1435 14.2222 34.9921 14.2222C37.6098 14.2222 39.7655 15.0251 41.4593 16.6308C43.1531 18.1601 44 20.3011 44 23.0538C44 25.73 43.1146 27.9092 41.3438 29.5914C39.5731 31.1971 37.3018 32 34.5302 32Z" fill="#2CCBAB"/>
</svg>
