<svg width="32" height="32" viewBox="0 0 32 32" fill="none" xmlns="http://www.w3.org/2000/svg">
<path d="M26.9238 20.3823C26.8482 20.5651 26.72 20.7213 26.5556 20.8312C26.3912 20.9411 26.1978 20.9998 26.0001 20.9998H6.00006C5.80216 21 5.60867 20.9414 5.44407 20.8315C5.27948 20.7217 5.15119 20.5654 5.07543 20.3826C4.99968 20.1998 4.97988 19.9986 5.01853 19.8045C5.05718 19.6104 5.15254 19.4322 5.29256 19.2923L15.2926 9.29231C15.3854 9.19933 15.4957 9.12557 15.6171 9.07525C15.7385 9.02493 15.8686 8.99902 16.0001 8.99902C16.1315 8.99902 16.2616 9.02493 16.383 9.07525C16.5044 9.12557 16.6147 9.19933 16.7076 9.29231L26.7076 19.2923C26.8474 19.4322 26.9425 19.6105 26.981 19.8045C27.0195 19.9985 26.9996 20.1996 26.9238 20.3823Z" fill="#009966"/>
</svg>
