<svg xmlns="http://www.w3.org/2000/svg" id="Layer_2" viewBox="-2 -2 176.2 39.69" width="176.2" height="39.69"><defs><style>.cls-1{fill:#2e154b;}.cls-2{fill:#f85b3d;}</style></defs><g id="Layer_1-2"><path class="cls-1" d="M48.16,20.72V.41h5.74v20.31h-5.74Z"></path><polygon class="cls-1" points="77.32 .41 77.32 20.72 72.59 20.72 63.63 9.89 63.63 20.72 58 20.72 58 .41 62.73 .41 71.69 11.23 71.69 .41 77.32 .41"></polygon><path class="cls-1" d="M88.52,21.12c-1.66,0-3.26-.21-4.8-.62-1.54-.42-2.79-.95-3.76-1.61l1.89-4.24c.91.58,1.96,1.06,3.15,1.44,1.19.38,2.37.57,3.55.57.79,0,1.43-.07,1.91-.22.48-.15.84-.34,1.06-.58.22-.24.33-.53.33-.86,0-.46-.21-.83-.64-1.1-.43-.27-.98-.49-1.65-.67-.68-.17-1.43-.35-2.25-.52-.82-.17-1.64-.4-2.47-.67-.82-.27-1.57-.62-2.25-1.06-.68-.44-1.23-1.01-1.65-1.71-.43-.71-.64-1.6-.64-2.68,0-1.22.33-2.32,1-3.31.67-.99,1.67-1.78,3-2.38C85.64.3,87.31,0,89.3,0c1.33,0,2.64.15,3.93.45,1.29.3,2.43.74,3.44,1.32l-1.77,4.26c-.97-.52-1.92-.91-2.87-1.17-.95-.26-1.87-.39-2.76-.39-.79,0-1.43.08-1.91.25-.48.16-.83.38-1.04.65-.21.27-.32.58-.32.93,0,.45.21.8.62,1.06.42.26.97.47,1.65.64.69.16,1.44.33,2.26.51.82.17,1.64.39,2.47.65.82.26,1.57.61,2.25,1.04.68.43,1.22,1.01,1.64,1.71.42.71.62,1.59.62,2.65,0,1.18-.33,2.27-1,3.26-.67,1-1.66,1.79-2.99,2.39-1.32.6-2.99.9-5,.9Z"></path><path class="cls-1" d="M100.15,20.72V.41h5.74v20.31h-5.74Z"></path><path class="cls-1" d="M123.59,10.13h5.08v8.42c-1.16.83-2.5,1.47-4.03,1.91-1.53.44-3.02.67-4.5.67-1.61,0-3.1-.26-4.46-.77-1.38-.51-2.56-1.24-3.55-2.19-1-.95-1.78-2.06-2.34-3.35s-.84-2.7-.84-4.25.28-2.96.84-4.24,1.34-2.4,2.35-3.35c1.01-.95,2.2-1.68,3.58-2.19s2.9-.77,4.54-.77c1.91,0,3.63.33,5.14.96,1.51.64,2.75,1.56,3.74,2.75l-3.66,3.31c-.69-.76-1.44-1.32-2.25-1.69-.8-.38-1.69-.57-2.68-.57-.87,0-1.66.14-2.38.41-.72.27-1.33.67-1.83,1.17-.51.51-.9,1.12-1.18,1.83-.28.7-.42,1.5-.42,2.39s.14,1.64.42,2.35c.29.72.68,1.33,1.18,1.84.5.51,1.11.91,1.81,1.19.71.28,1.48.42,2.34.42s1.68-.15,2.49-.42c.2-.07.41-.15.61-.24v-5.57Z"></path><polygon class="cls-1" points="151.64 .41 151.64 20.72 145.9 20.72 145.9 12.8 138.07 12.8 138.07 20.72 132.32 20.72 132.32 .41 138.07 .41 138.07 8.04 145.9 8.04 145.9 .41 151.64 .41"></polygon><path class="cls-1" d="M160.03,20.72V4.96h-6.24V.41h18.19v4.55h-6.21v15.75h-5.74Z"></path><path class="cls-1" d="M45.1,35.6l5.14-11.24h1.17l5.14,11.24h-1.25l-4.72-10.55h.48l-4.72,10.55h-1.24ZM47.12,32.6l.35-.96h6.53l.35.96h-7.24Z"></path><path class="cls-1" d="M64.71,35.69c-.83,0-1.63-.14-2.4-.41-.77-.27-1.36-.62-1.77-1.05l.47-.91c.4.39.93.71,1.6.97.67.26,1.37.39,2.11.39s1.28-.09,1.73-.27c.44-.18.77-.41.98-.71.21-.3.31-.63.31-1,0-.44-.13-.79-.38-1.06-.25-.27-.58-.48-.99-.63-.41-.16-.86-.29-1.35-.41-.49-.12-.98-.24-1.48-.38-.49-.13-.94-.31-1.36-.54-.41-.22-.74-.52-1-.89-.25-.37-.38-.85-.38-1.45,0-.56.15-1.07.44-1.53s.75-.84,1.36-1.12c.61-.28,1.39-.43,2.34-.43.63,0,1.26.09,1.88.27.62.18,1.16.42,1.61.73l-.4.95c-.48-.32-.99-.56-1.53-.71-.54-.15-1.06-.22-1.57-.22-.67,0-1.23.09-1.67.27-.44.18-.76.43-.97.73-.21.31-.31.65-.31,1.04,0,.44.13.79.38,1.06.25.27.58.48,1,.63.41.15.86.28,1.36.4.49.12.98.25,1.47.39.49.14.94.32,1.35.54.41.22.74.51,1,.87.25.36.38.84.38,1.43,0,.55-.15,1.05-.45,1.52-.3.47-.76.84-1.37,1.12-.62.28-1.4.43-2.37.43Z"></path><path class="cls-1" d="M77.8,35.69c-.83,0-1.63-.14-2.4-.41-.77-.27-1.36-.62-1.77-1.05l.47-.91c.4.39.93.71,1.6.97.67.26,1.37.39,2.11.39s1.28-.09,1.73-.27c.44-.18.77-.41.98-.71.21-.3.31-.63.31-1,0-.44-.13-.79-.38-1.06-.25-.27-.58-.48-.99-.63-.41-.16-.86-.29-1.35-.41-.49-.12-.98-.24-1.48-.38-.49-.13-.94-.31-1.36-.54-.41-.22-.74-.52-1-.89-.25-.37-.38-.85-.38-1.45,0-.56.15-1.07.44-1.53s.75-.84,1.36-1.12c.61-.28,1.39-.43,2.34-.43.63,0,1.26.09,1.88.27.62.18,1.16.42,1.61.73l-.4.95c-.48-.32-.99-.56-1.53-.71-.54-.15-1.06-.22-1.57-.22-.67,0-1.23.09-1.67.27-.44.18-.76.43-.97.73-.21.31-.31.65-.31,1.04,0,.44.13.79.38,1.06.25.27.58.48,1,.63.41.15.86.28,1.36.4.49.12.98.25,1.47.39.49.14.94.32,1.35.54.41.22.74.51,1,.87.25.36.38.84.38,1.43,0,.55-.15,1.05-.45,1.52-.3.47-.76.84-1.37,1.12-.62.28-1.4.43-2.37.43Z"></path><path class="cls-1" d="M92.31,35.69c-1.43,0-2.56-.41-3.39-1.24-.82-.82-1.24-2.04-1.24-3.66v-6.44h1.19v6.39c0,1.33.3,2.31.9,2.94.6.63,1.45.95,2.54.95s1.95-.32,2.55-.95c.6-.63.9-1.61.9-2.94v-6.39h1.16v6.44c0,1.62-.41,2.84-1.23,3.66-.82.82-1.94,1.24-3.38,1.24Z"></path><path class="cls-1" d="M103.7,35.6v-11.24h4.21c.95,0,1.77.15,2.46.46.68.31,1.21.74,1.58,1.32.37.57.55,1.27.55,2.08s-.18,1.47-.55,2.05c-.37.57-.9,1.01-1.58,1.32-.69.31-1.5.46-2.46.46h-3.55l.53-.55v4.11h-1.19ZM104.89,31.58l-.53-.56h3.52c1.12,0,1.98-.25,2.56-.74.58-.49.87-1.18.87-2.07s-.29-1.59-.87-2.09c-.58-.49-1.44-.74-2.56-.74h-3.52l.53-.56v6.76ZM111.38,35.6l-2.89-4.08h1.28l2.91,4.08h-1.3Z"></path><path class="cls-1" d="M116.72,35.6l5.14-11.24h1.17l5.14,11.24h-1.25l-4.72-10.55h.48l-4.72,10.55h-1.24ZM118.74,32.6l.35-.96h6.53l.35.96h-7.24Z"></path><path class="cls-1" d="M133.24,35.6v-11.24h.98l7.75,9.76h-.51v-9.76h1.17v11.24h-.98l-7.74-9.76h.51v9.76h-1.19Z"></path><path class="cls-1" d="M154.38,35.69c-.85,0-1.63-.14-2.34-.43-.72-.28-1.34-.68-1.86-1.2-.52-.51-.93-1.12-1.23-1.81-.29-.7-.44-1.46-.44-2.28s.15-1.58.44-2.28c.29-.7.71-1.3,1.24-1.81.53-.51,1.15-.91,1.87-1.2.72-.28,1.5-.43,2.34-.43s1.58.14,2.3.41c.72.27,1.32.68,1.81,1.23l-.75.75c-.46-.47-.97-.81-1.52-1.02-.56-.21-1.16-.31-1.8-.31-.67,0-1.3.12-1.88.35-.58.23-1.08.56-1.51.98-.43.42-.76.91-1,1.48-.24.56-.36,1.18-.36,1.85s.12,1.29.36,1.85c.24.56.58,1.05,1,1.48s.93.75,1.51.98c.58.23,1.2.35,1.88.35s1.24-.11,1.8-.32c.56-.21,1.06-.56,1.52-1.03l.75.75c-.49.55-1.1.96-1.81,1.24-.72.28-1.49.42-2.31.42Z"></path><path class="cls-1" d="M165.44,34.57h6.76v1.03h-7.95v-11.24h7.71v1.03h-6.52v9.18ZM165.31,29.39h5.94v1.01h-5.94v-1.01Z"></path><path class="cls-1" d="M9,35.37h1.83c.63,0,1.2-.39,1.43-.98l1.89-4.93h.02l5.7-15.19c.28-.78,1.38-.78,1.67,0l5.01,13.35h-5c-.86,0-1.55.69-1.55,1.55v4.65c0,.86.69,1.55,1.55,1.55h17.26c1.11,0,1.85-1.13,1.4-2.14L26.72,2.36c-.24-.55-.79-.91-1.4-.91h-9.24c-.61,0-1.16.36-1.4.91l-3,6.85-1.12,2.56-1.56,3.49v20.09h.08s-.04.01-.06.01h-.02Z"></path><path class="cls-2" d="M9,2.92v32.43l-6.39.02h-1.06c-.52,0-.98-.26-1.26-.65-.18-.25-.29-.56-.29-.9V2.92c0-.86.69-1.55,1.55-1.55h5.9c.86,0,1.55.69,1.55,1.55Z"></path></g></svg>