<?xml version="1.0" encoding="UTF-8" standalone="no"?>
<svg
   xmlns:dc="http://purl.org/dc/elements/1.1/"
   xmlns:cc="http://creativecommons.org/ns#"
   xmlns:rdf="http://www.w3.org/1999/02/22-rdf-syntax-ns#"
   xmlns:svg="http://www.w3.org/2000/svg"
   xmlns="http://www.w3.org/2000/svg"
   xmlns:sodipodi="http://sodipodi.sourceforge.net/DTD/sodipodi-0.dtd"
   xmlns:inkscape="http://www.inkscape.org/namespaces/inkscape"
   width="140"
   height="48"
   viewBox="0 0 140 48"
   fill="none"
   version="1.1"
   id="svg8"
   sodipodi:docname="newlogo_securisea_blue.svg"
   inkscape:version="0.92.5 (2060ec1f9f, 2020-04-08)">
  <metadata
     id="metadata14">
    <rdf:RDF>
      <cc:Work
         rdf:about="">
        <dc:format>image/svg+xml</dc:format>
        <dc:type
           rdf:resource="http://purl.org/dc/dcmitype/StillImage" />
        <dc:title></dc:title>
      </cc:Work>
    </rdf:RDF>
  </metadata>
  <defs
     id="defs12" />
  <sodipodi:namedview
     pagecolor="#ffffff"
     bordercolor="#666666"
     borderopacity="1"
     objecttolerance="10"
     gridtolerance="10"
     guidetolerance="10"
     inkscape:pageopacity="0"
     inkscape:pageshadow="2"
     inkscape:window-width="1920"
     inkscape:window-height="977"
     id="namedview10"
     showgrid="false"
     inkscape:zoom="2.7"
     inkscape:cx="70"
     inkscape:cy="53.62963"
     inkscape:window-x="0"
     inkscape:window-y="28"
     inkscape:window-maximized="1"
     inkscape:current-layer="svg8" />
  <path
     d="M31.8122 38.0463C32.1078 36.1646 31.9184 34.7884 31.4976 33.767C30.9886 32.5313 30.0497 31.5934 28.7147 30.856C25.9109 29.3073 21.8502 28.8826 18.0318 28.5115L17.9573 28.5042C16.6375 28.376 15.3267 28.2486 14.199 28.06C16.0468 34.0875 21.6562 38.4701 28.2891 38.4701C29.5034 38.4701 30.6834 38.3233 31.8122 38.0463ZM22.3704 10.2369C22.8211 14.9835 24.3156 18.803 27.2737 21.6011C30.3055 24.469 35.1196 26.4968 42.6407 27.0896C42.8916 26.012 43.0242 24.889 43.0242 23.7351C43.0242 15.5971 36.4271 9 28.2891 9C26.184 9 24.1819 9.44148 22.3704 10.2369Z"
     fill="#F2F1EC"
     id="path2"
     style="fill:#0066ff" />
  <path
     d="M20.7715 9.30038C21.3729 20.5772 27.0865 28.456 44.528 29.298L44.5668 29.3728C42.8574 34.4918 38.7568 38.5164 33.5906 40.1207C36.4114 28.7562 25.9239 27.7369 18.5073 27.016C15.2508 26.6995 12.5864 26.4405 11.9004 25.3887L11.8028 25.3789C11.7678 24.9357 11.75 24.4877 11.75 24.0354C11.75 17.5963 15.364 12.0012 20.6744 9.16797L20.7715 9.30038Z"
     id="path4"
     fill="#F2F1EC"
     style="fill:#0066ff" />
  <path
     d="M60.802 29.168C60.242 29.168 59.71 29.112 59.206 29C58.702 28.888 58.254 28.7107 57.862 28.468C57.4793 28.216 57.176 27.9033 56.952 27.53C56.7373 27.1473 56.63 26.6853 56.63 26.144C56.63 26.0973 56.63 26.0507 56.63 26.004C56.63 25.948 56.6347 25.906 56.644 25.878H58.716C58.7067 25.906 58.702 25.9433 58.702 25.99C58.702 26.0367 58.702 26.0787 58.702 26.116C58.702 26.4147 58.7813 26.6667 58.94 26.872C59.108 27.0773 59.3507 27.2313 59.668 27.334C59.9853 27.4367 60.354 27.488 60.774 27.488C61.0447 27.488 61.2827 27.474 61.488 27.446C61.7027 27.4087 61.8893 27.362 62.048 27.306C62.216 27.2407 62.3513 27.166 62.454 27.082C62.566 26.998 62.6453 26.9 62.692 26.788C62.748 26.676 62.776 26.55 62.776 26.41C62.776 26.158 62.692 25.9527 62.524 25.794C62.3653 25.6353 62.1413 25.5 61.852 25.388C61.572 25.276 61.2547 25.1733 60.9 25.08C60.5453 24.9867 60.1813 24.8933 59.808 24.8C59.4347 24.6973 59.0707 24.576 58.716 24.436C58.3613 24.2867 58.044 24.1093 57.764 23.904C57.484 23.6987 57.26 23.4373 57.092 23.12C56.924 22.8027 56.84 22.42 56.84 21.972C56.84 21.496 56.938 21.0853 57.134 20.74C57.3393 20.3947 57.624 20.11 57.988 19.886C58.352 19.662 58.772 19.4987 59.248 19.396C59.724 19.284 60.242 19.228 60.802 19.228C61.3247 19.228 61.8193 19.284 62.286 19.396C62.7527 19.4987 63.1633 19.6667 63.518 19.9C63.8727 20.1333 64.148 20.4273 64.344 20.782C64.5493 21.1367 64.652 21.5567 64.652 22.042V22.21H62.622V22.098C62.622 21.846 62.5473 21.6313 62.398 21.454C62.2487 21.2767 62.0387 21.1367 61.768 21.034C61.4973 20.9313 61.18 20.88 60.816 20.88C60.424 20.88 60.088 20.9173 59.808 20.992C59.5373 21.0667 59.3273 21.1787 59.178 21.328C59.038 21.468 58.968 21.636 58.968 21.832C58.968 22.056 59.0473 22.2427 59.206 22.392C59.374 22.532 59.598 22.658 59.878 22.77C60.1673 22.8727 60.4893 22.966 60.844 23.05C61.1987 23.134 61.5627 23.2273 61.936 23.33C62.3093 23.4327 62.6733 23.554 63.028 23.694C63.3827 23.834 63.7 24.0113 63.98 24.226C64.26 24.4313 64.484 24.688 64.652 24.996C64.82 25.304 64.904 25.6727 64.904 26.102C64.904 26.8393 64.7267 27.432 64.372 27.88C64.0173 28.328 63.532 28.6547 62.916 28.86C62.3 29.0653 61.5953 29.168 60.802 29.168ZM66.566 29V19.396H74.238V21.104H68.666V23.246H73.594V24.94H68.666V27.278H74.322V29H66.566ZM80.4206 29.168C79.4219 29.168 78.5679 28.9953 77.8586 28.65C77.1493 28.2953 76.6079 27.7493 76.2346 27.012C75.8706 26.2747 75.6886 25.3367 75.6886 24.198C75.6886 22.518 76.0993 21.272 76.9206 20.46C77.7513 19.6387 78.9179 19.228 80.4206 19.228C81.2419 19.228 81.9793 19.368 82.6326 19.648C83.2859 19.928 83.7993 20.348 84.1726 20.908C84.5553 21.468 84.7466 22.1727 84.7466 23.022H82.6466C82.6466 22.574 82.5533 22.196 82.3666 21.888C82.1893 21.58 81.9326 21.3467 81.5966 21.188C81.2699 21.02 80.8873 20.936 80.4486 20.936C79.8513 20.936 79.3566 21.0527 78.9646 21.286C78.5819 21.5193 78.2973 21.8647 78.1106 22.322C77.9333 22.77 77.8446 23.3207 77.8446 23.974V24.408C77.8446 25.08 77.9379 25.6447 78.1246 26.102C78.3113 26.55 78.5913 26.8907 78.9646 27.124C79.3473 27.348 79.8373 27.46 80.4346 27.46C80.9013 27.46 81.3073 27.3807 81.6526 27.222C81.9979 27.0633 82.2639 26.83 82.4506 26.522C82.6373 26.214 82.7306 25.836 82.7306 25.388H84.7466C84.7466 26.2373 84.5599 26.942 84.1866 27.502C83.8226 28.062 83.3139 28.482 82.6606 28.762C82.0073 29.0327 81.2606 29.168 80.4206 29.168ZM90.5482 29.168C89.6708 29.168 88.9148 29.028 88.2802 28.748C87.6548 28.468 87.1742 28.048 86.8382 27.488C86.5022 26.9187 86.3342 26.214 86.3342 25.374V19.396H88.4342V25.318C88.4342 26.0087 88.6162 26.5407 88.9802 26.914C89.3442 27.278 89.8668 27.46 90.5482 27.46C91.2295 27.46 91.7522 27.278 92.1162 26.914C92.4895 26.5407 92.6762 26.0087 92.6762 25.318V19.396H94.7762V25.374C94.7762 26.214 94.6082 26.9187 94.2722 27.488C93.9362 28.048 93.4508 28.468 92.8162 28.748C92.1908 29.028 91.4348 29.168 90.5482 29.168ZM96.8628 29V19.396H102.127C102.836 19.396 103.424 19.522 103.891 19.774C104.367 20.026 104.721 20.3807 104.955 20.838C105.188 21.286 105.305 21.804 105.305 22.392C105.305 23.0173 105.165 23.5727 104.885 24.058C104.605 24.534 104.199 24.898 103.667 25.15L105.627 29H103.317L101.623 25.5H98.9488V29H96.8628ZM98.9488 23.848H101.847C102.267 23.848 102.593 23.722 102.827 23.47C103.06 23.2087 103.177 22.8587 103.177 22.42C103.177 22.14 103.125 21.902 103.023 21.706C102.92 21.5007 102.771 21.3467 102.575 21.244C102.379 21.1413 102.136 21.09 101.847 21.09H98.9488V23.848ZM107.089 29V19.396H109.175V29H107.089ZM115.038 29.168C114.478 29.168 113.946 29.112 113.442 29C112.938 28.888 112.49 28.7107 112.098 28.468C111.716 28.216 111.412 27.9033 111.188 27.53C110.974 27.1473 110.866 26.6853 110.866 26.144C110.866 26.0973 110.866 26.0507 110.866 26.004C110.866 25.948 110.871 25.906 110.88 25.878H112.952C112.943 25.906 112.938 25.9433 112.938 25.99C112.938 26.0367 112.938 26.0787 112.938 26.116C112.938 26.4147 113.018 26.6667 113.176 26.872C113.344 27.0773 113.587 27.2313 113.904 27.334C114.222 27.4367 114.59 27.488 115.01 27.488C115.281 27.488 115.519 27.474 115.724 27.446C115.939 27.4087 116.126 27.362 116.284 27.306C116.452 27.2407 116.588 27.166 116.69 27.082C116.802 26.998 116.882 26.9 116.928 26.788C116.984 26.676 117.012 26.55 117.012 26.41C117.012 26.158 116.928 25.9527 116.76 25.794C116.602 25.6353 116.378 25.5 116.088 25.388C115.808 25.276 115.491 25.1733 115.136 25.08C114.782 24.9867 114.418 24.8933 114.044 24.8C113.671 24.6973 113.307 24.576 112.952 24.436C112.598 24.2867 112.28 24.1093 112 23.904C111.72 23.6987 111.496 23.4373 111.328 23.12C111.16 22.8027 111.076 22.42 111.076 21.972C111.076 21.496 111.174 21.0853 111.37 20.74C111.576 20.3947 111.86 20.11 112.224 19.886C112.588 19.662 113.008 19.4987 113.484 19.396C113.96 19.284 114.478 19.228 115.038 19.228C115.561 19.228 116.056 19.284 116.522 19.396C116.989 19.4987 117.4 19.6667 117.754 19.9C118.109 20.1333 118.384 20.4273 118.58 20.782C118.786 21.1367 118.888 21.5567 118.888 22.042V22.21H116.858V22.098C116.858 21.846 116.784 21.6313 116.634 21.454C116.485 21.2767 116.275 21.1367 116.004 21.034C115.734 20.9313 115.416 20.88 115.052 20.88C114.66 20.88 114.324 20.9173 114.044 20.992C113.774 21.0667 113.564 21.1787 113.414 21.328C113.274 21.468 113.204 21.636 113.204 21.832C113.204 22.056 113.284 22.2427 113.442 22.392C113.61 22.532 113.834 22.658 114.114 22.77C114.404 22.8727 114.726 22.966 115.08 23.05C115.435 23.134 115.799 23.2273 116.172 23.33C116.546 23.4327 116.91 23.554 117.264 23.694C117.619 23.834 117.936 24.0113 118.216 24.226C118.496 24.4313 118.72 24.688 118.888 24.996C119.056 25.304 119.14 25.6727 119.14 26.102C119.14 26.8393 118.963 27.432 118.608 27.88C118.254 28.328 117.768 28.6547 117.152 28.86C116.536 29.0653 115.832 29.168 115.038 29.168ZM120.802 29V19.396H128.474V21.104H122.902V23.246H127.83V24.94H122.902V27.278H128.558V29H120.802ZM129.379 29L133.075 19.396H135.651L139.347 29H137.093L136.407 27.11H132.221L131.535 29H129.379ZM132.823 25.43H135.805L134.951 23.064C134.914 22.9613 134.867 22.84 134.811 22.7C134.764 22.5507 134.713 22.3873 134.657 22.21C134.601 22.0327 134.545 21.86 134.489 21.692C134.442 21.5147 134.396 21.356 134.349 21.216H134.265C134.218 21.3933 134.158 21.6033 134.083 21.846C134.008 22.0793 133.934 22.308 133.859 22.532C133.784 22.7467 133.724 22.924 133.677 23.064L132.823 25.43Z"
     fill="#F2F1EC"
     id="path6"
     style="fill:#0066ff" />
</svg>
