<svg width="20" height="20" viewBox="0 0 20 20" fill="none" xmlns="http://www.w3.org/2000/svg">
<path d="M0 10.2532C0 4.59039 4.47791 0 10.0001 0C15.5227 0 20 4.59039 20 10.2532C20 14.7818 17.1383 18.6237 13.1671 19.981C12.6602 20.0817 12.4802 19.762 12.4802 19.4891C12.4802 19.3772 12.4815 19.1812 12.4832 18.9191C12.4866 18.3903 12.4918 17.5924 12.4918 16.6754C12.4918 15.7188 12.1722 15.0949 11.8135 14.7767C14.0403 14.5228 16.3797 13.6557 16.3797 9.71766C16.3797 8.59825 15.9917 7.6836 15.3505 6.96556C15.4544 6.70731 15.7968 5.66448 15.2525 4.25218C15.2525 4.25218 14.4139 3.97661 12.5052 5.30317C11.7061 5.07599 10.8499 4.96206 10.0001 4.95816C9.15024 4.96206 8.29476 5.07599 7.49708 5.30317C5.58609 3.97661 4.74635 4.25218 4.74635 4.25218C4.20335 5.66448 4.54564 6.70731 4.64947 6.96556C4.00977 7.6836 3.61913 8.59825 3.61913 9.71766C3.61913 13.6464 5.95405 14.5256 8.1752 14.7848C7.88922 15.0409 7.63006 15.4932 7.5403 16.1559C6.96965 16.4178 5.52217 16.871 4.63026 15.3035C4.63026 15.3035 4.10151 14.3193 3.09733 14.2469C3.09733 14.2469 2.12163 14.2339 3.02894 14.8702C3.02894 14.8702 3.68437 15.1854 4.13927 16.3705C4.13927 16.3705 4.72631 18.2004 7.50834 17.5802C7.51068 18.0458 7.51449 18.497 7.51748 18.8511C7.51999 19.1483 7.52192 19.3776 7.52192 19.4891C7.52192 19.76 7.33844 20.0773 6.83867 19.9824C2.86533 18.6266 0 14.7833 0 10.2532Z" fill="#6B7682"/>
<path d="M3.64605 14.6818C3.71712 14.7165 3.79514 14.7013 3.81712 14.6509C3.84225 14.6003 3.80092 14.5309 3.72836 14.4978C3.65613 14.463 3.57795 14.4774 3.55646 14.5294C3.53299 14.58 3.57365 14.6487 3.64605 14.6818Z" fill="#6B7682"/>
<path d="M4.22076 15.1096C4.17316 15.1545 4.0801 15.1336 4.01696 15.0627C3.95167 14.9919 3.93944 14.8973 3.9877 14.8517C4.03679 14.8068 4.12704 14.8278 4.1925 14.8986C4.25779 14.9702 4.27051 15.0642 4.22076 15.1096Z" fill="#6B7682"/>
<path d="M4.39141 15.6068C4.45323 15.697 4.55323 15.7376 4.61438 15.6943C4.67686 15.6501 4.67686 15.5419 4.61587 15.4501C4.55323 15.3605 4.45471 15.3215 4.39273 15.3648C4.33025 15.4082 4.33025 15.5165 4.39141 15.6068Z" fill="#6B7682"/>
<path d="M5.15366 16.2591C5.09895 16.3205 4.98242 16.304 4.89713 16.2203C4.80986 16.1384 4.78556 16.0223 4.84044 15.9609C4.89581 15.8994 5.013 15.9167 5.09895 15.9997C5.18556 16.0814 5.21201 16.1984 5.15366 16.2591Z" fill="#6B7682"/>
<path d="M5.64825 16.669C5.7613 16.7028 5.87354 16.6666 5.89767 16.5871C5.92114 16.5062 5.84709 16.4138 5.73436 16.3791C5.62048 16.343 5.50775 16.3806 5.48428 16.4607C5.46147 16.541 5.53535 16.6342 5.64825 16.669Z" fill="#6B7682"/>
<path d="M6.71473 16.648C6.71754 16.7317 6.62168 16.8012 6.503 16.8027C6.38366 16.8054 6.28713 16.7376 6.28581 16.6552C6.28581 16.5707 6.37953 16.5019 6.49887 16.4999C6.61754 16.4975 6.71473 16.5648 6.71473 16.648Z" fill="#6B7682"/>
<path d="M7.28861 16.7043C7.40646 16.6819 7.48894 16.598 7.47472 16.5163C7.45968 16.4333 7.35406 16.3842 7.23605 16.405C7.12034 16.4267 7.03638 16.5106 7.05076 16.5943C7.06547 16.6754 7.17274 16.7258 7.28861 16.7043Z" fill="#6B7682"/>
</svg>
