<svg width="206" height="38" viewBox="0 0 206 38" fill="none" xmlns="http://www.w3.org/2000/svg">
<g id="Openlane 1" clip-path="url(#clip0_9353_392)">
<path id="Vector" d="M17.5015 3.69624L1.77559 30.0552C-0.625428 34.0818 1.34097 37.3754 6.14301 37.3754H37.6001C41.7184 37.3754 44.1247 34.0508 42.0788 30.4423C41.1565 28.8162 40.1707 27.221 39.2166 25.6104C36.0842 20.3241 32.9517 15.0431 29.8193 9.75683C28.5631 7.64027 27.3123 5.52371 26.0561 3.40715C23.6392 -0.33039 19.8442 -0.24263 17.5015 3.68591V3.69624Z" fill="#144D45"/>
<path id="Vector_2" d="M22.8123 31.6555C22.1498 30.8295 21.5721 29.859 21.5774 28.811C21.588 24.4282 28.8864 22.451 31.579 19.9989C32.6337 19.0387 33.4818 17.7585 33.7574 16.4059L30.132 10.2885C29.2203 9.70004 28.2345 9.19929 27.254 8.73468C25.0066 7.66608 20.3477 5.95734 16.7117 5.03328L16.028 6.18449C16.2983 6.31871 16.5686 6.44776 16.8389 6.58199C18.5138 7.41312 20.1993 8.25975 21.6251 9.47806C22.1763 9.94783 22.701 10.5054 22.8971 11.192C23.1728 12.1728 22.701 13.2362 21.9696 13.9641C19.3195 16.5711 14.581 17.3145 11.1889 18.5948C10.0281 19.0336 8.87794 19.5085 7.75959 20.0454L1.77559 30.0552C-0.625427 34.0818 1.34097 37.3754 6.14301 37.3754H32.5489C31.6002 37.1224 30.6567 36.8178 29.6974 36.441C27.0525 35.4033 24.572 33.8391 22.8176 31.6503L22.8123 31.6555Z" fill="#0EF1C7"/>
<path id="Vector_3" d="M63.7039 4.18666C56.2623 4.18666 51.068 9.27673 51.068 16.5608C51.068 23.8449 56.2623 28.9349 63.7039 28.9349C71.1454 28.9349 76.3397 23.8449 76.3397 16.5608C76.3397 9.27673 71.1454 4.18666 63.7039 4.18666ZM63.7039 25.9098C58.022 25.9098 54.2058 22.1516 54.2058 16.5608C54.2058 10.97 58.022 7.21179 63.7039 7.21179C69.3857 7.21179 73.2337 10.97 73.2337 16.5608C73.2337 22.1516 69.4016 25.9098 63.7039 25.9098Z" fill="#45515C"/>
<path id="Vector_4" d="M88.737 10.1646C85.9278 10.1646 83.4632 11.1971 81.7724 13.0349L81.624 10.588H78.9527V35.042H81.9579V26.2453C83.6699 27.9696 86.0656 28.9349 88.737 28.9349C94.1909 28.9349 98.1555 24.9806 98.1555 19.5343C98.1555 14.088 94.1962 10.1646 88.737 10.1646ZM88.5356 13.0246C92.4896 13.0246 95.1503 15.6419 95.1503 19.5291C95.1503 23.4164 92.4949 26.0698 88.5356 26.0698C84.5763 26.0698 81.889 23.4422 81.889 19.5291C81.889 15.6161 84.624 13.0246 88.5356 13.0246Z" fill="#45515C"/>
<path id="Vector_5" d="M109.657 10.1646C104.113 10.1646 100.239 14.0158 100.239 19.5343C100.239 25.0528 104.097 28.9349 109.625 28.9349C113.68 28.9349 117.083 26.808 118.503 23.3854L118.795 22.6885L115.509 22.6369L115.36 22.926C114.305 24.9444 112.217 26.106 109.631 26.106C106.276 26.106 103.864 24.0565 103.35 20.8352H119.033L119.044 20.3293C119.118 17.2577 118.143 14.5578 116.309 12.7252C114.629 11.0474 112.328 10.1646 109.657 10.1646ZM109.657 12.9936C112.986 12.9936 115.36 14.9501 115.98 18.1353H103.345C103.864 14.9914 106.286 12.9936 109.652 12.9936H109.657Z" fill="#45515C"/>
<path id="Vector_6" d="M130.784 10.1647C128.309 10.1647 126.152 11.1197 124.662 12.8284L124.546 10.588H121.869V28.5065H124.874V19.2349C124.874 15.518 127.153 13.0194 130.551 13.0194C133.726 13.0194 135.623 15.1824 135.623 18.8064V28.5013H138.628V18.6412C138.628 13.484 135.549 10.1543 130.789 10.1543L130.784 10.1647Z" fill="#45515C"/>
<path id="Vector_7" d="M145.089 4.23828H142.084V28.5116H145.089V4.23828Z" fill="#45515C"/>
<path id="Vector_8" d="M156.835 10.1647C152.913 10.1647 149.913 12.2657 149.012 15.6471L148.837 16.2924H151.879L152.001 15.9413C152.642 14.1035 154.503 12.9575 156.867 12.9575C159.782 12.9575 161.669 14.5888 161.669 17.1132V17.8049H154.55C150.644 17.8049 148.116 19.9318 148.116 23.2202C148.116 26.5086 150.893 28.7697 155.186 28.7697C157.916 28.7697 160.248 27.9283 161.886 26.3692L162.034 28.5065H164.669V17.0151C164.669 12.9781 161.446 10.1595 156.829 10.1595L156.835 10.1647ZM155.261 26.0389C152.711 26.0389 151.126 24.9496 151.126 23.1892C151.126 21.5838 152.531 20.5048 154.619 20.5048H161.706V20.7062C161.706 23.7932 158.992 26.0389 155.261 26.0389Z" fill="#45515C"/>
<path id="Vector_9" d="M176.414 10.1647C173.939 10.1647 171.782 11.1197 170.292 12.8284L170.176 10.588H167.499V28.5065H170.504V19.2349C170.504 15.518 172.783 13.0194 176.181 13.0194C179.356 13.0194 181.253 15.1824 181.253 18.8064V28.5013H184.258V18.6412C184.258 13.484 181.179 10.1543 176.419 10.1543L176.414 10.1647Z" fill="#45515C"/>
<path id="Vector_10" d="M205.247 20.3293C205.322 17.2577 204.346 14.5578 202.512 12.7252C200.832 11.0474 198.532 10.1646 195.861 10.1646C190.317 10.1646 186.442 14.0158 186.442 19.5343C186.442 25.0528 190.301 28.9349 195.829 28.9349C199.884 28.9349 203.286 26.808 204.707 23.3854L204.998 22.6885L201.712 22.6369L201.564 22.926C200.509 24.9444 198.421 26.106 195.834 26.106C192.479 26.106 190.067 24.0565 189.553 20.8352H205.237L205.247 20.3293ZM195.861 12.9936C199.189 12.9936 201.564 14.9501 202.184 18.1353H189.548C190.067 14.9914 192.49 12.9936 195.855 12.9936H195.861Z" fill="#45515C"/>
</g>
<defs>
<clipPath id="clip0_9353_392">
<rect width="206" height="38" fill="white"/>
</clipPath>
</defs>
</svg>
