<svg width="101" height="110" viewBox="0 0 101 110" fill="none" xmlns="http://www.w3.org/2000/svg">
<g filter="url(#filter0_dddd_17277_11785)">
<path d="M43.32 5.53994C47.2867 2.31308 52.9735 2.31307 56.9403 5.53994C59.3259 7.48058 62.4261 8.31128 65.4624 7.82343C70.5111 7.01225 75.4361 9.85567 77.2579 14.6336C78.3536 17.507 80.6231 19.7765 83.4965 20.8722C88.2745 22.6941 91.1179 27.619 90.3067 32.6677C89.8188 35.704 90.6496 38.8043 92.5902 41.1898C95.8171 45.1566 95.8171 50.8434 92.5902 54.8102C90.6496 57.1957 89.8188 60.296 90.3067 63.3323C91.1179 68.381 88.2745 73.3059 83.4965 75.1278C80.6231 76.2235 78.3536 78.493 77.2579 81.3664C75.4361 86.1443 70.5111 88.9877 65.4624 88.1766C62.4261 87.6887 59.3259 88.5194 56.9403 90.4601C52.9735 93.6869 47.2867 93.6869 43.32 90.4601C40.9344 88.5194 37.8342 87.6887 34.7979 88.1766C29.7491 88.9877 24.8242 86.1443 23.0023 81.3664C21.9067 78.493 19.6371 76.2235 16.7637 75.1278C11.9858 73.3059 9.14238 68.381 9.95356 63.3323C10.4414 60.296 9.6107 57.1957 7.67007 54.8102C4.4432 50.8434 4.4432 45.1566 7.67007 41.1898C9.6107 38.8043 10.4414 35.704 9.95356 32.6677C9.14238 27.619 11.9858 22.6941 16.7637 20.8722C19.6371 19.7765 21.9067 17.507 23.0023 14.6336C24.8242 9.85567 29.7491 7.01225 34.7979 7.82343C37.8342 8.31128 40.9344 7.48058 43.32 5.53994Z" fill="#0069A8"/>
<path d="M43.32 5.53994C47.2867 2.31308 52.9735 2.31307 56.9403 5.53994C59.3259 7.48058 62.4261 8.31128 65.4624 7.82343C70.5111 7.01225 75.4361 9.85567 77.2579 14.6336C78.3536 17.507 80.6231 19.7765 83.4965 20.8722C88.2745 22.6941 91.1179 27.619 90.3067 32.6677C89.8188 35.704 90.6496 38.8043 92.5902 41.1898C95.8171 45.1566 95.8171 50.8434 92.5902 54.8102C90.6496 57.1957 89.8188 60.296 90.3067 63.3323C91.1179 68.381 88.2745 73.3059 83.4965 75.1278C80.6231 76.2235 78.3536 78.493 77.2579 81.3664C75.4361 86.1443 70.5111 88.9877 65.4624 88.1766C62.4261 87.6887 59.3259 88.5194 56.9403 90.4601C52.9735 93.6869 47.2867 93.6869 43.32 90.4601C40.9344 88.5194 37.8342 87.6887 34.7979 88.1766C29.7491 88.9877 24.8242 86.1443 23.0023 81.3664C21.9067 78.493 19.6371 76.2235 16.7637 75.1278C11.9858 73.3059 9.14238 68.381 9.95356 63.3323C10.4414 60.296 9.6107 57.1957 7.67007 54.8102C4.4432 50.8434 4.4432 45.1566 7.67007 41.1898C9.6107 38.8043 10.4414 35.704 9.95356 32.6677C9.14238 27.619 11.9858 22.6941 16.7637 20.8722C19.6371 19.7765 21.9067 17.507 23.0023 14.6336C24.8242 9.85567 29.7491 7.01225 34.7979 7.82343C37.8342 8.31128 40.9344 7.48058 43.32 5.53994Z" stroke="white" stroke-width="2.5"/>
</g>
<path d="M44.1712 10.8474C47.6421 8.02394 52.6181 8.02394 56.089 10.8474C58.1764 12.5455 60.8891 13.2724 63.5459 12.8455C67.9635 12.1357 72.2728 14.6237 73.867 18.8044C74.8257 21.3186 76.8115 23.3045 79.3257 24.2632C83.5064 25.8573 85.9944 30.1666 85.2846 34.5843C84.8578 37.241 85.5846 39.9537 87.2827 42.0411C90.1062 45.512 90.1062 50.488 87.2827 53.9589C85.5846 56.0463 84.8578 58.759 85.2846 61.4157C85.9944 65.8334 83.5064 70.1427 79.3257 71.7368C76.8115 72.6955 74.8257 74.6814 73.867 77.1956C72.2728 81.3763 67.9635 83.8643 63.5459 83.1545C60.8891 82.7276 58.1764 83.4545 56.089 85.1525C52.6181 87.9761 47.6421 87.9761 44.1712 85.1525C42.0838 83.4545 39.3712 82.7276 36.7144 83.1545C32.2968 83.8643 27.9874 81.3763 26.3933 77.1956C25.4346 74.6814 23.4488 72.6955 20.9345 71.7368C16.7538 70.1427 14.2658 65.8334 14.9756 61.4157C15.4025 58.759 14.6756 56.0463 12.9776 53.9589C10.1541 50.488 10.1541 45.512 12.9776 42.0411C14.6756 39.9537 15.4025 37.241 14.9756 34.5843C14.2658 30.1666 16.7538 25.8573 20.9345 24.2632C23.4488 23.3045 25.4346 21.3186 26.3933 18.8044C27.9874 14.6237 32.2968 12.1357 36.7144 12.8455C39.3712 13.2724 42.0838 12.5455 44.1712 10.8474Z" fill="white"/>
<path d="M43.6975 10.2656C47.4441 7.21786 52.8162 7.21786 56.5627 10.2656C58.4843 11.8287 60.9814 12.4984 63.427 12.1055C68.1955 11.3393 72.8469 14.0245 74.5676 18.5371C75.4502 20.8517 77.2785 22.6799 79.593 23.5625C84.1057 25.2833 86.7908 29.9347 86.0247 34.7031C85.6317 37.1488 86.3015 39.6458 87.8645 41.5674C90.9123 45.314 90.9123 50.686 87.8645 54.4326C86.3015 56.3542 85.6317 58.8512 86.0247 61.2969C86.7908 66.0653 84.1057 70.7167 79.593 72.4375C77.2785 73.3201 75.4502 75.1483 74.5676 77.4629C72.8469 81.9755 68.1955 84.6607 63.427 83.8945C60.9814 83.5016 58.4843 84.1713 56.5627 85.7344C52.8162 88.7821 47.4441 88.7821 43.6975 85.7344C41.7759 84.1713 39.2789 83.5016 36.8333 83.8945C32.0648 84.6607 27.4134 81.9755 25.6926 77.4629C24.8101 75.1483 22.9818 73.3201 20.6672 72.4375C16.1546 70.7167 13.4695 66.0653 14.2356 61.2969C14.6285 58.8512 13.9588 56.3542 12.3958 54.4326C9.34799 50.686 9.34799 45.314 12.3958 41.5674C13.9588 39.6458 14.6285 37.1488 14.2356 34.7031C13.4695 29.9347 16.1546 25.2833 20.6672 23.5625C22.9818 22.6799 24.8101 20.8517 25.6926 18.5371C27.4134 14.0245 32.0648 11.3393 36.8333 12.1055C39.2789 12.4984 41.7759 11.8287 43.6975 10.2656Z" stroke="white" stroke-opacity="0.4" stroke-width="1.5"/>
<circle cx="50.1301" cy="48" r="24" fill="#0069A8" fill-opacity="0.1"/>
<path d="M34.7481 58.308C33.2734 58.308 31.9014 58.056 30.6321 57.552C29.3814 57.0293 28.2801 56.3013 27.3281 55.368C26.3948 54.4347 25.6668 53.352 25.1441 52.12C24.6214 50.8693 24.3601 49.5253 24.3601 48.088C24.3601 46.6507 24.6214 45.316 25.1441 44.084C25.6668 42.8333 26.3948 41.7507 27.3281 40.836C28.2614 39.9213 29.3534 39.212 30.6041 38.708C31.8734 38.1853 33.2454 37.924 34.7201 37.924C36.2881 37.924 37.6788 38.176 38.8921 38.68C40.1241 39.184 41.1974 39.8747 42.1121 40.752L39.1721 43.72C38.6494 43.16 38.0148 42.7213 37.2681 42.404C36.5401 42.0867 35.6908 41.928 34.7201 41.928C33.8614 41.928 33.0681 42.0773 32.3401 42.376C31.6308 42.656 31.0148 43.0667 30.4921 43.608C29.9881 44.1493 29.5868 44.8027 29.2881 45.568C29.0081 46.3333 28.8681 47.1733 28.8681 48.088C28.8681 49.0213 29.0081 49.8707 29.2881 50.636C29.5868 51.4013 29.9881 52.0547 30.4921 52.596C31.0148 53.1373 31.6308 53.5573 32.3401 53.856C33.0681 54.1547 33.8614 54.304 34.7201 54.304C35.7281 54.304 36.6054 54.1453 37.3521 53.828C38.0988 53.5107 38.7428 53.072 39.2841 52.512L42.2521 55.48C41.3001 56.3573 40.2081 57.048 38.9761 57.552C37.7628 58.056 36.3534 58.308 34.7481 58.308ZM53.2598 58.308C51.7852 58.308 50.4132 58.056 49.1438 57.552C47.8932 57.0293 46.7918 56.3013 45.8398 55.368C44.9065 54.4347 44.1785 53.352 43.6558 52.12C43.1332 50.8693 42.8718 49.5253 42.8718 48.088C42.8718 46.6507 43.1332 45.316 43.6558 44.084C44.1785 42.8333 44.9065 41.7507 45.8398 40.836C46.7732 39.9213 47.8652 39.212 49.1158 38.708C50.3852 38.1853 51.7572 37.924 53.2318 37.924C54.7998 37.924 56.1905 38.176 57.4038 38.68C58.6358 39.184 59.7092 39.8747 60.6238 40.752L57.6838 43.72C57.1612 43.16 56.5265 42.7213 55.7798 42.404C55.0518 42.0867 54.2025 41.928 53.2318 41.928C52.3732 41.928 51.5798 42.0773 50.8518 42.376C50.1425 42.656 49.5265 43.0667 49.0038 43.608C48.4998 44.1493 48.0985 44.8027 47.7998 45.568C47.5198 46.3333 47.3798 47.1733 47.3798 48.088C47.3798 49.0213 47.5198 49.8707 47.7998 50.636C48.0985 51.4013 48.4998 52.0547 49.0038 52.596C49.5265 53.1373 50.1425 53.5573 50.8518 53.856C51.5798 54.1547 52.3732 54.304 53.2318 54.304C54.2398 54.304 55.1172 54.1453 55.8638 53.828C56.6105 53.5107 57.2545 53.072 57.7958 52.512L60.7638 55.48C59.8118 56.3573 58.7198 57.048 57.4878 57.552C56.2745 58.056 54.8652 58.308 53.2598 58.308ZM63.1845 58V38.232H67.5805V58H63.1845ZM66.5445 50.244V46.464H76.4285V50.244H66.5445ZM66.5445 42.012V38.232H76.8765V42.012H66.5445Z" fill="#09151D"/>
<defs>
<filter id="filter0_dddd_17277_11785" x="0" y="0.869873" width="100.26" height="108.26" filterUnits="userSpaceOnUse" color-interpolation-filters="sRGB">
<feFlood flood-opacity="0" result="BackgroundImageFix"/>
<feColorMatrix in="SourceAlpha" type="matrix" values="0 0 0 0 0 0 0 0 0 0 0 0 0 0 0 0 0 0 127 0" result="hardAlpha"/>
<feOffset dy="1"/>
<feGaussianBlur stdDeviation="1"/>
<feColorMatrix type="matrix" values="0 0 0 0 0 0 0 0 0 0.411635 0 0 0 0 0.660296 0 0 0 0.08 0"/>
<feBlend mode="normal" in2="BackgroundImageFix" result="effect1_dropShadow_17277_11785"/>
<feColorMatrix in="SourceAlpha" type="matrix" values="0 0 0 0 0 0 0 0 0 0 0 0 0 0 0 0 0 0 127 0" result="hardAlpha"/>
<feOffset dy="3"/>
<feGaussianBlur stdDeviation="1.5"/>
<feColorMatrix type="matrix" values="0 0 0 0 0 0 0 0 0 0.411635 0 0 0 0 0.660296 0 0 0 0.07 0"/>
<feBlend mode="normal" in2="effect1_dropShadow_17277_11785" result="effect2_dropShadow_17277_11785"/>
<feColorMatrix in="SourceAlpha" type="matrix" values="0 0 0 0 0 0 0 0 0 0 0 0 0 0 0 0 0 0 127 0" result="hardAlpha"/>
<feOffset dy="6"/>
<feGaussianBlur stdDeviation="2"/>
<feColorMatrix type="matrix" values="0 0 0 0 0 0 0 0 0 0.411635 0 0 0 0 0.660296 0 0 0 0.04 0"/>
<feBlend mode="normal" in2="effect2_dropShadow_17277_11785" result="effect3_dropShadow_17277_11785"/>
<feColorMatrix in="SourceAlpha" type="matrix" values="0 0 0 0 0 0 0 0 0 0 0 0 0 0 0 0 0 0 127 0" result="hardAlpha"/>
<feOffset dy="11"/>
<feGaussianBlur stdDeviation="2"/>
<feColorMatrix type="matrix" values="0 0 0 0 0 0 0 0 0 0.411635 0 0 0 0 0.660296 0 0 0 0.01 0"/>
<feBlend mode="normal" in2="effect3_dropShadow_17277_11785" result="effect4_dropShadow_17277_11785"/>
<feBlend mode="normal" in="SourceGraphic" in2="effect4_dropShadow_17277_11785" result="shape"/>
</filter>
</defs>
</svg>
