<svg width="79" height="88" viewBox="0 0 79 88" fill="none" xmlns="http://www.w3.org/2000/svg">
<path d="M33.1152 4.51855C36.9145 2.49073 41.5034 2.55859 45.25 4.72168L69.0254 18.4482C72.8927 20.6812 75.2754 24.8078 75.2754 29.2734V56.7266C75.2754 61.1922 72.8927 65.3188 69.0254 67.5518L45.25 81.2783C41.5034 83.4414 36.9145 83.5093 33.1152 81.4814L32.75 81.2783L8.97461 67.5518C5.10731 65.3188 2.72463 61.1922 2.72461 56.7266V29.2734C2.72463 24.8078 5.10731 20.6812 8.97461 18.4482L32.75 4.72168L33.1152 4.51855Z" fill="#388426" stroke="white" stroke-width="5"/>
<path d="M20.239 57.143C19.5543 57.143 18.9173 57.026 18.328 56.792C17.7473 56.5493 17.236 56.2113 16.794 55.778C16.3607 55.3447 16.0227 54.842 15.78 54.27C15.5373 53.6893 15.416 53.0653 15.416 52.398C15.416 51.7307 15.5373 51.111 15.78 50.539C16.0227 49.9583 16.3607 49.4557 16.794 49.031C17.2273 48.6063 17.7343 48.277 18.315 48.043C18.9043 47.8003 19.5413 47.679 20.226 47.679C20.954 47.679 21.5997 47.796 22.163 48.03C22.735 48.264 23.2333 48.5847 23.658 48.992L22.293 50.37C22.0503 50.11 21.7557 49.9063 21.409 49.759C21.071 49.6117 20.6767 49.538 20.226 49.538C19.8273 49.538 19.459 49.6073 19.121 49.746C18.7917 49.876 18.5057 50.0667 18.263 50.318C18.029 50.5693 17.8427 50.8727 17.704 51.228C17.574 51.5833 17.509 51.9733 17.509 52.398C17.509 52.8313 17.574 53.2257 17.704 53.581C17.8427 53.9363 18.029 54.2397 18.263 54.491C18.5057 54.7423 18.7917 54.9373 19.121 55.076C19.459 55.2147 19.8273 55.284 20.226 55.284C20.694 55.284 21.1013 55.2103 21.448 55.063C21.7947 54.9157 22.0937 54.712 22.345 54.452L23.723 55.83C23.281 56.2373 22.774 56.558 22.202 56.792C21.6387 57.026 20.9843 57.143 20.239 57.143ZM27.4505 57.143C26.6965 57.143 26.0465 57.0217 25.5005 56.779C24.9632 56.5277 24.4692 56.1507 24.0185 55.648L25.3445 54.335C25.6392 54.673 25.9642 54.9373 26.3195 55.128C26.6835 55.31 27.1039 55.401 27.5805 55.401C28.0139 55.401 28.3475 55.323 28.5815 55.167C28.8242 55.011 28.9455 54.7943 28.9455 54.517C28.9455 54.2657 28.8675 54.062 28.7115 53.906C28.5555 53.75 28.3475 53.6157 28.0875 53.503C27.8362 53.3903 27.5545 53.282 27.2425 53.178C26.9392 53.074 26.6359 52.957 26.3325 52.827C26.0292 52.6883 25.7475 52.5193 25.4875 52.32C25.2362 52.112 25.0325 51.8563 24.8765 51.553C24.7205 51.241 24.6425 50.851 24.6425 50.383C24.6425 49.8197 24.7769 49.3343 25.0455 48.927C25.3229 48.5197 25.7042 48.212 26.1895 48.004C26.6749 47.7873 27.2339 47.679 27.8665 47.679C28.5079 47.679 29.0929 47.7917 29.6215 48.017C30.1589 48.2423 30.6009 48.55 30.9475 48.94L29.6215 50.253C29.3442 49.967 29.0625 49.7547 28.7765 49.616C28.4992 49.4773 28.1829 49.408 27.8275 49.408C27.4722 49.408 27.1905 49.4773 26.9825 49.616C26.7745 49.746 26.6705 49.9367 26.6705 50.188C26.6705 50.422 26.7485 50.6127 26.9045 50.76C27.0605 50.8987 27.2642 51.02 27.5155 51.124C27.7755 51.228 28.0572 51.332 28.3605 51.436C28.6725 51.54 28.9802 51.6613 29.2835 51.8C29.5869 51.9387 29.8642 52.1163 30.1155 52.333C30.3755 52.541 30.5835 52.8097 30.7395 53.139C30.8955 53.4597 30.9735 53.8583 30.9735 54.335C30.9735 55.2103 30.6615 55.8993 30.0375 56.402C29.4135 56.896 28.5512 57.143 27.4505 57.143ZM32.2736 57V47.822H34.3146V57H32.2736ZM33.8336 53.399V51.644H38.4226V53.399H33.8336ZM33.8336 49.577V47.822H38.6306V49.577H33.8336Z" fill="white"/>
<path d="M66.8473 28V30.448L69 31.8987L66.8473 33.304V45" fill="white"/>
<path d="M17.7023 43.4587H15V33.168C15 33.168 15 31.2187 16.9695 30.584C18.7557 30.04 19.9466 31.1733 19.9466 31.1733L28.8321 40.6933C29.2901 40.9653 29.4733 40.6933 29.4733 40.4213V30.584H32.2214V40.8293C32.2214 41.6907 31.4885 42.7787 30.4351 43.1867C29.3817 43.5947 28.2366 43.5947 26.8626 42.4613L18.5267 33.4853C18.2977 33.2587 17.7481 33.2133 17.7023 33.6667V43.4587Z" fill="white"/>
<path d="M33.9618 30.584H36.6641V39.832C36.6641 40.8293 37.4885 40.8293 38.313 40.8293H50.4046C50.9084 40.8293 51.458 40.24 51.458 39.6507C51.458 39.016 50.8626 38.4267 50.313 38.4267H42.4809C41.1527 38.472 38.313 37.248 38.313 34.6187C38.313 31.4 40.9695 30.72 42.2061 30.6293H64.4656V33.3493H58.8779V43.5493H56.1756V33.304H42.5725C41.2901 33.2133 40.3282 35.3893 42.4809 35.7067H50.8626C52.145 35.7067 54.2061 36.7947 54.2061 39.4693C54.2061 42.1893 52.6031 43.4587 50.8626 43.4587H38.4962C36.4351 43.4587 35.7023 43.0053 35.0153 42.3253C34.3282 41.6907 34.2366 41.328 34.0076 39.968L33.9618 30.584Z" fill="white"/>
</svg>
