<svg width="79" height="88" viewBox="0 0 79 88" fill="none" xmlns="http://www.w3.org/2000/svg">
<path d="M33.1152 4.51855C36.9145 2.49073 41.5034 2.55859 45.25 4.72168L69.0254 18.4482C72.8927 20.6812 75.2754 24.8078 75.2754 29.2734V56.7266C75.2754 61.1922 72.8927 65.3188 69.0254 67.5518L45.25 81.2783C41.5034 83.4414 36.9145 83.5093 33.1152 81.4814L32.75 81.2783L8.97461 67.5518C5.10731 65.3188 2.72463 61.1922 2.72461 56.7266V29.2734C2.72463 24.8078 5.10731 20.6812 8.97461 18.4482L32.75 4.72168L33.1152 4.51855Z" fill="#D9AE40" stroke="white" stroke-width="5"/>
<path d="M51.2073 39.5583L48.2412 38.7937C47.7095 40.8485 46.5825 42.6992 45.0026 44.1119C43.4227 45.5247 41.4608 46.436 39.3647 46.7309C37.2686 47.0258 35.1323 46.691 33.2259 45.7687C31.3194 44.8465 29.7282 43.3782 28.6534 41.5494C27.5785 39.7206 27.0682 37.6132 27.1869 35.4937C27.3056 33.3741 28.048 31.3373 29.3203 29.6408C30.5926 27.9442 32.3377 26.6638 34.3352 25.9615C36.3326 25.2592 38.4928 25.1665 40.5428 25.6949L41.3067 22.7216C38.3189 21.9432 35.1571 22.1949 32.3292 23.4362C29.5012 24.6775 27.1715 26.8362 25.7143 29.5656C24.257 32.2949 23.757 35.4364 24.2945 38.4851C24.8319 41.5339 26.3757 44.3129 28.6777 46.3756V65.2783L37.863 59.1365L47.0482 65.2783V46.4045C49.0813 44.587 50.5291 42.2038 51.2073 39.5583ZM43.9865 59.5399L37.863 55.4457L31.7395 59.5399V48.4653C33.6393 49.4227 35.7357 49.922 37.8618 49.9237C39.988 49.9253 42.0852 49.4292 43.9865 48.4748V59.5399Z" fill="#FFDB81"/>
<path d="M38.8446 38.3974C39.0958 38.2278 39.2706 37.9662 39.3316 37.6688C39.3926 37.3713 39.3349 37.0617 39.1709 36.8065L37.7309 34.6143C37.5619 34.3624 37.301 34.1871 37.0045 34.1259C36.7079 34.0647 36.3992 34.1226 36.1447 34.2871L30.9948 37.69C30.684 36.3098 30.8 34.8673 31.3274 33.5549C31.8547 32.2424 32.7683 31.1223 33.9464 30.3439C35.1246 29.5654 36.5112 29.1656 37.9217 29.1976C39.3321 29.2296 40.6994 29.692 41.8412 30.5231L51.2805 24.286C51.824 23.9269 52.4874 23.799 53.1248 23.9305C53.7622 24.062 54.3215 24.4421 54.6795 24.9872C55.0375 25.5322 55.165 26.1976 55.0339 26.837C54.9028 27.4763 54.5238 28.0372 53.9804 28.3963L44.541 34.6334C44.8518 36.0137 44.7357 37.4562 44.2084 38.7686C43.6811 40.081 42.7675 41.2011 41.5893 41.9796C40.4112 42.758 39.0245 43.1579 37.6141 43.1259C36.2036 43.0938 34.8364 42.6315 33.6946 41.8003L38.8446 38.3974Z" fill="#FFDB81"/>
</svg>
