<svg width="80" height="88" viewBox="0 0 80 88" fill="none" xmlns="http://www.w3.org/2000/svg">
<path d="M33.6152 4.51855C37.4145 2.49073 42.0034 2.55859 45.75 4.72168L69.5254 18.4482C73.3927 20.6812 75.7754 24.8078 75.7754 29.2734V56.7266C75.7754 61.1922 73.3927 65.3188 69.5254 67.5518L45.75 81.2783C42.0034 83.4414 37.4145 83.5093 33.6152 81.4814L33.25 81.2783L9.47461 67.5518C5.60731 65.3188 3.22463 61.1922 3.22461 56.7266V29.2734C3.22463 24.8078 5.60731 20.6812 9.47461 18.4482L33.25 4.72168L33.6152 4.51855Z" fill="#083896" stroke="white" stroke-width="5"/>
<path d="M24.9213 48.165C24.1513 48.165 23.4263 48.025 22.7463 47.745C22.0763 47.465 21.4913 47.08 20.9913 46.59C20.4913 46.09 20.0963 45.51 19.8063 44.85C19.5263 44.18 19.3863 43.46 19.3863 42.69C19.3863 41.92 19.5313 41.205 19.8213 40.545C20.1113 39.885 20.5113 39.31 21.0213 38.82C21.5413 38.32 22.1463 37.935 22.8363 37.665C23.5263 37.385 24.2663 37.245 25.0563 37.245C25.9663 37.245 26.7913 37.41 27.5313 37.74C28.2813 38.07 28.9013 38.525 29.3913 39.105L27.7863 40.71C27.4463 40.27 27.0463 39.94 26.5863 39.72C26.1263 39.5 25.6063 39.39 25.0263 39.39C24.4063 39.39 23.8513 39.53 23.3613 39.81C22.8713 40.08 22.4863 40.465 22.2063 40.965C21.9363 41.455 21.8013 42.03 21.8013 42.69C21.8013 43.35 21.9363 43.93 22.2063 44.43C22.4763 44.93 22.8463 45.32 23.3162 45.6C23.7863 45.88 24.3263 46.02 24.9363 46.02C25.5563 46.02 26.0813 45.905 26.5113 45.675C26.9513 45.435 27.2862 45.095 27.5163 44.655C27.7563 44.205 27.8763 43.66 27.8763 43.02L29.4363 44.07L24.7113 43.995V42H30.2763V42.345C30.2763 43.615 30.0463 44.685 29.5863 45.555C29.1363 46.415 28.5063 47.065 27.6963 47.505C26.8963 47.945 25.9713 48.165 24.9213 48.165ZM33.2936 48V45.93H35.9186C36.5586 45.93 37.1186 45.805 37.5986 45.555C38.0786 45.295 38.4486 44.92 38.7086 44.43C38.9686 43.94 39.0986 43.36 39.0986 42.69C39.0986 42.02 38.9636 41.445 38.6936 40.965C38.4336 40.485 38.0636 40.115 37.5836 39.855C37.1136 39.595 36.5586 39.465 35.9186 39.465H33.2186V37.41H35.9486C36.7486 37.41 37.4836 37.54 38.1536 37.8C38.8336 38.05 39.4236 38.415 39.9236 38.895C40.4336 39.365 40.8236 39.925 41.0936 40.575C41.3736 41.215 41.5136 41.925 41.5136 42.705C41.5136 43.475 41.3736 44.185 41.0936 44.835C40.8236 45.485 40.4386 46.045 39.9386 46.515C39.4386 46.985 38.8486 47.35 38.1686 47.61C37.4986 47.87 36.7686 48 35.9786 48H33.2936ZM31.7036 48V37.41H34.0586V48H31.7036ZM44.8122 44.145V42.315H47.0922C47.3822 42.315 47.6472 42.255 47.8872 42.135C48.1272 42.015 48.3172 41.84 48.4572 41.61C48.5972 41.38 48.6672 41.1 48.6672 40.77C48.6672 40.45 48.5972 40.175 48.4572 39.945C48.3172 39.715 48.1272 39.54 47.8872 39.42C47.6472 39.3 47.3822 39.24 47.0922 39.24H44.8122V37.41H47.4372C48.1072 37.41 48.7122 37.545 49.2522 37.815C49.7922 38.085 50.2172 38.475 50.5272 38.985C50.8472 39.485 51.0072 40.08 51.0072 40.77C51.0072 41.46 50.8472 42.06 50.5272 42.57C50.2172 43.07 49.7922 43.46 49.2522 43.74C48.7122 44.01 48.1072 44.145 47.4372 44.145H44.8122ZM43.0122 48V37.41H45.3672V48H43.0122ZM54.1286 43.635V41.895H56.3636C56.8336 41.895 57.1936 41.775 57.4436 41.535C57.7036 41.295 57.8336 40.97 57.8336 40.56C57.8336 40.18 57.7086 39.865 57.4586 39.615C57.2086 39.365 56.8486 39.24 56.3786 39.24H54.1286V37.41H56.6486C57.3486 37.41 57.9636 37.545 58.4936 37.815C59.0236 38.075 59.4386 38.44 59.7386 38.91C60.0386 39.38 60.1886 39.92 60.1886 40.53C60.1886 41.15 60.0386 41.695 59.7386 42.165C59.4386 42.625 59.0186 42.985 58.4786 43.245C57.9386 43.505 57.3036 43.635 56.5736 43.635H54.1286ZM52.3286 48V37.41H54.6836V48H52.3286ZM58.0886 48L54.7886 43.44L56.9486 42.855L60.8786 48H58.0886Z" fill="white"/>
<path d="M39.9987 9.58331L40.8999 11.4091L42.9154 11.7037L41.457 13.1241L41.8012 15.1308L39.9987 14.1829L38.1962 15.1308L38.5404 13.1241L37.082 11.7037L39.0974 11.4091L39.9987 9.58331Z" fill="white"/>
<path d="M39.9987 71.5834L40.8999 73.4092L42.9154 73.7038L41.457 75.1242L41.8012 77.1309L39.9987 76.183L38.1962 77.1309L38.5404 75.1242L37.082 73.7038L39.0974 73.4092L39.9987 71.5834Z" fill="white"/>
<path d="M68.9987 40.5833L69.8999 42.4091L71.9154 42.7037L70.457 44.1241L70.8012 46.1308L68.9987 45.1829L67.1962 46.1308L67.5404 44.1241L66.082 42.7037L68.0974 42.4091L68.9987 40.5833Z" fill="white"/>
<path d="M11.9987 40.5833L12.8999 42.4091L14.9154 42.7037L13.457 44.1241L13.8012 46.1308L11.9987 45.1829L10.1962 46.1308L10.5404 44.1241L9.08203 42.7037L11.0974 42.4091L11.9987 40.5833Z" fill="white"/>
<path d="M54.9987 16.5833L55.8999 18.4091L57.9154 18.7037L56.457 20.1241L56.8012 22.1308L54.9987 21.1829L53.1962 22.1308L53.5404 20.1241L52.082 18.7037L54.0974 18.4091L54.9987 16.5833Z" fill="white"/>
<path d="M24.9987 16.5833L25.8999 18.4091L27.9154 18.7037L26.457 20.1241L26.8012 22.1308L24.9987 21.1829L23.1962 22.1308L23.5404 20.1241L22.082 18.7037L24.0974 18.4091L24.9987 16.5833Z" fill="white"/>
<path d="M54.9987 63.5834L55.8999 65.4092L57.9154 65.7038L56.457 67.1242L56.8012 69.1309L54.9987 68.183L53.1962 69.1309L53.5404 67.1242L52.082 65.7038L54.0974 65.4092L54.9987 63.5834Z" fill="white"/>
<path d="M24.9987 63.5834L25.8999 65.4092L27.9154 65.7038L26.457 67.1242L26.8012 69.1309L24.9987 68.183L23.1962 69.1309L23.5404 67.1242L22.082 65.7038L24.0974 65.4092L24.9987 63.5834Z" fill="white"/>
<path d="M67.9987 25.5833L68.8999 27.4091L70.9154 27.7037L69.457 29.1241L69.8012 31.1308L67.9987 30.1829L66.1962 31.1308L66.5404 29.1241L65.082 27.7037L67.0974 27.4091L67.9987 25.5833Z" fill="white"/>
<path d="M12.9987 25.5833L13.8999 27.4091L15.9154 27.7037L14.457 29.1241L14.8012 31.1308L12.9987 30.1829L11.1962 31.1308L11.5404 29.1241L10.082 27.7037L12.0974 27.4091L12.9987 25.5833Z" fill="white"/>
<path d="M67.9987 56.0833L68.8999 57.9091L70.9154 58.2037L69.457 59.6241L69.8012 61.6308L67.9987 60.6829L66.1962 61.6308L66.5404 59.6241L65.082 58.2037L67.0974 57.9091L67.9987 56.0833Z" fill="white"/>
<path d="M12.9987 55.5833L13.8999 57.4091L15.9154 57.7037L14.457 59.1241L14.8012 61.1308L12.9987 60.1829L11.1962 61.1308L11.5404 59.1241L10.082 57.7037L12.0974 57.4091L12.9987 55.5833Z" fill="white"/>
</svg>
