<svg width="80" height="88" viewBox="0 0 80 88" fill="none" xmlns="http://www.w3.org/2000/svg">
<path d="M33.6152 4.51855C37.4145 2.49073 42.0034 2.55859 45.75 4.72168L69.5254 18.4482C73.3927 20.6812 75.7754 24.8078 75.7754 29.2734V56.7266C75.7754 61.1922 73.3927 65.3188 69.5254 67.5518L45.75 81.2783C42.0034 83.4414 37.4145 83.5093 33.6152 81.4814L33.25 81.2783L9.47461 67.5518C5.60731 65.3188 3.22463 61.1922 3.22461 56.7266V29.2734C3.22463 24.8078 5.60731 20.6812 9.47461 18.4482L33.25 4.72168L33.6152 4.51855Z" fill="#3578BE" stroke="white" stroke-width="5"/>
<path d="M40.8428 47.5713C40.8545 48.4047 40.8661 49.0118 40.8777 49.3095C40.8894 49.3452 40.8894 49.3928 40.8777 49.4285V49.5119C40.8777 49.6786 40.901 49.8452 40.9476 50C40.9942 49.8452 41.0175 49.6786 41.0175 49.5119C41.0175 49.4523 41.0408 48.5832 41.0757 47.1903C41.064 47.2022 41.0524 47.2141 41.0524 47.226C40.9709 47.3332 40.901 47.4522 40.8428 47.5713ZM38.421 30.1892C38.6073 29.9868 38.7819 29.7487 38.91 29.4987C38.8168 29.713 38.4559 30.5226 38.8052 30.594C39.1894 30.6654 39.6202 30.5464 40.4004 29.5344C40.3771 28.2367 40.3538 27.1057 40.3421 26.2485H39.8648C39.6319 26.2485 39.2476 26.2247 38.9915 25.8318C38.712 25.4032 38.7004 24.9627 38.6888 24.6413C38.6771 24.1769 38.5607 23.3316 37.9901 22.8554C37.5943 22.534 36.5231 22.284 35.5334 22.6887C35.2073 22.8197 34.5553 23.165 33.9149 23.4864C33.3327 23.7841 32.5876 24.1531 32.3547 24.1531C32.7389 23.9745 33.2512 23.7126 33.8101 23.3912C34.4505 23.034 35.1258 22.653 35.4635 22.5102C36.1388 22.2363 37.4313 22.153 38.0949 22.7007C38.7237 23.2245 38.8518 24.1293 38.8634 24.6174C38.8751 24.9389 38.8867 25.3318 39.1312 25.7247C39.3524 26.058 39.7017 26.058 39.9113 26.058H40.3305V25.7485C39.9579 25.7723 39.4223 25.7961 39.1894 25.2842C38.91 24.6651 39.2127 23.0816 38.2812 22.4149C37.3498 21.7482 35.8594 21.9149 34.532 22.7007C33.2163 23.4745 31.4698 24.4865 29.3157 25.3675C27.1617 26.2485 25.8227 26.6057 25.5665 26.6414C25.322 26.689 25.7644 26.8557 26.6843 26.8795C27.6041 26.9033 28.3726 26.8319 28.3726 26.8319L35.1258 23.6888C35.1258 23.6888 29.3041 26.6533 28.815 26.9747C28.326 27.2962 27.9301 27.4033 27.9651 27.701C28 27.9986 28.3726 27.9629 29.3972 27.9391C30.4219 27.9153 30.6431 27.82 30.9924 27.7129C31.3417 27.6057 35.1258 25.8199 35.1258 25.8199C35.1258 25.8199 31.0739 27.8796 30.4917 28.3558C29.9095 28.832 30.5383 28.9868 30.9342 28.9987C31.3417 29.0106 32.4245 28.951 33.03 28.6415C33.6355 28.332 35.5217 27.0938 35.5217 27.0938C35.5217 27.0938 33.6588 28.4629 33.2978 28.7725C33.0067 29.0225 32.8554 29.2368 32.9252 29.4987C33.03 29.8321 33.5889 29.7963 34.3341 29.5225C34.3341 29.5225 35.1026 29.2487 35.3936 28.9868C35.6847 28.7129 36.4998 27.9748 36.4998 27.9748C36.4998 27.9748 35.5334 28.9987 35.2888 29.4392C35.056 29.8797 35.0094 29.9868 35.1258 30.2368C35.2888 30.594 36.5231 30.2249 36.8724 29.844C37.1285 29.5463 37.373 29.2368 37.5943 28.9034C37.5943 28.9034 37.2217 29.5225 37.1402 29.8797C37.0587 30.2368 36.9655 30.5226 37.3032 30.5583C37.6758 30.6178 38.0251 30.6297 38.421 30.1892ZM40.7264 38.2969C40.7613 38.2731 40.7962 38.2493 40.8312 38.2254C40.901 38.1778 40.9592 38.1421 41.0058 38.0945C41.099 38.035 41.1921 37.9635 41.2853 37.904C41.2969 37.2254 41.3202 36.5349 41.3318 35.8562C41.1455 35.7729 40.9476 35.6896 40.738 35.6062C40.7264 35.6062 40.7147 35.5943 40.7031 35.5943C40.6798 35.5824 40.6682 35.5824 40.6449 35.5705C40.5051 35.5229 40.3771 35.4634 40.2257 35.4157C40.0511 35.3443 39.8764 35.2848 39.7017 35.2133C38.5374 35.8443 38.3045 36.142 38.3045 36.7254C38.3045 37.5468 38.9915 37.9159 40.1791 38.6898C40.3654 38.5469 40.5517 38.4159 40.7264 38.2969ZM39.2942 36.8325C39.2942 36.8325 39.2127 36.3087 40.5284 35.7015C40.5634 35.6896 40.5983 35.6658 40.6332 35.6539C40.6449 36.4753 40.6565 37.2968 40.6798 38.1183C40.0278 37.6659 39.2942 37.2373 39.2942 36.8325ZM41.2853 46.9403C41.227 47.0117 41.1688 47.0831 41.1106 47.1427C41.4483 47.607 41.425 48.0594 41.2387 48.6428C41.4133 48.4404 41.7626 47.9284 41.4716 47.2617C41.4133 47.1546 41.3551 47.0474 41.2853 46.9403ZM40.7497 42.059C40.8777 42.19 41.0291 42.3448 41.1805 42.4995C41.2736 42.5948 41.3668 42.69 41.4716 42.7972C41.4832 42.8091 41.5065 42.821 41.5298 42.8448C42.3215 42.1424 43.0434 41.4757 43.0434 40.6423C43.0434 39.9875 42.4263 39.3922 41.8092 38.916C41.751 38.9517 41.6928 38.9874 41.6346 39.035C41.4948 39.1303 41.3668 39.2136 41.2503 39.2969C41.2503 39.2969 41.2387 39.2969 41.2387 39.3088C41.2154 39.3327 41.1805 39.3446 41.1572 39.3684C40.9942 39.4874 40.8428 39.5946 40.7031 39.7017C40.7264 40.4994 40.738 41.2971 40.7497 42.059ZM41.2503 39.4279C42.0188 39.9994 42.3215 40.3684 42.3215 40.7732C42.3215 41.178 41.8907 41.678 41.1921 42.3924C41.2038 41.4399 41.227 40.4518 41.2503 39.4279ZM45.5002 27.9867C45.5002 27.9867 46.3153 28.7248 46.6064 28.9987C46.8974 29.2725 47.6659 29.5344 47.6659 29.5344C48.4111 29.8082 48.97 29.844 49.0748 29.5106C49.1563 29.2487 48.9933 29.0225 48.7022 28.7844C48.3412 28.4748 46.4783 27.1057 46.4783 27.1057C46.4783 27.1057 48.3645 28.3439 48.97 28.6534C49.5755 28.963 50.6583 29.0225 51.0658 29.0106C51.4734 28.9987 52.0905 28.8439 51.5083 28.3677C50.9261 27.8915 46.8742 25.8318 46.8742 25.8318C46.8742 25.8318 50.6467 27.6295 51.0076 27.7248C51.3569 27.8319 51.5781 27.9153 52.6028 27.951C53.6274 27.9748 53.9884 28.0105 54.0349 27.7129C54.0815 27.4271 53.674 27.32 53.1849 26.9866C52.6959 26.6652 46.8742 23.7007 46.8742 23.7007L53.6274 26.8438C53.6274 26.8438 54.3959 26.9152 55.3157 26.8914C56.2356 26.8676 56.678 26.7009 56.4335 26.6533C56.189 26.6057 54.8383 26.2604 52.6843 25.3794C50.5302 24.4984 48.7837 23.4983 47.468 22.7126C46.1523 21.9387 44.6502 21.7601 43.7188 22.4268C42.7873 23.0935 43.09 24.6651 42.8106 25.2961C42.5777 25.808 42.0421 25.7842 41.6695 25.7604C41.6695 25.8556 41.6695 25.9628 41.6579 26.0699H42.0887C42.2983 26.0699 42.6476 26.0699 42.8688 25.7366C43.1133 25.3556 43.1249 24.9508 43.1366 24.6293C43.1482 24.1412 43.2763 23.2364 43.9051 22.7126C44.5687 22.1649 45.8612 22.2482 46.5365 22.5221C46.8742 22.653 47.5495 23.034 48.1899 23.4031C48.7488 23.7245 49.2611 23.9865 49.6453 24.165C49.4008 24.165 48.6673 23.796 48.0851 23.4983C47.4563 23.165 46.8043 22.8316 46.4666 22.7007C45.4769 22.2959 44.4057 22.5459 44.0098 22.8673C43.4277 23.3436 43.3229 24.1888 43.3112 24.6532C43.2996 24.9746 43.288 25.427 43.0085 25.8437C42.764 26.2366 42.3798 26.2604 42.1352 26.2604H41.6579C41.6346 27.1176 41.6113 28.2367 41.588 29.5106C42.3798 30.5464 42.8339 30.6773 43.2064 30.594C43.5558 30.5226 43.2064 29.713 43.1017 29.4987C43.2414 29.7487 43.4044 29.9749 43.5907 30.1892C43.9749 30.6297 44.3359 30.6178 44.6852 30.5702C45.0345 30.5226 44.9297 30.2488 44.8482 29.8916C44.7667 29.5344 44.3941 28.9153 44.3941 28.9153C44.6153 29.2368 44.8598 29.5582 45.116 29.8559C45.4653 30.2368 46.6995 30.6178 46.8625 30.2488C46.9673 30.0106 46.9324 29.8916 46.6995 29.4511C46.4783 29.0106 45.5002 27.9867 45.5002 27.9867ZM41.0175 24.3436C41.2038 24.3436 41.3901 24.2841 41.5414 24.1769C41.6928 24.0698 41.8209 23.915 41.8907 23.7483C41.9606 23.5698 41.9839 23.3793 41.9489 23.1888C41.914 22.9983 41.8209 22.8316 41.6928 22.6887C41.5647 22.5578 41.3901 22.4625 41.2038 22.4268C41.0175 22.3911 40.8312 22.403 40.6565 22.4864C40.4819 22.5578 40.3305 22.6887 40.2373 22.8435C40.1326 22.9983 40.0743 23.1888 40.0743 23.3793C40.0743 23.5102 40.0976 23.6293 40.1442 23.7483C40.1908 23.8674 40.2606 23.9745 40.3538 24.0579C40.4469 24.1531 40.5401 24.2246 40.6565 24.2722C40.7613 24.3198 40.8894 24.3436 41.0175 24.3436ZM44.1146 31.5822C44.1146 31.5822 44.0914 30.9155 43.0318 30.844C41.9489 30.7726 41.9024 31.2488 41.9257 31.4274C42.0072 31.4274 42.077 31.4512 42.077 31.475C42.077 31.4988 42.0188 31.5226 41.9489 31.5226C42.0072 31.7012 42.1702 31.9155 42.6359 32.1536C43.0201 32.3441 43.2064 32.3322 43.4277 32.2965C43.4277 32.2965 43.6838 32.4513 43.6838 32.7013C43.6838 32.9513 43.2763 33.4037 41.3668 34.38C41.4832 29.1177 41.588 24.4984 41.588 24.4984H41.7044C41.751 24.4984 41.7976 24.4746 41.8325 24.4389C41.8674 24.4031 41.8907 24.3555 41.8907 24.3079V24.2484C41.8907 24.2246 41.8907 24.2007 41.8791 24.1769C41.8674 24.1531 41.8558 24.1293 41.8325 24.1174C41.7277 24.2365 41.6113 24.3317 41.4716 24.4031C41.3318 24.4746 41.1805 24.4984 41.0291 24.4984C40.8777 24.4984 40.7264 24.4627 40.5867 24.4031C40.4469 24.3436 40.3189 24.2365 40.2257 24.1174C40.2024 24.1412 40.1908 24.1531 40.1791 24.1769C40.1675 24.2007 40.1675 24.2246 40.1675 24.2484V24.3079C40.1675 24.3555 40.1908 24.4031 40.2257 24.4389C40.2606 24.4746 40.3072 24.4984 40.3538 24.4984H40.4702C40.4702 24.4984 40.5517 28.9868 40.6332 34.1538C40.7962 34.2371 40.9592 34.3204 41.1455 34.4157C41.1688 34.4276 41.2038 34.4395 41.227 34.4514C41.6579 34.6657 42.0188 34.8443 42.3215 35.011C43.3462 34.6062 44.3475 34.1419 44.6502 33.4871C45.1858 32.2727 44.1146 31.5822 44.1146 31.5822ZM42.6941 31.3083C42.5777 31.3083 42.4845 31.2488 42.4845 31.1774C42.4845 31.1059 42.5777 31.0464 42.6941 31.0464C42.8106 31.0464 42.9037 31.1059 42.9037 31.1774C42.9037 31.2488 42.8106 31.3083 42.6941 31.3083ZM40.8428 46.3807C40.936 46.2617 41.0175 46.1426 41.1106 46.0355C41.1223 45.3568 41.1455 44.5949 41.1572 43.7734C41.0408 43.6544 40.9127 43.5353 40.7729 43.4043C40.7264 43.3686 40.6914 43.321 40.6449 43.2853C40.5867 43.2258 40.5284 43.1781 40.4702 43.1305C40.1442 43.4401 39.5038 44.1306 39.5038 44.7259C39.5038 45.4283 40.1675 46.1426 40.6682 46.6546C40.7147 46.5474 40.773 46.4641 40.8428 46.3807ZM40.7729 43.5472C40.7962 44.5592 40.8079 45.4878 40.8195 46.2855C40.4353 45.7616 40.0278 45.2259 40.0278 44.8568C40.0278 44.5116 40.2257 44.1187 40.7729 43.5472ZM41.0408 34.5705C38.7703 33.4513 38.3045 32.9394 38.3045 32.6894C38.3045 32.4394 38.5607 32.2846 38.5607 32.2846C38.7819 32.3322 38.9682 32.3322 39.3524 32.1417C39.8182 31.9155 39.9812 31.6893 40.0394 31.5107C39.9695 31.5107 39.9113 31.4869 39.9113 31.4631C39.9113 31.4393 39.9812 31.4155 40.0627 31.4155V31.4036C40.0743 31.225 40.0161 30.7607 38.9449 30.8321C37.8854 30.9036 37.8621 31.5703 37.8621 31.5703C37.8621 31.5703 36.7909 32.2727 37.3498 33.4632C37.8388 34.5228 40.1326 35.0824 41.4599 35.6896C42.7756 36.2968 42.6941 36.8206 42.6941 36.8206C42.6941 37.273 41.8092 37.7492 41.1106 38.2493C40.412 38.7493 38.9333 39.6184 38.9333 40.6423C38.9333 41.5828 39.8531 42.309 40.7497 43.1186C41.6579 43.9282 41.9489 44.4163 41.9489 44.8687C41.9489 45.4878 40.9476 46.3212 40.4353 47.357C39.923 48.3928 40.936 50 40.6216 49.1547C40.2956 48.3094 40.4702 47.7141 40.8894 47.1189C41.4017 46.3926 42.4962 45.6783 42.4962 44.714C42.4962 43.9044 41.3435 42.9519 41.3435 42.9519C40.3189 41.9043 39.6668 41.309 39.6668 40.7851C39.6668 40.2613 40.1558 39.797 41.5298 38.8802C42.8921 37.9754 43.6955 37.6183 43.6955 36.7373C43.6955 35.9634 43.3112 35.6896 41.0408 34.5705ZM39.2942 31.0583C39.4107 31.0583 39.5038 31.1179 39.5038 31.1893C39.5038 31.2607 39.4107 31.3202 39.2942 31.3202C39.1778 31.3202 39.0846 31.2607 39.0846 31.1893C39.0846 31.1179 39.1778 31.0583 39.2942 31.0583Z" fill="white"/>
<path d="M20.8426 64V54.116H23.0406V64H20.8426ZM26.9606 64V54.116H29.1726V64H26.9606ZM22.1586 59.87V57.966H27.6886V59.87H22.1586ZM31.0692 64V54.116H33.2672V64H31.0692ZM36.8508 60.402V58.694H38.9788C39.2494 58.694 39.4968 58.638 39.7208 58.526C39.9448 58.414 40.1221 58.2507 40.2528 58.036C40.3834 57.8213 40.4488 57.56 40.4488 57.252C40.4488 56.9533 40.3834 56.6967 40.2528 56.482C40.1221 56.2673 39.9448 56.104 39.7208 55.992C39.4968 55.88 39.2494 55.824 38.9788 55.824H36.8508V54.116H39.3008C39.9261 54.116 40.4908 54.242 40.9948 54.494C41.4988 54.746 41.8954 55.11 42.1848 55.586C42.4834 56.0527 42.6328 56.608 42.6328 57.252C42.6328 57.896 42.4834 58.456 42.1848 58.932C41.8954 59.3987 41.4988 59.7627 40.9948 60.024C40.4908 60.276 39.9261 60.402 39.3008 60.402H36.8508ZM35.1708 64V54.116H37.3688V64H35.1708ZM42.4541 64L46.3741 54.116H48.3621L52.2401 64H49.9161L46.9481 55.796H47.7461L44.7361 64H42.4541ZM44.6801 62.208V60.416H50.0701V62.208H44.6801ZM52.1202 64L56.0402 54.116H58.0282L61.9062 64H59.5822L56.6142 55.796H57.4122L54.4022 64H52.1202ZM54.3462 62.208V60.416H59.7362V62.208H54.3462Z" fill="white"/>
</svg>
