<svg width="101" height="110" viewBox="0 0 101 110" fill="none" xmlns="http://www.w3.org/2000/svg">
<g filter="url(#filter0_dddd_17277_11335)">
<path d="M43.32 5.53994C47.2867 2.31308 52.9735 2.31307 56.9403 5.53994C59.3259 7.48058 62.4261 8.31128 65.4624 7.82343C70.5111 7.01225 75.4361 9.85567 77.2579 14.6336C78.3536 17.507 80.6231 19.7765 83.4965 20.8722C88.2745 22.6941 91.1179 27.619 90.3067 32.6677C89.8188 35.704 90.6496 38.8043 92.5902 41.1898C95.8171 45.1566 95.8171 50.8434 92.5902 54.8102C90.6496 57.1957 89.8188 60.296 90.3067 63.3323C91.1179 68.381 88.2745 73.3059 83.4965 75.1278C80.6231 76.2235 78.3536 78.493 77.2579 81.3664C75.4361 86.1443 70.5111 88.9877 65.4624 88.1766C62.4261 87.6887 59.3259 88.5194 56.9403 90.4601C52.9735 93.6869 47.2867 93.6869 43.32 90.4601C40.9344 88.5194 37.8342 87.6887 34.7979 88.1766C29.7491 88.9877 24.8242 86.1443 23.0023 81.3664C21.9067 78.493 19.6371 76.2235 16.7637 75.1278C11.9858 73.3059 9.14238 68.381 9.95356 63.3323C10.4414 60.296 9.6107 57.1957 7.67007 54.8102C4.4432 50.8434 4.4432 45.1566 7.67007 41.1898C9.6107 38.8043 10.4414 35.704 9.95356 32.6677C9.14238 27.619 11.9858 22.6941 16.7637 20.8722C19.6371 19.7765 21.9067 17.507 23.0023 14.6336C24.8242 9.85567 29.7491 7.01225 34.7979 7.82343C37.8342 8.31128 40.9344 7.48058 43.32 5.53994Z" fill="#388426"/>
<path d="M43.32 5.53994C47.2867 2.31308 52.9735 2.31307 56.9403 5.53994C59.3259 7.48058 62.4261 8.31128 65.4624 7.82343C70.5111 7.01225 75.4361 9.85567 77.2579 14.6336C78.3536 17.507 80.6231 19.7765 83.4965 20.8722C88.2745 22.6941 91.1179 27.619 90.3067 32.6677C89.8188 35.704 90.6496 38.8043 92.5902 41.1898C95.8171 45.1566 95.8171 50.8434 92.5902 54.8102C90.6496 57.1957 89.8188 60.296 90.3067 63.3323C91.1179 68.381 88.2745 73.3059 83.4965 75.1278C80.6231 76.2235 78.3536 78.493 77.2579 81.3664C75.4361 86.1443 70.5111 88.9877 65.4624 88.1766C62.4261 87.6887 59.3259 88.5194 56.9403 90.4601C52.9735 93.6869 47.2867 93.6869 43.32 90.4601C40.9344 88.5194 37.8342 87.6887 34.7979 88.1766C29.7491 88.9877 24.8242 86.1443 23.0023 81.3664C21.9067 78.493 19.6371 76.2235 16.7637 75.1278C11.9858 73.3059 9.14238 68.381 9.95356 63.3323C10.4414 60.296 9.6107 57.1957 7.67007 54.8102C4.4432 50.8434 4.4432 45.1566 7.67007 41.1898C9.6107 38.8043 10.4414 35.704 9.95356 32.6677C9.14238 27.619 11.9858 22.6941 16.7637 20.8722C19.6371 19.7765 21.9067 17.507 23.0023 14.6336C24.8242 9.85567 29.7491 7.01225 34.7979 7.82343C37.8342 8.31128 40.9344 7.48058 43.32 5.53994Z" stroke="white" stroke-width="2.5"/>
</g>
<path d="M44.1712 10.8474C47.6421 8.02394 52.6181 8.02394 56.089 10.8474C58.1764 12.5455 60.8891 13.2724 63.5459 12.8455C67.9635 12.1357 72.2728 14.6237 73.867 18.8044C74.8257 21.3186 76.8115 23.3045 79.3257 24.2632C83.5064 25.8573 85.9944 30.1666 85.2846 34.5843C84.8578 37.241 85.5846 39.9537 87.2827 42.0411C90.1062 45.512 90.1062 50.488 87.2827 53.9589C85.5846 56.0463 84.8578 58.759 85.2846 61.4157C85.9944 65.8334 83.5064 70.1427 79.3257 71.7368C76.8115 72.6955 74.8257 74.6814 73.867 77.1956C72.2728 81.3763 67.9635 83.8643 63.5459 83.1545C60.8891 82.7276 58.1764 83.4545 56.089 85.1525C52.6181 87.9761 47.6421 87.9761 44.1712 85.1525C42.0838 83.4545 39.3712 82.7276 36.7144 83.1545C32.2968 83.8643 27.9874 81.3763 26.3933 77.1956C25.4346 74.6814 23.4488 72.6955 20.9345 71.7368C16.7538 70.1427 14.2658 65.8334 14.9756 61.4157C15.4025 58.759 14.6756 56.0463 12.9776 53.9589C10.1541 50.488 10.1541 45.512 12.9776 42.0411C14.6756 39.9537 15.4025 37.241 14.9756 34.5843C14.2658 30.1666 16.7538 25.8573 20.9345 24.2632C23.4488 23.3045 25.4346 21.3186 26.3933 18.8044C27.9874 14.6237 32.2968 12.1357 36.7144 12.8455C39.3712 13.2724 42.0838 12.5455 44.1712 10.8474Z" fill="white"/>
<path d="M43.6975 10.2656C47.4441 7.21786 52.8162 7.21786 56.5627 10.2656C58.4843 11.8287 60.9814 12.4984 63.427 12.1055C68.1955 11.3393 72.8469 14.0245 74.5676 18.5371C75.4502 20.8517 77.2785 22.6799 79.593 23.5625C84.1057 25.2833 86.7908 29.9347 86.0247 34.7031C85.6317 37.1488 86.3015 39.6458 87.8645 41.5674C90.9123 45.314 90.9123 50.686 87.8645 54.4326C86.3015 56.3542 85.6317 58.8512 86.0247 61.2969C86.7908 66.0653 84.1057 70.7167 79.593 72.4375C77.2785 73.3201 75.4502 75.1483 74.5676 77.4629C72.8469 81.9755 68.1955 84.6607 63.427 83.8945C60.9814 83.5016 58.4843 84.1713 56.5627 85.7344C52.8162 88.7821 47.4441 88.7821 43.6975 85.7344C41.7759 84.1713 39.2789 83.5016 36.8333 83.8945C32.0648 84.6607 27.4134 81.9755 25.6926 77.4629C24.8101 75.1483 22.9818 73.3201 20.6672 72.4375C16.1546 70.7167 13.4695 66.0653 14.2356 61.2969C14.6285 58.8512 13.9588 56.3542 12.3958 54.4326C9.34799 50.686 9.34799 45.314 12.3958 41.5674C13.9588 39.6458 14.6285 37.1488 14.2356 34.7031C13.4695 29.9347 16.1546 25.2833 20.6672 23.5625C22.9818 22.6799 24.8101 20.8517 25.6926 18.5371C27.4134 14.0245 32.0648 11.3393 36.8333 12.1055C39.2789 12.4984 41.7759 11.8287 43.6975 10.2656Z" stroke="white" stroke-opacity="0.4" stroke-width="1.5"/>
<path d="M68.8801 27.375H31.3801C30.3856 27.375 29.4317 27.7701 28.7285 28.4733C28.0252 29.1766 27.6301 30.1304 27.6301 31.125V44.25C27.6301 56.6063 33.6114 64.0945 38.6293 68.2008C44.034 72.6211 49.4106 74.1234 49.645 74.1844C49.9672 74.272 50.3071 74.272 50.6293 74.1844C50.8637 74.1234 56.2333 72.6211 61.645 68.2008C66.6489 64.0945 72.6301 56.6063 72.6301 44.25V31.125C72.6301 30.1304 72.235 29.1766 71.5318 28.4733C70.8285 27.7701 69.8747 27.375 68.8801 27.375ZM50.1301 70.4109C46.8142 69.253 43.7269 67.523 41.0083 65.2992C35.559 60.8414 32.4043 55.0312 31.5911 48H50.1301V31.125H68.8801V44.25C68.8808 45.503 68.8104 46.755 68.6692 48H50.1301V70.4109Z" fill="#388426" fill-opacity="0.15"/>
<path d="M28.8228 46V31.174H31.1328L32.1198 34.135V46H28.8228ZM39.0498 46L30.3138 34.807L31.1328 31.174L39.8688 42.367L39.0498 46ZM39.0498 46L38.1678 43.039V31.174H41.4648V46H39.0498ZM44.3267 46V31.174H47.6237V46H44.3267ZM54.6439 46.231C53.4259 46.231 52.3759 46.035 51.4939 45.643C50.6259 45.237 49.8279 44.628 49.0999 43.816L51.2419 41.695C51.7179 42.241 52.2429 42.668 52.8169 42.976C53.4049 43.27 54.0839 43.417 54.8539 43.417C55.5539 43.417 56.0929 43.291 56.4709 43.039C56.8629 42.787 57.0589 42.437 57.0589 41.989C57.0589 41.583 56.9329 41.254 56.6809 41.002C56.4289 40.75 56.0929 40.533 55.6729 40.351C55.2669 40.169 54.8119 39.994 54.3079 39.826C53.8179 39.658 53.3279 39.469 52.8379 39.259C52.3479 39.035 51.8929 38.762 51.4729 38.44C51.0669 38.104 50.7379 37.691 50.4859 37.201C50.2339 36.697 50.1079 36.067 50.1079 35.311C50.1079 34.401 50.3249 33.617 50.7589 32.959C51.2069 32.301 51.8229 31.804 52.6069 31.468C53.3909 31.118 54.2939 30.943 55.3159 30.943C56.3519 30.943 57.2969 31.125 58.1509 31.489C59.0189 31.853 59.7329 32.35 60.2929 32.98L58.1509 35.101C57.7029 34.639 57.2479 34.296 56.7859 34.072C56.3379 33.848 55.8269 33.736 55.2529 33.736C54.6789 33.736 54.2239 33.848 53.8879 34.072C53.5519 34.282 53.3839 34.59 53.3839 34.996C53.3839 35.374 53.5099 35.682 53.7619 35.92C54.0139 36.144 54.3429 36.34 54.7489 36.508C55.1689 36.676 55.6239 36.844 56.1139 37.012C56.6179 37.18 57.1149 37.376 57.6049 37.6C58.0949 37.824 58.5429 38.111 58.9489 38.461C59.3689 38.797 59.7049 39.231 59.9569 39.763C60.2089 40.281 60.3349 40.925 60.3349 41.695C60.3349 43.109 59.8309 44.222 58.8229 45.034C57.8149 45.832 56.4219 46.231 54.6439 46.231ZM65.5144 46V31.384H68.8114V46H65.5144ZM60.8734 34.051V31.174H73.4524V34.051H60.8734ZM19.6505 65L24.9705 51.586H27.6685L32.9315 65H29.7775L25.7495 53.866H26.8325L22.7475 65H19.6505ZM22.6715 62.568V60.136H29.9865V62.568H22.6715ZM34.3508 65V51.586H37.3338V65H34.3508ZM45.8154 59.471V57.267H48.6464C49.2417 57.267 49.6977 57.115 50.0144 56.811C50.3437 56.507 50.5084 56.0953 50.5084 55.576C50.5084 55.0947 50.3501 54.6957 50.0334 54.379C49.7167 54.0623 49.2607 53.904 48.6654 53.904H45.8154V51.586H49.0074C49.8941 51.586 50.6731 51.757 51.3444 52.099C52.0157 52.4283 52.5414 52.8907 52.9214 53.486C53.3014 54.0813 53.4914 54.7653 53.4914 55.538C53.4914 56.3233 53.3014 57.0137 52.9214 57.609C52.5414 58.1917 52.0094 58.6477 51.3254 58.977C50.6414 59.3063 49.8371 59.471 48.9124 59.471H45.8154ZM43.5354 65V51.586H46.5184V65H43.5354ZM50.8314 65L46.6514 59.224L49.3874 58.483L54.3654 65H50.8314ZM55.6702 65V51.586H57.7982L63.0802 59.813H61.9972L67.2602 51.586H69.4072V65H66.4242V56.621L66.9562 56.754L63.5172 62.112H61.5412L58.1212 56.754L58.6342 56.621V65H55.6702ZM71.9797 65V51.586H74.9627V65H71.9797ZM74.2597 59.737V57.172H80.9667V59.737H74.2597ZM74.2597 54.151V51.586H81.2707V54.151H74.2597Z" fill="#09151D"/>
<defs>
<filter id="filter0_dddd_17277_11335" x="0" y="0.869873" width="100.26" height="108.26" filterUnits="userSpaceOnUse" color-interpolation-filters="sRGB">
<feFlood flood-opacity="0" result="BackgroundImageFix"/>
<feColorMatrix in="SourceAlpha" type="matrix" values="0 0 0 0 0 0 0 0 0 0 0 0 0 0 0 0 0 0 127 0" result="hardAlpha"/>
<feOffset dy="1"/>
<feGaussianBlur stdDeviation="1"/>
<feColorMatrix type="matrix" values="0 0 0 0 0.219608 0 0 0 0 0.517647 0 0 0 0 0.14902 0 0 0 0.08 0"/>
<feBlend mode="normal" in2="BackgroundImageFix" result="effect1_dropShadow_17277_11335"/>
<feColorMatrix in="SourceAlpha" type="matrix" values="0 0 0 0 0 0 0 0 0 0 0 0 0 0 0 0 0 0 127 0" result="hardAlpha"/>
<feOffset dy="3"/>
<feGaussianBlur stdDeviation="1.5"/>
<feColorMatrix type="matrix" values="0 0 0 0 0.219608 0 0 0 0 0.517647 0 0 0 0 0.14902 0 0 0 0.07 0"/>
<feBlend mode="normal" in2="effect1_dropShadow_17277_11335" result="effect2_dropShadow_17277_11335"/>
<feColorMatrix in="SourceAlpha" type="matrix" values="0 0 0 0 0 0 0 0 0 0 0 0 0 0 0 0 0 0 127 0" result="hardAlpha"/>
<feOffset dy="6"/>
<feGaussianBlur stdDeviation="2"/>
<feColorMatrix type="matrix" values="0 0 0 0 0.219608 0 0 0 0 0.517647 0 0 0 0 0.14902 0 0 0 0.04 0"/>
<feBlend mode="normal" in2="effect2_dropShadow_17277_11335" result="effect3_dropShadow_17277_11335"/>
<feColorMatrix in="SourceAlpha" type="matrix" values="0 0 0 0 0 0 0 0 0 0 0 0 0 0 0 0 0 0 127 0" result="hardAlpha"/>
<feOffset dy="11"/>
<feGaussianBlur stdDeviation="2"/>
<feColorMatrix type="matrix" values="0 0 0 0 0.219608 0 0 0 0 0.517647 0 0 0 0 0.14902 0 0 0 0.01 0"/>
<feBlend mode="normal" in2="effect3_dropShadow_17277_11335" result="effect4_dropShadow_17277_11335"/>
<feBlend mode="normal" in="SourceGraphic" in2="effect4_dropShadow_17277_11335" result="shape"/>
</filter>
</defs>
</svg>
