<svg width="101" height="110" viewBox="0 0 101 110" fill="none" xmlns="http://www.w3.org/2000/svg">
<g filter="url(#filter0_dddd_17277_11264)">
<path d="M43.3201 5.53994C47.2868 2.31308 52.9737 2.31307 56.9404 5.53994C59.326 7.48058 62.4262 8.31128 65.4625 7.82343C70.5112 7.01225 75.4362 9.85567 77.258 14.6336C78.3537 17.507 80.6232 19.7765 83.4967 20.8722C88.2746 22.6941 91.118 27.619 90.3068 32.6677C89.819 35.704 90.6497 38.8043 92.5903 41.1898C95.8172 45.1566 95.8172 50.8434 92.5903 54.8102C90.6497 57.1957 89.819 60.296 90.3068 63.3323C91.118 68.381 88.2746 73.3059 83.4967 75.1278C80.6232 76.2235 78.3537 78.493 77.258 81.3664C75.4362 86.1443 70.5112 88.9877 65.4625 88.1766C62.4262 87.6887 59.326 88.5194 56.9404 90.4601C52.9737 93.6869 47.2868 93.6869 43.3201 90.4601C40.9345 88.5194 37.8343 87.6887 34.798 88.1766C29.7493 88.9877 24.8243 86.1443 23.0025 81.3664C21.9068 78.493 19.6373 76.2235 16.7638 75.1278C11.9859 73.3059 9.1425 68.381 9.95368 63.3323C10.4415 60.296 9.61083 57.1957 7.67019 54.8102C4.44332 50.8434 4.44332 45.1566 7.67019 41.1898C9.61083 38.8043 10.4415 35.704 9.95368 32.6677C9.1425 27.619 11.9859 22.6941 16.7638 20.8722C19.6373 19.7765 21.9068 17.507 23.0025 14.6336C24.8243 9.85567 29.7493 7.01225 34.798 7.82343C37.8343 8.31128 40.9345 7.48058 43.3201 5.53994Z" fill="#46228A"/>
<path d="M43.3201 5.53994C47.2868 2.31308 52.9737 2.31307 56.9404 5.53994C59.326 7.48058 62.4262 8.31128 65.4625 7.82343C70.5112 7.01225 75.4362 9.85567 77.258 14.6336C78.3537 17.507 80.6232 19.7765 83.4967 20.8722C88.2746 22.6941 91.118 27.619 90.3068 32.6677C89.819 35.704 90.6497 38.8043 92.5903 41.1898C95.8172 45.1566 95.8172 50.8434 92.5903 54.8102C90.6497 57.1957 89.819 60.296 90.3068 63.3323C91.118 68.381 88.2746 73.3059 83.4967 75.1278C80.6232 76.2235 78.3537 78.493 77.258 81.3664C75.4362 86.1443 70.5112 88.9877 65.4625 88.1766C62.4262 87.6887 59.326 88.5194 56.9404 90.4601C52.9737 93.6869 47.2868 93.6869 43.3201 90.4601C40.9345 88.5194 37.8343 87.6887 34.798 88.1766C29.7493 88.9877 24.8243 86.1443 23.0025 81.3664C21.9068 78.493 19.6373 76.2235 16.7638 75.1278C11.9859 73.3059 9.1425 68.381 9.95368 63.3323C10.4415 60.296 9.61083 57.1957 7.67019 54.8102C4.44332 50.8434 4.44332 45.1566 7.67019 41.1898C9.61083 38.8043 10.4415 35.704 9.95368 32.6677C9.1425 27.619 11.9859 22.6941 16.7638 20.8722C19.6373 19.7765 21.9068 17.507 23.0025 14.6336C24.8243 9.85567 29.7493 7.01225 34.798 7.82343C37.8343 8.31128 40.9345 7.48058 43.3201 5.53994Z" stroke="white" stroke-width="2.5"/>
</g>
<path d="M44.1714 10.8474C47.6423 8.02394 52.6182 8.02394 56.0891 10.8474C58.1765 12.5455 60.8892 13.2724 63.546 12.8455C67.9636 12.1357 72.2729 14.6237 73.8671 18.8044C74.8258 21.3186 76.8116 23.3045 79.3259 24.2632C83.5065 25.8573 85.9945 30.1666 85.2847 34.5843C84.8579 37.241 85.5847 39.9537 87.2828 42.0411C90.1063 45.512 90.1063 50.488 87.2828 53.9589C85.5847 56.0463 84.8579 58.759 85.2847 61.4157C85.9945 65.8334 83.5065 70.1427 79.3259 71.7368C76.8116 72.6955 74.8258 74.6814 73.8671 77.1956C72.2729 81.3763 67.9636 83.8643 63.546 83.1545C60.8892 82.7276 58.1765 83.4545 56.0891 85.1525C52.6182 87.9761 47.6423 87.9761 44.1714 85.1525C42.084 83.4545 39.3713 82.7276 36.7145 83.1545C32.2969 83.8643 27.9876 81.3763 26.3934 77.1956C25.4347 74.6814 23.4489 72.6955 20.9346 71.7368C16.754 70.1427 14.266 65.8334 14.9758 61.4157C15.4026 58.759 14.6758 56.0463 12.9777 53.9589C10.1542 50.488 10.1542 45.512 12.9777 42.0411C14.6758 39.9537 15.4026 37.241 14.9758 34.5843C14.266 30.1666 16.754 25.8573 20.9346 24.2632C23.4489 23.3045 25.4347 21.3186 26.3934 18.8044C27.9876 14.6237 32.2969 12.1357 36.7145 12.8455C39.3713 13.2724 42.084 12.5455 44.1714 10.8474Z" fill="white"/>
<path d="M43.6976 10.2656C47.4442 7.21786 52.8163 7.21786 56.5629 10.2656C58.4844 11.8287 60.9815 12.4984 63.4271 12.1055C68.1956 11.3393 72.847 14.0245 74.5677 18.5371C75.4503 20.8517 77.2786 22.6799 79.5931 23.5625C84.1058 25.2833 86.7909 29.9347 86.0248 34.7031C85.6318 37.1488 86.3016 39.6458 87.8646 41.5674C90.9124 45.314 90.9124 50.686 87.8646 54.4326C86.3016 56.3542 85.6318 58.8512 86.0248 61.2969C86.7909 66.0653 84.1058 70.7167 79.5931 72.4375C77.2786 73.3201 75.4503 75.1483 74.5677 77.4629C72.847 81.9755 68.1956 84.6607 63.4271 83.8945C60.9815 83.5016 58.4844 84.1713 56.5629 85.7344C52.8163 88.7821 47.4442 88.7821 43.6976 85.7344C41.7761 84.1713 39.279 83.5016 36.8334 83.8945C32.0649 84.6607 27.4135 81.9755 25.6927 77.4629C24.8102 75.1483 22.9819 73.3201 20.6674 72.4375C16.1547 70.7167 13.4696 66.0653 14.2357 61.2969C14.6287 58.8512 13.9589 56.3542 12.3959 54.4326C9.34811 50.686 9.34811 45.314 12.3959 41.5674C13.9589 39.6458 14.6287 37.1488 14.2357 34.7031C13.4696 29.9347 16.1547 25.2833 20.6674 23.5625C22.9819 22.6799 24.8102 20.8517 25.6927 18.5371C27.4135 14.0245 32.0649 11.3393 36.8334 12.1055C39.279 12.4984 41.7761 11.8287 43.6976 10.2656Z" stroke="white" stroke-opacity="0.2" stroke-width="1.5"/>
<g opacity="0.15">
<path d="M45.3302 54.3838V58.2862C45.3212 59.1085 45.101 59.9147 44.6908 60.6274C44.2807 61.3402 43.6943 61.9356 42.9878 62.3566C41.4882 63.4673 40.2683 64.9126 39.425 66.5774C38.5818 68.2422 38.1384 70.0808 38.1302 71.947" stroke="#46228A" stroke-width="3" stroke-linecap="round" stroke-linejoin="round"/>
<path d="M54.9303 54.3838V58.2862C54.9394 59.1085 55.1595 59.9147 55.5697 60.6274C55.9799 61.3402 56.5663 61.9356 57.2727 62.3566C58.7724 63.4673 59.9923 64.9126 60.8355 66.5774C61.6788 68.2422 62.1221 70.0808 62.1303 71.947" stroke="#46228A" stroke-width="3" stroke-linecap="round" stroke-linejoin="round"/>
<path d="M64.5303 40.8H68.1303C69.7216 40.8 71.2477 40.1679 72.3729 39.0427C73.4981 37.9175 74.1303 36.3913 74.1303 34.8C74.1303 33.2088 73.4981 31.6826 72.3729 30.5574C71.2477 29.4322 69.7216 28.8 68.1303 28.8H64.5303" stroke="#46228A" stroke-width="3" stroke-linecap="round" stroke-linejoin="round"/>
<path d="M30.9303 72H69.3303" stroke="#46228A" stroke-width="3" stroke-linecap="round" stroke-linejoin="round"/>
<path d="M35.7302 40.8C35.7302 44.6191 37.2474 48.2818 39.9479 50.9823C42.6484 53.6829 46.3111 55.2 50.1302 55.2C53.9493 55.2 57.612 53.6829 60.3126 50.9823C63.0131 48.2818 64.5302 44.6191 64.5302 40.8V26.4C64.5302 25.7635 64.2774 25.153 63.8273 24.7029C63.3772 24.2529 62.7667 24 62.1302 24H38.1302C37.4937 24 36.8833 24.2529 36.4332 24.7029C35.9831 25.153 35.7302 25.7635 35.7302 26.4V40.8Z" stroke="#46228A" stroke-width="3" stroke-linecap="round" stroke-linejoin="round"/>
<path d="M35.7302 40.8H32.1302C30.539 40.8 29.0128 40.1679 27.8876 39.0427C26.7624 37.9175 26.1302 36.3913 26.1302 34.8C26.1302 33.2088 26.7624 31.6826 27.8876 30.5574C29.0128 29.4322 30.539 28.8 32.1302 28.8H35.7302" stroke="#46228A" stroke-width="3" stroke-linecap="round" stroke-linejoin="round"/>
</g>
<path d="M31.3147 45.264C30.1413 45.264 29.056 45.0587 28.0587 44.648C27.076 44.2373 26.2107 43.6653 25.4627 42.932C24.7147 42.1987 24.1353 41.348 23.7247 40.38C23.314 39.3973 23.1087 38.3413 23.1087 37.212C23.1087 36.068 23.314 35.012 23.7247 34.044C24.1353 33.076 24.7073 32.2327 25.4407 31.514C26.174 30.7807 27.032 30.216 28.0147 29.82C29.012 29.4093 30.0973 29.204 31.2707 29.204C32.4293 29.204 33.5 29.4093 34.4827 29.82C35.48 30.216 36.3453 30.7807 37.0787 31.514C37.8267 32.2327 38.406 33.0833 38.8167 34.066C39.2273 35.034 39.4327 36.09 39.4327 37.234C39.4327 38.3633 39.2273 39.4193 38.8167 40.402C38.406 41.37 37.834 42.2207 37.1007 42.954C36.3673 43.6727 35.502 44.2373 34.5047 44.648C33.522 45.0587 32.4587 45.264 31.3147 45.264ZM31.2707 42.118C32.1947 42.118 33.0013 41.9127 33.6907 41.502C34.3947 41.0913 34.9373 40.5193 35.3187 39.786C35.7 39.038 35.8907 38.18 35.8907 37.212C35.8907 36.4787 35.7807 35.8187 35.5607 35.232C35.3407 34.6307 35.0253 34.1173 34.6147 33.692C34.204 33.252 33.7127 32.922 33.1407 32.702C32.5833 32.4673 31.96 32.35 31.2707 32.35C30.3467 32.35 29.5327 32.5553 28.8287 32.966C28.1393 33.362 27.604 33.9267 27.2227 34.66C26.8413 35.3787 26.6507 36.2293 26.6507 37.212C26.6507 37.9453 26.7607 38.6127 26.9807 39.214C27.2007 39.8153 27.5087 40.336 27.9047 40.776C28.3153 41.2013 28.8067 41.5313 29.3787 41.766C29.9507 42.0007 30.5813 42.118 31.2707 42.118ZM47.4773 45.22C46.7586 45.22 46.0986 45.0807 45.4973 44.802C44.8959 44.5233 44.4046 44.142 44.0233 43.658C43.6419 43.1593 43.4219 42.5947 43.3633 41.964V37.454C43.4219 36.8233 43.6419 36.2513 44.0233 35.738C44.4046 35.2247 44.8959 34.8213 45.4973 34.528C46.0986 34.2347 46.7586 34.088 47.4773 34.088C48.4893 34.088 49.3839 34.33 50.1613 34.814C50.9533 35.298 51.5693 35.958 52.0093 36.794C52.4639 37.63 52.6913 38.5833 52.6913 39.654C52.6913 40.7247 52.4639 41.678 52.0093 42.514C51.5693 43.35 50.9533 44.01 50.1613 44.494C49.3839 44.978 48.4893 45.22 47.4773 45.22ZM41.3173 49.51V34.308H44.6833V37.058L44.1333 39.654L44.6393 42.25V49.51H41.3173ZM46.8613 42.184C47.3453 42.184 47.7633 42.074 48.1153 41.854C48.4819 41.634 48.7679 41.3333 48.9733 40.952C49.1786 40.5707 49.2813 40.138 49.2813 39.654C49.2813 39.1553 49.1786 38.7153 48.9733 38.334C48.7679 37.9527 48.4819 37.6593 48.1153 37.454C47.7633 37.234 47.3526 37.124 46.8833 37.124C46.4139 37.124 45.9959 37.234 45.6293 37.454C45.2773 37.6593 44.9986 37.9527 44.7933 38.334C44.5879 38.7153 44.4853 39.1553 44.4853 39.654C44.4853 40.138 44.5806 40.5707 44.7713 40.952C44.9766 41.3333 45.2626 41.634 45.6293 41.854C45.9959 42.074 46.4066 42.184 46.8613 42.184ZM59.6813 45.242C58.5226 45.242 57.4886 45.0073 56.5793 44.538C55.6846 44.054 54.9806 43.3867 54.4673 42.536C53.9539 41.6853 53.6973 40.7247 53.6973 39.654C53.6973 38.5833 53.9466 37.63 54.4453 36.794C54.9586 35.9433 55.6479 35.276 56.5133 34.792C57.3786 34.308 58.3539 34.066 59.4393 34.066C60.4953 34.066 61.4266 34.2933 62.2333 34.748C63.0399 35.2027 63.6706 35.8333 64.1253 36.64C64.5946 37.4467 64.8293 38.3707 64.8293 39.412C64.8293 39.6027 64.8146 39.808 64.7853 40.028C64.7706 40.2333 64.7339 40.4753 64.6753 40.754L55.4573 40.776V38.466L63.2453 38.444L61.7933 39.412C61.7786 38.796 61.6833 38.29 61.5073 37.894C61.3313 37.4833 61.0673 37.1753 60.7153 36.97C60.3779 36.75 59.9599 36.64 59.4613 36.64C58.9333 36.64 58.4713 36.7647 58.0753 37.014C57.6939 37.2487 57.3933 37.586 57.1733 38.026C56.9679 38.466 56.8653 39.0013 56.8653 39.632C56.8653 40.2627 56.9753 40.8053 57.1953 41.26C57.4299 41.7 57.7526 42.0447 58.1633 42.294C58.5886 42.5287 59.0873 42.646 59.6593 42.646C60.1873 42.646 60.6639 42.558 61.0893 42.382C61.5146 42.1913 61.8886 41.9127 62.2113 41.546L64.0593 43.394C63.5313 44.01 62.8933 44.472 62.1453 44.78C61.3973 45.088 60.5759 45.242 59.6813 45.242ZM73.516 45V38.906C73.516 38.3487 73.34 37.9013 72.988 37.564C72.6507 37.212 72.218 37.036 71.69 37.036C71.3233 37.036 71.0007 37.1167 70.722 37.278C70.4433 37.4247 70.2233 37.6447 70.062 37.938C69.9007 38.2167 69.82 38.5393 69.82 38.906L68.522 38.268C68.522 37.432 68.7053 36.6987 69.072 36.068C69.4387 35.4373 69.9447 34.9533 70.59 34.616C71.25 34.264 71.9907 34.088 72.812 34.088C73.604 34.088 74.3007 34.2787 74.902 34.66C75.518 35.0267 76.002 35.518 76.354 36.134C76.706 36.75 76.882 37.4247 76.882 38.158V45H73.516ZM66.454 45V34.308H69.82V45H66.454ZM37.1692 67.242C35.8932 67.242 34.7932 67.0367 33.8692 66.626C32.9598 66.2007 32.1238 65.5627 31.3612 64.712L33.6052 62.49C34.1038 63.062 34.6538 63.5093 35.2552 63.832C35.8712 64.14 36.5825 64.294 37.3892 64.294C38.1225 64.294 38.6872 64.162 39.0832 63.898C39.4938 63.634 39.6992 63.2673 39.6992 62.798C39.6992 62.3727 39.5672 62.028 39.3032 61.764C39.0392 61.5 38.6872 61.2727 38.2472 61.082C37.8218 60.8913 37.3452 60.708 36.8172 60.532C36.3038 60.356 35.7905 60.158 35.2772 59.938C34.7638 59.7033 34.2872 59.4173 33.8472 59.08C33.4218 58.728 33.0772 58.2953 32.8132 57.782C32.5492 57.254 32.4172 56.594 32.4172 55.802C32.4172 54.8487 32.6445 54.0273 33.0992 53.338C33.5685 52.6487 34.2138 52.128 35.0352 51.776C35.8565 51.4093 36.8025 51.226 37.8732 51.226C38.9585 51.226 39.9485 51.4167 40.8432 51.798C41.7525 52.1793 42.5005 52.7 43.0872 53.36L40.8432 55.582C40.3738 55.098 39.8972 54.7387 39.4132 54.504C38.9438 54.2693 38.4085 54.152 37.8072 54.152C37.2058 54.152 36.7292 54.2693 36.3772 54.504C36.0252 54.724 35.8492 55.0467 35.8492 55.472C35.8492 55.868 35.9812 56.1907 36.2452 56.44C36.5092 56.6747 36.8538 56.88 37.2792 57.056C37.7192 57.232 38.1958 57.408 38.7092 57.584C39.2372 57.76 39.7578 57.9653 40.2712 58.2C40.7845 58.4347 41.2538 58.7353 41.6792 59.102C42.1192 59.454 42.4712 59.9087 42.7352 60.466C42.9992 61.0087 43.1312 61.6833 43.1312 62.49C43.1312 63.9713 42.6032 65.1373 41.5472 65.988C40.4912 66.824 39.0318 67.242 37.1692 67.242ZM49.6086 67.242C48.3326 67.242 47.2326 67.0367 46.3086 66.626C45.3993 66.2007 44.5633 65.5627 43.8006 64.712L46.0446 62.49C46.5433 63.062 47.0933 63.5093 47.6946 63.832C48.3106 64.14 49.0219 64.294 49.8286 64.294C50.5619 64.294 51.1266 64.162 51.5226 63.898C51.9333 63.634 52.1386 63.2673 52.1386 62.798C52.1386 62.3727 52.0066 62.028 51.7426 61.764C51.4786 61.5 51.1266 61.2727 50.6866 61.082C50.2613 60.8913 49.7846 60.708 49.2566 60.532C48.7433 60.356 48.2299 60.158 47.7166 59.938C47.2033 59.7033 46.7266 59.4173 46.2866 59.08C45.8613 58.728 45.5166 58.2953 45.2526 57.782C44.9886 57.254 44.8566 56.594 44.8566 55.802C44.8566 54.8487 45.0839 54.0273 45.5386 53.338C46.0079 52.6487 46.6533 52.128 47.4746 51.776C48.2959 51.4093 49.2419 51.226 50.3126 51.226C51.3979 51.226 52.3879 51.4167 53.2826 51.798C54.1919 52.1793 54.9399 52.7 55.5266 53.36L53.2826 55.582C52.8133 55.098 52.3366 54.7387 51.8526 54.504C51.3833 54.2693 50.8479 54.152 50.2466 54.152C49.6453 54.152 49.1686 54.2693 48.8166 54.504C48.4646 54.724 48.2886 55.0467 48.2886 55.472C48.2886 55.868 48.4206 56.1907 48.6846 56.44C48.9486 56.6747 49.2933 56.88 49.7186 57.056C50.1586 57.232 50.6353 57.408 51.1486 57.584C51.6766 57.76 52.1973 57.9653 52.7106 58.2C53.2239 58.4347 53.6933 58.7353 54.1186 59.102C54.5586 59.454 54.9106 59.9087 55.1746 60.466C55.4386 61.0087 55.5706 61.6833 55.5706 62.49C55.5706 63.9713 55.0426 65.1373 53.9866 65.988C52.9306 66.824 51.4713 67.242 49.6086 67.242ZM57.7708 67V51.468H61.2248V67H57.7708ZM60.4108 60.906V57.936H68.1768V60.906H60.4108ZM60.4108 54.438V51.468H68.5288V54.438H60.4108Z" fill="#09151D"/>
<defs>
<filter id="filter0_dddd_17277_11264" x="0" y="0.869873" width="100.26" height="108.26" filterUnits="userSpaceOnUse" color-interpolation-filters="sRGB">
<feFlood flood-opacity="0" result="BackgroundImageFix"/>
<feColorMatrix in="SourceAlpha" type="matrix" values="0 0 0 0 0 0 0 0 0 0 0 0 0 0 0 0 0 0 127 0" result="hardAlpha"/>
<feOffset dy="1"/>
<feGaussianBlur stdDeviation="1"/>
<feColorMatrix type="matrix" values="0 0 0 0 0.27451 0 0 0 0 0.133333 0 0 0 0 0.541176 0 0 0 0.08 0"/>
<feBlend mode="normal" in2="BackgroundImageFix" result="effect1_dropShadow_17277_11264"/>
<feColorMatrix in="SourceAlpha" type="matrix" values="0 0 0 0 0 0 0 0 0 0 0 0 0 0 0 0 0 0 127 0" result="hardAlpha"/>
<feOffset dy="3"/>
<feGaussianBlur stdDeviation="1.5"/>
<feColorMatrix type="matrix" values="0 0 0 0 0.27451 0 0 0 0 0.133333 0 0 0 0 0.541176 0 0 0 0.07 0"/>
<feBlend mode="normal" in2="effect1_dropShadow_17277_11264" result="effect2_dropShadow_17277_11264"/>
<feColorMatrix in="SourceAlpha" type="matrix" values="0 0 0 0 0 0 0 0 0 0 0 0 0 0 0 0 0 0 127 0" result="hardAlpha"/>
<feOffset dy="6"/>
<feGaussianBlur stdDeviation="2"/>
<feColorMatrix type="matrix" values="0 0 0 0 0.27451 0 0 0 0 0.133333 0 0 0 0 0.541176 0 0 0 0.04 0"/>
<feBlend mode="normal" in2="effect2_dropShadow_17277_11264" result="effect3_dropShadow_17277_11264"/>
<feColorMatrix in="SourceAlpha" type="matrix" values="0 0 0 0 0 0 0 0 0 0 0 0 0 0 0 0 0 0 127 0" result="hardAlpha"/>
<feOffset dy="11"/>
<feGaussianBlur stdDeviation="2"/>
<feColorMatrix type="matrix" values="0 0 0 0 0.27451 0 0 0 0 0.133333 0 0 0 0 0.541176 0 0 0 0.01 0"/>
<feBlend mode="normal" in2="effect3_dropShadow_17277_11264" result="effect4_dropShadow_17277_11264"/>
<feBlend mode="normal" in="SourceGraphic" in2="effect4_dropShadow_17277_11264" result="shape"/>
</filter>
</defs>
</svg>
