<svg width="79" height="89" viewBox="0 0 79 89" fill="none" xmlns="http://www.w3.org/2000/svg">
<path d="M33.1152 5.01855C36.9145 2.99073 41.5034 3.05859 45.25 5.22168L69.0254 18.9482C72.8927 21.1812 75.2754 25.3078 75.2754 29.7734V57.2266C75.2754 61.6922 72.8927 65.8188 69.0254 68.0518L45.25 81.7783C41.5034 83.9414 36.9145 84.0093 33.1152 81.9814L32.75 81.7783L8.97461 68.0518C5.10731 65.8188 2.72463 61.6922 2.72461 57.2266V29.7734C2.72463 25.3078 5.10731 21.1812 8.97461 18.9482L32.75 5.22168L33.1152 5.01855Z" fill="#2C6F76" stroke="white" stroke-width="5"/>
<path d="M52.0285 52.0573V38.7815H57.405V51.6291L65 49.1565L56.0141 28.5L15 30.8157L23.0359 51.2061V38.6036H28.6871C29.3292 38.6282 30.1883 38.7005 31.0088 38.7815C34.641 39.1375 36.1981 41.1026 36.1981 43.7126C36.1981 46.3226 32.7899 48.1079 29.4709 48.1079C29.0913 48.1079 28.7378 48.0991 28.4107 48.085V52.0556H23.3683L27.0897 61.5L56.091 52.0556H52.0267L52.0285 52.0573ZM50.0882 48.3335V51.3788C38.938 54.2585 36.7353 48.6331 36.7353 44.9498C36.7353 41.2665 40.7103 36.8958 50.0252 39.1992L50.0882 42.4913C43.4257 40.7624 42.4512 44.1285 42.4512 45.4203C42.4512 46.7121 43.7581 50.4747 50.0882 48.3352M54.8296 31.147C56.6107 31.147 58.0558 32.6027 58.0558 34.3968C58.0558 36.1909 56.6107 37.6484 54.8296 37.6484C53.0485 37.6484 51.6033 36.1927 51.6033 34.3968C51.6033 32.601 53.0485 31.147 54.8296 31.147Z" fill="white"/>
<path d="M31.1523 43.2808C31.1523 42.3662 30.6064 41.7476 29.3327 41.6242C29.0458 41.596 28.7431 41.5696 28.5191 41.5625H28.1937V44.8987C28.3792 44.8987 28.6906 44.8969 28.7956 44.8969C29.9591 44.8969 31.154 44.199 31.154 43.2826" fill="white"/>
</svg>
