<svg width="101" height="110" viewBox="0 0 101 110" fill="none" xmlns="http://www.w3.org/2000/svg">
<g filter="url(#filter0_dddd_17277_11253)">
<path d="M43.3201 5.53994C47.2868 2.31308 52.9737 2.31307 56.9404 5.53994C59.326 7.48058 62.4262 8.31128 65.4625 7.82343C70.5112 7.01225 75.4362 9.85567 77.258 14.6336C78.3537 17.507 80.6232 19.7765 83.4967 20.8722C88.2746 22.6941 91.118 27.619 90.3068 32.6677C89.819 35.704 90.6497 38.8043 92.5903 41.1898C95.8172 45.1566 95.8172 50.8434 92.5903 54.8102C90.6497 57.1957 89.819 60.296 90.3068 63.3323C91.118 68.381 88.2746 73.3059 83.4967 75.1278C80.6232 76.2235 78.3537 78.493 77.258 81.3664C75.4362 86.1443 70.5112 88.9877 65.4625 88.1766C62.4262 87.6887 59.326 88.5194 56.9404 90.4601C52.9737 93.6869 47.2868 93.6869 43.3201 90.4601C40.9345 88.5194 37.8343 87.6887 34.798 88.1766C29.7493 88.9877 24.8243 86.1443 23.0025 81.3664C21.9068 78.493 19.6373 76.2235 16.7638 75.1278C11.9859 73.3059 9.1425 68.381 9.95368 63.3323C10.4415 60.296 9.61083 57.1957 7.67019 54.8102C4.44332 50.8434 4.44332 45.1566 7.67019 41.1898C9.61083 38.8043 10.4415 35.704 9.95368 32.6677C9.1425 27.619 11.9859 22.6941 16.7638 20.8722C19.6373 19.7765 21.9068 17.507 23.0025 14.6336C24.8243 9.85567 29.7493 7.01225 34.798 7.82343C37.8343 8.31128 40.9345 7.48058 43.3201 5.53994Z" fill="#7E1416"/>
<path d="M43.3201 5.53994C47.2868 2.31308 52.9737 2.31307 56.9404 5.53994C59.326 7.48058 62.4262 8.31128 65.4625 7.82343C70.5112 7.01225 75.4362 9.85567 77.258 14.6336C78.3537 17.507 80.6232 19.7765 83.4967 20.8722C88.2746 22.6941 91.118 27.619 90.3068 32.6677C89.819 35.704 90.6497 38.8043 92.5903 41.1898C95.8172 45.1566 95.8172 50.8434 92.5903 54.8102C90.6497 57.1957 89.819 60.296 90.3068 63.3323C91.118 68.381 88.2746 73.3059 83.4967 75.1278C80.6232 76.2235 78.3537 78.493 77.258 81.3664C75.4362 86.1443 70.5112 88.9877 65.4625 88.1766C62.4262 87.6887 59.326 88.5194 56.9404 90.4601C52.9737 93.6869 47.2868 93.6869 43.3201 90.4601C40.9345 88.5194 37.8343 87.6887 34.798 88.1766C29.7493 88.9877 24.8243 86.1443 23.0025 81.3664C21.9068 78.493 19.6373 76.2235 16.7638 75.1278C11.9859 73.3059 9.1425 68.381 9.95368 63.3323C10.4415 60.296 9.61083 57.1957 7.67019 54.8102C4.44332 50.8434 4.44332 45.1566 7.67019 41.1898C9.61083 38.8043 10.4415 35.704 9.95368 32.6677C9.1425 27.619 11.9859 22.6941 16.7638 20.8722C19.6373 19.7765 21.9068 17.507 23.0025 14.6336C24.8243 9.85567 29.7493 7.01225 34.798 7.82343C37.8343 8.31128 40.9345 7.48058 43.3201 5.53994Z" stroke="white" stroke-width="2.5"/>
</g>
<path d="M44.1714 10.8474C47.6423 8.02394 52.6182 8.02394 56.0891 10.8474C58.1765 12.5455 60.8892 13.2724 63.546 12.8455C67.9636 12.1357 72.2729 14.6237 73.8671 18.8044C74.8258 21.3186 76.8116 23.3045 79.3259 24.2632C83.5065 25.8573 85.9945 30.1666 85.2847 34.5843C84.8579 37.241 85.5847 39.9537 87.2828 42.0411C90.1063 45.512 90.1063 50.488 87.2828 53.9589C85.5847 56.0463 84.8579 58.759 85.2847 61.4157C85.9945 65.8334 83.5065 70.1427 79.3259 71.7368C76.8116 72.6955 74.8258 74.6814 73.8671 77.1956C72.2729 81.3763 67.9636 83.8643 63.546 83.1545C60.8892 82.7276 58.1765 83.4545 56.0891 85.1525C52.6182 87.9761 47.6423 87.9761 44.1714 85.1525C42.084 83.4545 39.3713 82.7276 36.7145 83.1545C32.2969 83.8643 27.9876 81.3763 26.3934 77.1956C25.4347 74.6814 23.4489 72.6955 20.9346 71.7368C16.754 70.1427 14.266 65.8334 14.9758 61.4157C15.4026 58.759 14.6758 56.0463 12.9777 53.9589C10.1542 50.488 10.1542 45.512 12.9777 42.0411C14.6758 39.9537 15.4026 37.241 14.9758 34.5843C14.266 30.1666 16.754 25.8573 20.9346 24.2632C23.4489 23.3045 25.4347 21.3186 26.3934 18.8044C27.9876 14.6237 32.2969 12.1357 36.7145 12.8455C39.3713 13.2724 42.084 12.5455 44.1714 10.8474Z" fill="white"/>
<path d="M43.6976 10.2656C47.4442 7.21786 52.8163 7.21786 56.5629 10.2656C58.4844 11.8287 60.9815 12.4984 63.4271 12.1055C68.1956 11.3393 72.847 14.0245 74.5677 18.5371C75.4503 20.8517 77.2786 22.6799 79.5931 23.5625C84.1058 25.2833 86.7909 29.9347 86.0248 34.7031C85.6318 37.1488 86.3016 39.6458 87.8646 41.5674C90.9124 45.314 90.9124 50.686 87.8646 54.4326C86.3016 56.3542 85.6318 58.8512 86.0248 61.2969C86.7909 66.0653 84.1058 70.7167 79.5931 72.4375C77.2786 73.3201 75.4503 75.1483 74.5677 77.4629C72.847 81.9755 68.1956 84.6607 63.4271 83.8945C60.9815 83.5016 58.4844 84.1713 56.5629 85.7344C52.8163 88.7821 47.4442 88.7821 43.6976 85.7344C41.7761 84.1713 39.279 83.5016 36.8334 83.8945C32.0649 84.6607 27.4135 81.9755 25.6927 77.4629C24.8102 75.1483 22.9819 73.3201 20.6674 72.4375C16.1547 70.7167 13.4696 66.0653 14.2357 61.2969C14.6287 58.8512 13.9589 56.3542 12.3959 54.4326C9.34811 50.686 9.34811 45.314 12.3959 41.5674C13.9589 39.6458 14.6287 37.1488 14.2357 34.7031C13.4696 29.9347 16.1547 25.2833 20.6674 23.5625C22.9819 22.6799 24.8102 20.8517 25.6927 18.5371C27.4135 14.0245 32.0649 11.3393 36.8334 12.1055C39.279 12.4984 41.7761 11.8287 43.6976 10.2656Z" stroke="white" stroke-opacity="0.2" stroke-width="1.5"/>
<circle cx="50.1302" cy="48" r="24" fill="#7E1416" fill-opacity="0.1"/>
<path d="M32.316 58.308C30.692 58.308 29.292 58.0467 28.116 57.524C26.9586 56.9827 25.8946 56.1707 24.924 55.088L27.78 52.26C28.4146 52.988 29.1146 53.5573 29.88 53.968C30.664 54.36 31.5693 54.556 32.596 54.556C33.5293 54.556 34.248 54.388 34.752 54.052C35.2746 53.716 35.536 53.2493 35.536 52.652C35.536 52.1107 35.368 51.672 35.032 51.336C34.696 51 34.248 50.7107 33.688 50.468C33.1466 50.2253 32.54 49.992 31.868 49.768C31.2146 49.544 30.5613 49.292 29.908 49.012C29.2546 48.7133 28.648 48.3493 28.088 47.92C27.5466 47.472 27.108 46.9213 26.772 46.268C26.436 45.596 26.268 44.756 26.268 43.748C26.268 42.5347 26.5573 41.4893 27.136 40.612C27.7333 39.7347 28.5546 39.072 29.6 38.624C30.6453 38.1573 31.8493 37.924 33.212 37.924C34.5933 37.924 35.8533 38.1667 36.992 38.652C38.1493 39.1373 39.1013 39.8 39.848 40.64L36.992 43.468C36.3946 42.852 35.788 42.3947 35.172 42.096C34.5746 41.7973 33.8933 41.648 33.128 41.648C32.3626 41.648 31.756 41.7973 31.308 42.096C30.86 42.376 30.636 42.7867 30.636 43.328C30.636 43.832 30.804 44.2427 31.14 44.56C31.476 44.8587 31.9146 45.12 32.456 45.344C33.016 45.568 33.6226 45.792 34.276 46.016C34.948 46.24 35.6106 46.5013 36.264 46.8C36.9173 47.0987 37.5146 47.4813 38.056 47.948C38.616 48.396 39.064 48.9747 39.4 49.684C39.736 50.3747 39.904 51.2333 39.904 52.26C39.904 54.1453 39.232 55.6293 37.888 56.712C36.544 57.776 34.6866 58.308 32.316 58.308ZM52.2482 58.308C50.7736 58.308 49.4016 58.056 48.1322 57.552C46.8816 57.0293 45.7802 56.3013 44.8282 55.368C43.8949 54.4347 43.1669 53.352 42.6442 52.12C42.1216 50.8693 41.8602 49.5253 41.8602 48.088C41.8602 46.6507 42.1216 45.316 42.6442 44.084C43.1669 42.8333 43.8949 41.7507 44.8282 40.836C45.7616 39.9213 46.8536 39.212 48.1042 38.708C49.3736 38.1853 50.7456 37.924 52.2202 37.924C53.7882 37.924 55.1789 38.176 56.3922 38.68C57.6242 39.184 58.6976 39.8747 59.6122 40.752L56.6722 43.72C56.1496 43.16 55.5149 42.7213 54.7682 42.404C54.0402 42.0867 53.1909 41.928 52.2202 41.928C51.3616 41.928 50.5682 42.0773 49.8402 42.376C49.1309 42.656 48.5149 43.0667 47.9922 43.608C47.4882 44.1493 47.0869 44.8027 46.7882 45.568C46.5082 46.3333 46.3682 47.1733 46.3682 48.088C46.3682 49.0213 46.5082 49.8707 46.7882 50.636C47.0869 51.4013 47.4882 52.0547 47.9922 52.596C48.5149 53.1373 49.1309 53.5573 49.8402 53.856C50.5682 54.1547 51.3616 54.304 52.2202 54.304C53.2282 54.304 54.1056 54.1453 54.8522 53.828C55.5989 53.5107 56.2429 53.072 56.7842 52.512L59.7522 55.48C58.8002 56.3573 57.7082 57.048 56.4762 57.552C55.2629 58.056 53.8536 58.308 52.2482 58.308ZM62.1729 58V38.232H66.5689V58H62.1729ZM65.5329 50.244V46.464H75.4169V50.244H65.5329ZM65.5329 42.012V38.232H75.8649V42.012H65.5329Z" fill="#09151D"/>
<defs>
<filter id="filter0_dddd_17277_11253" x="0" y="0.869873" width="100.26" height="108.26" filterUnits="userSpaceOnUse" color-interpolation-filters="sRGB">
<feFlood flood-opacity="0" result="BackgroundImageFix"/>
<feColorMatrix in="SourceAlpha" type="matrix" values="0 0 0 0 0 0 0 0 0 0 0 0 0 0 0 0 0 0 127 0" result="hardAlpha"/>
<feOffset dy="1"/>
<feGaussianBlur stdDeviation="1"/>
<feColorMatrix type="matrix" values="0 0 0 0 0.494118 0 0 0 0 0.0784314 0 0 0 0 0.0862745 0 0 0 0.08 0"/>
<feBlend mode="normal" in2="BackgroundImageFix" result="effect1_dropShadow_17277_11253"/>
<feColorMatrix in="SourceAlpha" type="matrix" values="0 0 0 0 0 0 0 0 0 0 0 0 0 0 0 0 0 0 127 0" result="hardAlpha"/>
<feOffset dy="3"/>
<feGaussianBlur stdDeviation="1.5"/>
<feColorMatrix type="matrix" values="0 0 0 0 0.494118 0 0 0 0 0.0784314 0 0 0 0 0.0862745 0 0 0 0.07 0"/>
<feBlend mode="normal" in2="effect1_dropShadow_17277_11253" result="effect2_dropShadow_17277_11253"/>
<feColorMatrix in="SourceAlpha" type="matrix" values="0 0 0 0 0 0 0 0 0 0 0 0 0 0 0 0 0 0 127 0" result="hardAlpha"/>
<feOffset dy="6"/>
<feGaussianBlur stdDeviation="2"/>
<feColorMatrix type="matrix" values="0 0 0 0 0.494118 0 0 0 0 0.0784314 0 0 0 0 0.0862745 0 0 0 0.04 0"/>
<feBlend mode="normal" in2="effect2_dropShadow_17277_11253" result="effect3_dropShadow_17277_11253"/>
<feColorMatrix in="SourceAlpha" type="matrix" values="0 0 0 0 0 0 0 0 0 0 0 0 0 0 0 0 0 0 127 0" result="hardAlpha"/>
<feOffset dy="11"/>
<feGaussianBlur stdDeviation="2"/>
<feColorMatrix type="matrix" values="0 0 0 0 0.494118 0 0 0 0 0.0784314 0 0 0 0 0.0862745 0 0 0 0.01 0"/>
<feBlend mode="normal" in2="effect3_dropShadow_17277_11253" result="effect4_dropShadow_17277_11253"/>
<feBlend mode="normal" in="SourceGraphic" in2="effect4_dropShadow_17277_11253" result="shape"/>
</filter>
</defs>
</svg>
