<svg width="80" height="89" viewBox="0 0 80 89" fill="none" xmlns="http://www.w3.org/2000/svg">
<path d="M33.3145 5.01855C37.1137 2.99073 41.7026 3.05859 45.4492 5.22168L69.2246 18.9482C73.0919 21.1812 75.4746 25.3078 75.4746 29.7734V57.2266C75.4746 61.6922 73.0919 65.8188 69.2246 68.0518L45.4492 81.7783C41.7026 83.9414 37.1137 84.0093 33.3145 81.9814L32.9492 81.7783L9.17383 68.0518C5.30652 65.8188 2.92385 61.6922 2.92383 57.2266V29.7734C2.92385 25.3078 5.30652 21.1812 9.17383 18.9482L32.9492 5.22168L33.3145 5.01855Z" fill="#4AB1BD" stroke="white" stroke-width="5"/>
<path d="M19.018 50.72C17.858 50.72 16.858 50.5333 16.018 50.16C15.1913 49.7733 14.4313 49.1933 13.738 48.42L15.778 46.4C16.2313 46.92 16.7313 47.3267 17.278 47.62C17.838 47.9 18.4846 48.04 19.218 48.04C19.8846 48.04 20.398 47.92 20.758 47.68C21.1313 47.44 21.318 47.1067 21.318 46.68C21.318 46.2933 21.198 45.98 20.958 45.74C20.718 45.5 20.398 45.2933 19.998 45.12C19.6113 44.9467 19.178 44.78 18.698 44.62C18.2313 44.46 17.7646 44.28 17.298 44.08C16.8313 43.8667 16.398 43.6067 15.998 43.3C15.6113 42.98 15.298 42.5867 15.058 42.12C14.818 41.64 14.698 41.04 14.698 40.32C14.698 39.4533 14.9046 38.7067 15.318 38.08C15.7446 37.4533 16.3313 36.98 17.078 36.66C17.8246 36.3267 18.6846 36.16 19.658 36.16C20.6446 36.16 21.5446 36.3333 22.358 36.68C23.1846 37.0267 23.8646 37.5 24.398 38.1L22.358 40.12C21.9313 39.68 21.498 39.3533 21.058 39.14C20.6313 38.9267 20.1446 38.82 19.598 38.82C19.0513 38.82 18.618 38.9267 18.298 39.14C17.978 39.34 17.818 39.6333 17.818 40.02C17.818 40.38 17.938 40.6733 18.178 40.9C18.418 41.1133 18.7313 41.3 19.118 41.46C19.518 41.62 19.9513 41.78 20.418 41.94C20.898 42.1 21.3713 42.2867 21.838 42.5C22.3046 42.7133 22.7313 42.9867 23.118 43.32C23.518 43.64 23.838 44.0533 24.078 44.56C24.318 45.0533 24.438 45.6667 24.438 46.4C24.438 47.7467 23.958 48.8067 22.998 49.58C22.038 50.34 20.7113 50.72 19.018 50.72ZM33.2953 50.74C32.2286 50.74 31.242 50.5533 30.3353 50.18C29.442 49.8067 28.6553 49.2867 27.9753 48.62C27.2953 47.9533 26.7686 47.18 26.3953 46.3C26.022 45.4067 25.8353 44.4467 25.8353 43.42C25.8353 42.38 26.022 41.42 26.3953 40.54C26.7686 39.66 27.2886 38.8933 27.9553 38.24C28.622 37.5733 29.402 37.06 30.2953 36.7C31.202 36.3267 32.1886 36.14 33.2553 36.14C34.3086 36.14 35.282 36.3267 36.1753 36.7C37.082 37.06 37.8686 37.5733 38.5353 38.24C39.2153 38.8933 39.742 39.6667 40.1153 40.56C40.4886 41.44 40.6753 42.4 40.6753 43.44C40.6753 44.4667 40.4886 45.4267 40.1153 46.32C39.742 47.2 39.222 47.9733 38.5553 48.64C37.8886 49.2933 37.102 49.8067 36.1953 50.18C35.302 50.5533 34.3353 50.74 33.2953 50.74ZM33.2553 47.88C34.0953 47.88 34.8286 47.6933 35.4553 47.32C36.0953 46.9467 36.5886 46.4267 36.9353 45.76C37.282 45.08 37.4553 44.3 37.4553 43.42C37.4553 42.7533 37.3553 42.1533 37.1553 41.62C36.9553 41.0733 36.6686 40.6067 36.2953 40.22C35.922 39.82 35.4753 39.52 34.9553 39.32C34.4486 39.1067 33.882 39 33.2553 39C32.4153 39 31.6753 39.1867 31.0353 39.56C30.4086 39.92 29.922 40.4333 29.5753 41.1C29.2286 41.7533 29.0553 42.5267 29.0553 43.42C29.0553 44.0867 29.1553 44.6933 29.3553 45.24C29.5553 45.7867 29.8353 46.26 30.1953 46.66C30.5686 47.0467 31.0153 47.3467 31.5353 47.56C32.0553 47.7733 32.6286 47.88 33.2553 47.88ZM49.5639 50.72C48.5106 50.72 47.5306 50.54 46.6239 50.18C45.7306 49.8067 44.9439 49.2867 44.2639 48.62C43.5972 47.9533 43.0772 47.18 42.7039 46.3C42.3306 45.4067 42.1439 44.4467 42.1439 43.42C42.1439 42.3933 42.3306 41.44 42.7039 40.56C43.0772 39.6667 43.5972 38.8933 44.2639 38.24C44.9306 37.5867 45.7106 37.08 46.6039 36.72C47.5106 36.3467 48.4906 36.16 49.5439 36.16C50.6639 36.16 51.6572 36.34 52.5239 36.7C53.4039 37.06 54.1706 37.5533 54.8239 38.18L52.7239 40.3C52.3506 39.9 51.8972 39.5867 51.3639 39.36C50.8439 39.1333 50.2372 39.02 49.5439 39.02C48.9306 39.02 48.3639 39.1267 47.8439 39.34C47.3372 39.54 46.8972 39.8333 46.5239 40.22C46.1639 40.6067 45.8772 41.0733 45.6639 41.62C45.4639 42.1667 45.3639 42.7667 45.3639 43.42C45.3639 44.0867 45.4639 44.6933 45.6639 45.24C45.8772 45.7867 46.1639 46.2533 46.5239 46.64C46.8972 47.0267 47.3372 47.3267 47.8439 47.54C48.3639 47.7533 48.9306 47.86 49.5439 47.86C50.2639 47.86 50.8906 47.7467 51.4239 47.52C51.9572 47.2933 52.4172 46.98 52.8039 46.58L54.9239 48.7C54.2439 49.3267 53.4639 49.82 52.5839 50.18C51.7172 50.54 50.7106 50.72 49.5639 50.72ZM55.773 48.74L61.193 43.14C61.5263 42.8067 61.793 42.5 61.993 42.22C62.193 41.94 62.3396 41.68 62.433 41.44C62.5263 41.1867 62.573 40.9333 62.573 40.68C62.573 40.1333 62.393 39.7067 62.033 39.4C61.6863 39.08 61.2263 38.92 60.653 38.92C60.093 38.92 59.5863 39.0733 59.133 39.38C58.693 39.6733 58.2663 40.16 57.853 40.84L55.753 39.02C56.313 38.0733 57.0263 37.36 57.893 36.88C58.7596 36.4 59.753 36.16 60.873 36.16C61.8463 36.16 62.6863 36.34 63.393 36.7C64.113 37.06 64.6663 37.5733 65.053 38.24C65.453 38.9067 65.653 39.6867 65.653 40.58C65.653 41.14 65.5796 41.66 65.433 42.14C65.2863 42.6067 65.0463 43.0733 64.713 43.54C64.393 43.9933 63.9596 44.4933 63.413 45.04L59.653 48.78L55.773 48.74ZM55.773 50.5V48.74L58.433 47.82H65.933V50.5H55.773Z" fill="white"/>
</svg>
