<svg width="24" height="24" viewBox="0 0 24 24" fill="none" xmlns="http://www.w3.org/2000/svg">
<path d="M14.025 13.4447L14.7816 16.5L12 14.8631L9.21844 16.5L9.975 13.4447L7.5 11.4009L10.7484 11.1506L12 8.25L13.2516 11.1506L16.5 11.4009L14.025 13.4447Z" fill="#AF9AF5"/>
<path d="M19.5 3H17.25V2.25C17.25 2.05109 17.171 1.86032 17.0303 1.71967C16.8897 1.57902 16.6989 1.5 16.5 1.5C16.3011 1.5 16.1103 1.57902 15.9697 1.71967C15.829 1.86032 15.75 2.05109 15.75 2.25V3H8.25V2.25C8.25 2.05109 8.17098 1.86032 8.03033 1.71967C7.88968 1.57902 7.69891 1.5 7.5 1.5C7.30109 1.5 7.11032 1.57902 6.96967 1.71967C6.82902 1.86032 6.75 2.05109 6.75 2.25V3H4.5C4.10218 3 3.72064 3.15804 3.43934 3.43934C3.15804 3.72064 3 4.10218 3 4.5V19.5C3 19.8978 3.15804 20.2794 3.43934 20.5607C3.72064 20.842 4.10218 21 4.5 21H19.5C19.8978 21 20.2794 20.842 20.5607 20.5607C20.842 20.2794 21 19.8978 21 19.5V4.5C21 4.10218 20.842 3.72064 20.5607 3.43934C20.2794 3.15804 19.8978 3 19.5 3ZM19.5 19.5H4.5V4.5H6.75V5.25C6.75 5.44891 6.82902 5.63968 6.96967 5.78033C7.11032 5.92098 7.30109 6 7.5 6C7.69891 6 7.88968 5.92098 8.03033 5.78033C8.17098 5.63968 8.25 5.44891 8.25 5.25V4.5H15.75V5.25C15.75 5.44891 15.829 5.63968 15.9697 5.78033C16.1103 5.92098 16.3011 6 16.5 6C16.6989 6 16.8897 5.92098 17.0303 5.78033C17.171 5.63968 17.25 5.44891 17.25 5.25V4.5H19.5V19.5ZM16.5581 10.6537L13.7606 10.4372L12.6891 7.95281C12.6312 7.81808 12.535 7.70327 12.4126 7.6226C12.2901 7.54194 12.1467 7.49894 12 7.49894C11.8533 7.49894 11.7099 7.54194 11.5874 7.6226C11.465 7.70327 11.3688 7.81808 11.3109 7.95281L10.2394 10.4372L7.44187 10.6537C7.293 10.6655 7.15101 10.7214 7.03411 10.8143C6.9172 10.9073 6.8307 11.033 6.78569 11.1754C6.74068 11.3178 6.7392 11.4703 6.78144 11.6136C6.82369 11.7568 6.90773 11.8842 7.02281 11.9794L9.13406 13.7222L8.49094 16.32C8.45568 16.4632 8.46345 16.6137 8.51326 16.7525C8.56308 16.8914 8.65273 17.0124 8.771 17.1006C8.88927 17.1887 9.0309 17.2401 9.17819 17.2481C9.32548 17.2562 9.47187 17.2206 9.59906 17.1459L12 15.7331L14.4009 17.1459C14.5281 17.2206 14.6745 17.2562 14.8218 17.2481C14.9691 17.2401 15.1107 17.1887 15.229 17.1006C15.3473 17.0124 15.4369 16.8914 15.4867 16.7525C15.5366 16.6137 15.5443 16.4632 15.5091 16.32L14.8659 13.7222L16.9772 11.9794C17.0923 11.8842 17.1763 11.7568 17.2186 11.6136C17.2608 11.4703 17.2593 11.3178 17.2143 11.1754C17.1693 11.033 17.0828 10.9073 16.9659 10.8143C16.849 10.7214 16.707 10.6655 16.5581 10.6537ZM13.5478 12.8663C13.4387 12.9561 13.3572 13.075 13.3128 13.2092C13.2683 13.3434 13.2627 13.4874 13.2966 13.6247L13.6247 14.9484L12.3806 14.2162C12.2653 14.1483 12.1339 14.1125 12 14.1125C11.8661 14.1125 11.7347 14.1483 11.6194 14.2162L10.3753 14.9484L10.7034 13.6247C10.7373 13.4874 10.7317 13.3434 10.6872 13.2092C10.6428 13.075 10.5613 12.9561 10.4522 12.8663L9.41062 12.0056L10.8066 11.8978C10.9427 11.8874 11.0735 11.8399 11.1847 11.7606C11.2958 11.6813 11.3833 11.5732 11.4375 11.4478L12 10.1428L12.5625 11.4478C12.6167 11.5732 12.7042 11.6813 12.8153 11.7606C12.9265 11.8399 13.0573 11.8874 13.1934 11.8978L14.5894 12.0056L13.5478 12.8663Z" fill="#09151D"/>
</svg>
