<svg width="20" height="20" viewBox="0 0 20 20" fill="none" xmlns="http://www.w3.org/2000/svg">
<path d="M16.875 4.375V8.75C16.875 16.25 10 18.125 10 18.125C10 18.125 3.125 16.25 3.125 8.75V4.375C3.125 4.20924 3.19085 4.05027 3.30806 3.93306C3.42527 3.81585 3.58424 3.75 3.75 3.75H16.25C16.4158 3.75 16.5747 3.81585 16.6919 3.93306C16.8092 4.05027 16.875 4.20924 16.875 4.375Z" fill="#F5AE9A"/>
<path d="M16.25 3.125H3.75C3.41848 3.125 3.10054 3.2567 2.86612 3.49112C2.6317 3.72554 2.5 4.04348 2.5 4.375V8.75C2.5 12.8687 4.49375 15.3648 6.16641 16.7336C7.96797 18.207 9.76016 18.707 9.83828 18.7281C9.9457 18.7573 10.059 18.7573 10.1664 18.7281C10.2445 18.707 12.0344 18.207 13.8383 16.7336C15.5063 15.3648 17.5 12.8687 17.5 8.75V4.375C17.5 4.04348 17.3683 3.72554 17.1339 3.49112C16.8995 3.2567 16.5815 3.125 16.25 3.125ZM16.25 8.75C16.25 11.6461 15.1828 13.9969 13.0781 15.7359C12.1619 16.4904 11.12 17.0775 10 17.4703C8.89469 17.0843 7.86558 16.5077 6.95938 15.7664C4.82969 14.0242 3.75 11.6641 3.75 8.75V4.375H16.25V8.75ZM6.43281 11.0672C6.31554 10.9499 6.24965 10.7909 6.24965 10.625C6.24965 10.4591 6.31554 10.3001 6.43281 10.1828C6.55009 10.0655 6.70915 9.99965 6.875 9.99965C7.04085 9.99965 7.19991 10.0655 7.31719 10.1828L8.75 11.6164L12.6828 7.68281C12.7409 7.62474 12.8098 7.57868 12.8857 7.54725C12.9616 7.51583 13.0429 7.49965 13.125 7.49965C13.2071 7.49965 13.2884 7.51583 13.3643 7.54725C13.4402 7.57868 13.5091 7.62474 13.5672 7.68281C13.6253 7.74088 13.6713 7.80982 13.7027 7.88569C13.7342 7.96156 13.7503 8.04288 13.7503 8.125C13.7503 8.20712 13.7342 8.28844 13.7027 8.36431C13.6713 8.44018 13.6253 8.50912 13.5672 8.56719L9.19219 12.9422C9.13414 13.0003 9.06521 13.0464 8.98934 13.0779C8.91346 13.1093 8.83213 13.1255 8.75 13.1255C8.66787 13.1255 8.58654 13.1093 8.51066 13.0779C8.43479 13.0464 8.36586 13.0003 8.30781 12.9422L6.43281 11.0672Z" fill="#09151D"/>
</svg>
