<svg width="24" height="24" viewBox="0 0 24 24" fill="none" xmlns="http://www.w3.org/2000/svg">
<path d="M20.25 13.5C20.25 14.0933 20.0741 14.6734 19.7444 15.1667C19.4148 15.6601 18.9462 16.0446 18.3981 16.2716C17.8499 16.4987 17.2467 16.5581 16.6647 16.4424C16.0828 16.3266 15.5482 16.0409 15.1287 15.6213C14.7091 15.2018 14.4234 14.6672 14.3076 14.0853C14.1919 13.5033 14.2513 12.9001 14.4784 12.352C14.7054 11.8038 15.0899 11.3352 15.5833 11.0056C16.0766 10.6759 16.6567 10.5 17.25 10.5C18.0457 10.5 18.8087 10.8161 19.3713 11.3787C19.9339 11.9413 20.25 12.7044 20.25 13.5Z" fill="#9AF5DC"/>
<path d="M3 6C3 5.80109 3.07902 5.61032 3.21967 5.46967C3.36032 5.32902 3.55109 5.25 3.75 5.25H20.25C20.4489 5.25 20.6397 5.32902 20.7803 5.46967C20.921 5.61032 21 5.80109 21 6C21 6.19891 20.921 6.38968 20.7803 6.53033C20.6397 6.67098 20.4489 6.75 20.25 6.75H3.75C3.55109 6.75 3.36032 6.67098 3.21967 6.53033C3.07902 6.38968 3 6.19891 3 6ZM3.75 12.75H10.5C10.6989 12.75 10.8897 12.671 11.0303 12.5303C11.171 12.3897 11.25 12.1989 11.25 12C11.25 11.8011 11.171 11.6103 11.0303 11.4697C10.8897 11.329 10.6989 11.25 10.5 11.25H3.75C3.55109 11.25 3.36032 11.329 3.21967 11.4697C3.07902 11.6103 3 11.8011 3 12C3 12.1989 3.07902 12.3897 3.21967 12.5303C3.36032 12.671 3.55109 12.75 3.75 12.75ZM12 17.25H3.75C3.55109 17.25 3.36032 17.329 3.21967 17.4697C3.07902 17.6103 3 17.8011 3 18C3 18.1989 3.07902 18.3897 3.21967 18.5303C3.36032 18.671 3.55109 18.75 3.75 18.75H12C12.1989 18.75 12.3897 18.671 12.5303 18.5303C12.671 18.3897 12.75 18.1989 12.75 18C12.75 17.8011 12.671 17.6103 12.5303 17.4697C12.3897 17.329 12.1989 17.25 12 17.25ZM22.2806 18.5306C22.211 18.6004 22.1283 18.6557 22.0372 18.6934C21.9462 18.7312 21.8486 18.7506 21.75 18.7506C21.6514 18.7506 21.5538 18.7312 21.4628 18.6934C21.3717 18.6557 21.289 18.6004 21.2194 18.5306L19.3125 16.6275C18.537 17.1391 17.5993 17.3447 16.6809 17.2043C15.7625 17.064 14.9289 16.5877 14.3416 15.8679C13.7544 15.148 13.4552 14.2357 13.5022 13.3079C13.5491 12.38 13.9388 11.5026 14.5957 10.8457C15.2526 10.1888 16.13 9.7991 17.0579 9.75216C17.9857 9.70522 18.898 10.0044 19.6179 10.5916C20.3377 11.1789 20.814 12.0125 20.9543 12.9309C21.0947 13.8493 20.8891 14.787 20.3775 15.5625L22.2806 17.4656C22.3509 17.5353 22.4067 17.6183 22.4448 17.7097C22.4829 17.8011 22.5025 17.8991 22.5025 17.9981C22.5025 18.0971 22.4829 18.1952 22.4448 18.2866C22.4067 18.378 22.3509 18.4609 22.2806 18.5306ZM17.25 15.75C17.695 15.75 18.13 15.618 18.5 15.3708C18.87 15.1236 19.1584 14.7722 19.3287 14.361C19.499 13.9499 19.5436 13.4975 19.4568 13.061C19.37 12.6246 19.1557 12.2237 18.841 11.909C18.5263 11.5943 18.1254 11.38 17.689 11.2932C17.2525 11.2064 16.8001 11.251 16.389 11.4213C15.9778 11.5916 15.6264 11.88 15.3792 12.25C15.132 12.62 15 13.055 15 13.5C15 14.0967 15.2371 14.669 15.659 15.091C16.081 15.5129 16.6533 15.75 17.25 15.75Z" fill="#09151D"/>
</svg>
