<svg width="56" height="56" viewBox="0 0 56 56" fill="none" xmlns="http://www.w3.org/2000/svg">
<g filter="url(#filter0_dddi_18473_84869)">
<rect x="4" y="2" width="48" height="48" rx="10" fill="white"/>
<path d="M34.75 28.25L31 32L25 30.5L19.75 26.75L22.8138 20.6216L28 19.25L33.1863 20.6216L33.2125 20.75H29.5L25.2194 24.9022C25.1398 24.9817 25.0791 25.0781 25.0419 25.1843C25.0046 25.2905 24.9917 25.4037 25.0042 25.5155C25.0166 25.6273 25.054 25.7349 25.1137 25.8303C25.1733 25.9257 25.2537 26.0064 25.3488 26.0666C26.9903 27.1156 29.2188 27.0434 31 25.25L34.75 28.25Z" fill="#9AF5DC"/>
<path d="M39.8399 24.1163L37.4474 19.3295C37.3592 19.1533 37.2372 18.9962 37.0884 18.8671C36.9395 18.7381 36.7667 18.6396 36.5798 18.5774C36.3929 18.5151 36.1955 18.4903 35.999 18.5044C35.8025 18.5184 35.6107 18.571 35.4345 18.6591L33.103 19.8245L28.1914 18.5251C28.0654 18.4923 27.9331 18.4923 27.807 18.5251L22.8955 19.8245L20.5639 18.6591C20.3877 18.571 20.1959 18.5184 19.9994 18.5044C19.8029 18.4903 19.6056 18.5151 19.4187 18.5774C19.2318 18.6396 19.0589 18.7381 18.9101 18.8671C18.7612 18.9962 18.6392 19.1533 18.5511 19.3295L16.1586 24.1154C16.0704 24.2916 16.0178 24.4834 16.0038 24.6799C15.9898 24.8764 16.0146 25.0737 16.0768 25.2606C16.1391 25.4476 16.2375 25.6204 16.3666 25.7692C16.4956 25.9181 16.6527 26.0401 16.8289 26.1282L19.3602 27.3948L24.5624 31.1101C24.639 31.1646 24.7252 31.2044 24.8164 31.2273L30.8164 32.7273C30.9421 32.7588 31.0737 32.7572 31.1986 32.7227C31.3235 32.6882 31.4373 32.622 31.5289 32.5304L36.6917 27.3666L39.1686 26.1282C39.5242 25.9502 39.7945 25.6383 39.9202 25.261C40.0459 24.8838 40.0167 24.472 39.8389 24.1163H39.8399ZM34.6939 27.2448L31.468 24.661C31.3235 24.5453 31.1412 24.4871 30.9564 24.4977C30.7715 24.5082 30.5971 24.5868 30.4667 24.7182C28.797 26.4001 26.9361 26.1873 25.7492 25.4373L29.803 21.4998H32.7852L35.3361 26.6007L34.6939 27.2448ZM19.8927 19.9998L21.8117 20.9579L19.4145 25.7438L17.4992 24.7866L19.8927 19.9998ZM30.7677 31.1682L25.3199 29.807L20.7074 26.5126L23.3324 21.2626L27.9992 20.026L28.918 20.2688L24.6992 24.3638L24.6917 24.3723C24.5329 24.5311 24.4118 24.7235 24.3373 24.9354C24.2628 25.1473 24.2368 25.3732 24.2613 25.5964C24.2858 25.8197 24.3601 26.0346 24.4787 26.2253C24.5973 26.416 24.7573 26.5776 24.9467 26.6982C26.8742 27.9291 29.2002 27.7295 31.032 26.2295L33.6242 28.3116L30.7677 31.1682ZM36.5802 25.7429L34.1877 20.9616L36.1058 19.9998L38.4992 24.7866L36.5802 25.7429ZM28.3536 34.4307C28.3131 34.5928 28.2196 34.7367 28.088 34.8397C27.9563 34.9426 27.7941 34.9986 27.627 34.9988C27.5654 34.9988 27.504 34.9912 27.4442 34.9763L23.5377 33.9995C23.4463 33.9769 23.3601 33.9371 23.2836 33.8823L20.8133 32.1179C20.6614 31.9986 20.5614 31.8254 20.534 31.6342C20.5067 31.443 20.5541 31.2487 20.6665 31.0916C20.7788 30.9346 20.9474 30.8269 21.1372 30.791C21.327 30.7552 21.5232 30.7939 21.6852 30.8991L24.0392 32.581L27.8117 33.5223C28.0047 33.5705 28.1705 33.6934 28.2728 33.864C28.3752 34.0345 28.4056 34.2387 28.3574 34.4316L28.3536 34.4307Z" fill="#09151D"/>
</g>
<defs>
<filter id="filter0_dddi_18473_84869" x="0" y="0" width="56" height="56" filterUnits="userSpaceOnUse" color-interpolation-filters="sRGB">
<feFlood flood-opacity="0" result="BackgroundImageFix"/>
<feColorMatrix in="SourceAlpha" type="matrix" values="0 0 0 0 0 0 0 0 0 0 0 0 0 0 0 0 0 0 127 0" result="hardAlpha"/>
<feOffset dy="1"/>
<feGaussianBlur stdDeviation="1"/>
<feComposite in2="hardAlpha" operator="out"/>
<feColorMatrix type="matrix" values="0 0 0 0 0.0352941 0 0 0 0 0.0823529 0 0 0 0 0.113725 0 0 0 0.08 0"/>
<feBlend mode="normal" in2="BackgroundImageFix" result="effect1_dropShadow_18473_84869"/>
<feColorMatrix in="SourceAlpha" type="matrix" values="0 0 0 0 0 0 0 0 0 0 0 0 0 0 0 0 0 0 127 0" result="hardAlpha"/>
<feMorphology radius="1" operator="dilate" in="SourceAlpha" result="effect2_dropShadow_18473_84869"/>
<feOffset/>
<feComposite in2="hardAlpha" operator="out"/>
<feColorMatrix type="matrix" values="0 0 0 0 0.0352941 0 0 0 0 0.0823529 0 0 0 0 0.113725 0 0 0 0.08 0"/>
<feBlend mode="normal" in2="effect1_dropShadow_18473_84869" result="effect2_dropShadow_18473_84869"/>
<feColorMatrix in="SourceAlpha" type="matrix" values="0 0 0 0 0 0 0 0 0 0 0 0 0 0 0 0 0 0 127 0" result="hardAlpha"/>
<feOffset dy="2"/>
<feGaussianBlur stdDeviation="2"/>
<feComposite in2="hardAlpha" operator="out"/>
<feColorMatrix type="matrix" values="0 0 0 0 0.0352941 0 0 0 0 0.0823529 0 0 0 0 0.113725 0 0 0 0.04 0"/>
<feBlend mode="normal" in2="effect2_dropShadow_18473_84869" result="effect3_dropShadow_18473_84869"/>
<feBlend mode="normal" in="SourceGraphic" in2="effect3_dropShadow_18473_84869" result="shape"/>
<feColorMatrix in="SourceAlpha" type="matrix" values="0 0 0 0 0 0 0 0 0 0 0 0 0 0 0 0 0 0 127 0" result="hardAlpha"/>
<feOffset dy="-1"/>
<feComposite in2="hardAlpha" operator="arithmetic" k2="-1" k3="1"/>
<feColorMatrix type="matrix" values="0 0 0 0 0.0352941 0 0 0 0 0.0823529 0 0 0 0 0.113725 0 0 0 0.16 0"/>
<feBlend mode="normal" in2="shape" result="effect4_innerShadow_18473_84869"/>
</filter>
</defs>
</svg>
