<svg width="56" height="56" viewBox="0 0 56 56" fill="none" xmlns="http://www.w3.org/2000/svg">
<g filter="url(#filter0_dddi_18473_84885)">
<rect x="4" y="2" width="48" height="48" rx="10" fill="white"/>
<path d="M36.4695 25.2124L33.2126 28.4693C32.6788 29.0038 32.0154 29.3907 31.2873 29.5922C30.5591 29.7936 29.7912 29.8028 29.0585 29.6186C29.0295 29.6505 29.0004 29.6815 28.9695 29.7124L25.7126 32.9693C25.3085 33.3832 24.8262 33.7129 24.2938 33.9391C23.7613 34.1653 23.1893 34.2835 22.6108 34.287C22.0323 34.2905 21.4588 34.1791 20.9237 33.9594C20.3886 33.7396 19.9024 33.4158 19.4933 33.0067C19.0842 32.5976 18.7604 32.1114 18.5406 31.5763C18.3209 31.0412 18.2095 30.4677 18.213 29.8892C18.2165 29.3107 18.3347 28.7387 18.5609 28.2062C18.7871 27.6738 19.1168 27.1915 19.5307 26.7874L22.7876 23.5305C23.3216 22.9961 23.985 22.6093 24.713 22.4079C25.4411 22.2064 26.209 22.1972 26.9417 22.3811C26.9707 22.3493 26.9998 22.3183 27.0354 22.2874L30.2876 19.0305C31.1107 18.227 32.2174 17.7803 33.3676 17.7872C34.5179 17.7941 35.6191 18.2541 36.4325 19.0675C37.2459 19.8809 37.7059 20.9821 37.7128 22.1324C37.7197 23.2826 37.273 24.3893 36.4695 25.2124Z" fill="#9AF5DC"/>
<path d="M38.5005 22.2713C38.4629 23.577 37.9261 24.8184 37.0005 25.7401L33.7427 28.9998C33.2682 29.4769 32.7038 29.8551 32.0822 30.1126C31.4606 30.37 30.794 30.5016 30.1212 30.4998H30.1165C29.4321 30.4993 28.7548 30.3617 28.1246 30.095C27.4943 29.8284 26.9239 29.4381 26.447 28.9473C25.9701 28.4565 25.5964 27.8751 25.3479 27.2375C25.0995 26.5998 24.9814 25.9188 25.0005 25.2348C25.0061 25.0359 25.0905 24.8473 25.2351 24.7106C25.3797 24.5739 25.5727 24.5003 25.7716 24.5059C25.9705 24.5115 26.1591 24.5958 26.2958 24.7405C26.4325 24.8851 26.5061 25.0781 26.5005 25.277C26.4869 25.7606 26.5703 26.2422 26.7459 26.693C26.9215 27.1439 27.1857 27.5551 27.5229 27.9021C27.86 28.2492 28.2634 28.5251 28.709 28.7136C29.1546 28.9022 29.6335 28.9995 30.1174 28.9998C30.5931 29.001 31.0642 28.9079 31.5037 28.7259C31.9432 28.5439 32.3422 28.2766 32.6777 27.9395L35.9355 24.6817C36.6077 24.001 36.9833 23.0821 36.9803 22.1256C36.9773 21.169 36.596 20.2525 35.9196 19.5761C35.2432 18.8997 34.3266 18.5183 33.3701 18.5154C32.4135 18.5124 31.4946 18.8879 30.814 19.5601L29.7827 20.5913C29.6409 20.7261 29.4521 20.8 29.2565 20.7975C29.061 20.795 28.8741 20.7162 28.7358 20.5779C28.5975 20.4396 28.5187 20.2528 28.5162 20.0572C28.5137 19.8616 28.5877 19.6728 28.7224 19.531L29.7537 18.4998C30.2294 18.0238 30.7943 17.6463 31.416 17.3887C32.0378 17.1311 32.7041 16.9985 33.3771 16.9985C34.0501 16.9985 34.7164 17.1311 35.3382 17.3887C35.9599 17.6463 36.5248 18.0238 37.0005 18.4998C37.4933 18.9938 37.8805 19.5829 38.1383 20.2313C38.3962 20.8797 38.5194 21.5738 38.5005 22.2713ZM26.2193 31.4054L25.188 32.4367C24.8517 32.7752 24.4514 33.0436 24.0104 33.2261C23.5694 33.4086 23.0965 33.5016 22.6193 33.4998C21.9033 33.4992 21.2036 33.2864 20.6085 32.8883C20.0134 32.4902 19.5497 31.9247 19.2759 31.2631C19.0021 30.6016 18.9305 29.8737 19.0703 29.1715C19.21 28.4693 19.5547 27.8243 20.0608 27.3179L23.313 24.0601C23.8253 23.5451 24.4805 23.1961 25.1937 23.0584C25.9068 22.9206 26.6449 23.0004 27.3121 23.2875C27.9792 23.5746 28.5447 24.0557 28.935 24.6683C29.3252 25.2808 29.5223 25.9966 29.5005 26.7226C29.4978 26.8211 29.5145 26.9192 29.5497 27.0112C29.5848 27.1033 29.6378 27.1875 29.7055 27.259C29.7733 27.3306 29.8544 27.3881 29.9444 27.4283C30.0344 27.4685 30.1314 27.4905 30.2299 27.4932H30.2505C30.4459 27.4933 30.6336 27.4171 30.7737 27.2809C30.9138 27.1447 30.9952 26.9592 31.0005 26.7638C31.0184 26.0676 30.8947 25.3749 30.6368 24.7279C30.379 24.0808 29.9924 23.4929 29.5005 22.9998C28.5398 22.0394 27.2369 21.4999 25.8785 21.4999C24.5201 21.4999 23.2172 22.0394 22.2565 22.9998L19.0005 26.2576C18.2845 26.9733 17.7967 27.8853 17.5988 28.8782C17.4009 29.871 17.5017 30.9003 17.8886 31.8359C18.2755 32.7715 18.931 33.5714 19.7724 34.1345C20.6137 34.6977 21.6031 34.9988 22.6155 34.9998C23.2885 35.0017 23.9552 34.8701 24.577 34.6127C25.1989 34.3552 25.7634 33.9769 26.238 33.4998L27.2693 32.4685C27.3907 32.3256 27.4541 32.1423 27.447 31.9549C27.44 31.7675 27.3629 31.5895 27.2312 31.4561C27.0994 31.3227 26.9224 31.2435 26.7351 31.2341C26.5478 31.2247 26.3637 31.2858 26.2193 31.4054Z" fill="#09151D"/>
</g>
<defs>
<filter id="filter0_dddi_18473_84885" x="0" y="0" width="56" height="56" filterUnits="userSpaceOnUse" color-interpolation-filters="sRGB">
<feFlood flood-opacity="0" result="BackgroundImageFix"/>
<feColorMatrix in="SourceAlpha" type="matrix" values="0 0 0 0 0 0 0 0 0 0 0 0 0 0 0 0 0 0 127 0" result="hardAlpha"/>
<feOffset dy="1"/>
<feGaussianBlur stdDeviation="1"/>
<feComposite in2="hardAlpha" operator="out"/>
<feColorMatrix type="matrix" values="0 0 0 0 0.0352941 0 0 0 0 0.0823529 0 0 0 0 0.113725 0 0 0 0.08 0"/>
<feBlend mode="normal" in2="BackgroundImageFix" result="effect1_dropShadow_18473_84885"/>
<feColorMatrix in="SourceAlpha" type="matrix" values="0 0 0 0 0 0 0 0 0 0 0 0 0 0 0 0 0 0 127 0" result="hardAlpha"/>
<feMorphology radius="1" operator="dilate" in="SourceAlpha" result="effect2_dropShadow_18473_84885"/>
<feOffset/>
<feComposite in2="hardAlpha" operator="out"/>
<feColorMatrix type="matrix" values="0 0 0 0 0.0352941 0 0 0 0 0.0823529 0 0 0 0 0.113725 0 0 0 0.08 0"/>
<feBlend mode="normal" in2="effect1_dropShadow_18473_84885" result="effect2_dropShadow_18473_84885"/>
<feColorMatrix in="SourceAlpha" type="matrix" values="0 0 0 0 0 0 0 0 0 0 0 0 0 0 0 0 0 0 127 0" result="hardAlpha"/>
<feOffset dy="2"/>
<feGaussianBlur stdDeviation="2"/>
<feComposite in2="hardAlpha" operator="out"/>
<feColorMatrix type="matrix" values="0 0 0 0 0.0352941 0 0 0 0 0.0823529 0 0 0 0 0.113725 0 0 0 0.04 0"/>
<feBlend mode="normal" in2="effect2_dropShadow_18473_84885" result="effect3_dropShadow_18473_84885"/>
<feBlend mode="normal" in="SourceGraphic" in2="effect3_dropShadow_18473_84885" result="shape"/>
<feColorMatrix in="SourceAlpha" type="matrix" values="0 0 0 0 0 0 0 0 0 0 0 0 0 0 0 0 0 0 127 0" result="hardAlpha"/>
<feOffset dy="-1"/>
<feComposite in2="hardAlpha" operator="arithmetic" k2="-1" k3="1"/>
<feColorMatrix type="matrix" values="0 0 0 0 0.0352941 0 0 0 0 0.0823529 0 0 0 0 0.113725 0 0 0 0.16 0"/>
<feBlend mode="normal" in2="shape" result="effect4_innerShadow_18473_84885"/>
</filter>
</defs>
</svg>
