<svg width="56" height="56" viewBox="0 0 56 56" fill="none" xmlns="http://www.w3.org/2000/svg">
<g filter="url(#filter0_dddi_18473_84877)">
<rect x="4" y="2" width="48" height="48" rx="10" fill="white"/>
<path d="M36.25 23V34.25H25L19.75 29V17.75H31L36.25 23Z" fill="#9AF5DC"/>
<path d="M36.7806 22.4694L31.5306 17.2194C31.4609 17.1497 31.3782 17.0945 31.2871 17.0569C31.1961 17.0193 31.0985 16.9999 31 17H19.75C19.5511 17 19.3603 17.079 19.2197 17.2197C19.079 17.3603 19 17.5511 19 17.75V29C19.0001 29.1968 19.0775 29.3857 19.2156 29.5259L24.4656 34.7759C24.5354 34.8469 24.6186 34.9032 24.7103 34.9417C24.802 34.9801 24.9005 35 25 35H36.25C36.4489 35 36.6397 34.921 36.7803 34.7803C36.921 34.6397 37 34.4489 37 34.25V23C37.0001 22.9015 36.9807 22.8039 36.9431 22.7129C36.9055 22.6218 36.8503 22.5391 36.7806 22.4694ZM31.75 19.5603L34.4397 22.25H31.75V19.5603ZM24.25 32.4397L21.5603 29.75H24.25V32.4397ZM24.25 28.25H20.5V19.5603L24.25 23.3103V28.25ZM21.5603 18.5H30.25V22.25H25.3103L21.5603 18.5ZM30.25 23.75V28.25H25.75V23.75H30.25ZM25.75 33.5V29.75H30.6897L34.4397 33.5H25.75ZM35.5 32.4397L31.75 28.6897V23.75H35.5V32.4397Z" fill="#09151D"/>
</g>
<defs>
<filter id="filter0_dddi_18473_84877" x="0" y="0" width="56" height="56" filterUnits="userSpaceOnUse" color-interpolation-filters="sRGB">
<feFlood flood-opacity="0" result="BackgroundImageFix"/>
<feColorMatrix in="SourceAlpha" type="matrix" values="0 0 0 0 0 0 0 0 0 0 0 0 0 0 0 0 0 0 127 0" result="hardAlpha"/>
<feOffset dy="1"/>
<feGaussianBlur stdDeviation="1"/>
<feComposite in2="hardAlpha" operator="out"/>
<feColorMatrix type="matrix" values="0 0 0 0 0.0352941 0 0 0 0 0.0823529 0 0 0 0 0.113725 0 0 0 0.08 0"/>
<feBlend mode="normal" in2="BackgroundImageFix" result="effect1_dropShadow_18473_84877"/>
<feColorMatrix in="SourceAlpha" type="matrix" values="0 0 0 0 0 0 0 0 0 0 0 0 0 0 0 0 0 0 127 0" result="hardAlpha"/>
<feMorphology radius="1" operator="dilate" in="SourceAlpha" result="effect2_dropShadow_18473_84877"/>
<feOffset/>
<feComposite in2="hardAlpha" operator="out"/>
<feColorMatrix type="matrix" values="0 0 0 0 0.0352941 0 0 0 0 0.0823529 0 0 0 0 0.113725 0 0 0 0.08 0"/>
<feBlend mode="normal" in2="effect1_dropShadow_18473_84877" result="effect2_dropShadow_18473_84877"/>
<feColorMatrix in="SourceAlpha" type="matrix" values="0 0 0 0 0 0 0 0 0 0 0 0 0 0 0 0 0 0 127 0" result="hardAlpha"/>
<feOffset dy="2"/>
<feGaussianBlur stdDeviation="2"/>
<feComposite in2="hardAlpha" operator="out"/>
<feColorMatrix type="matrix" values="0 0 0 0 0.0352941 0 0 0 0 0.0823529 0 0 0 0 0.113725 0 0 0 0.04 0"/>
<feBlend mode="normal" in2="effect2_dropShadow_18473_84877" result="effect3_dropShadow_18473_84877"/>
<feBlend mode="normal" in="SourceGraphic" in2="effect3_dropShadow_18473_84877" result="shape"/>
<feColorMatrix in="SourceAlpha" type="matrix" values="0 0 0 0 0 0 0 0 0 0 0 0 0 0 0 0 0 0 127 0" result="hardAlpha"/>
<feOffset dy="-1"/>
<feComposite in2="hardAlpha" operator="arithmetic" k2="-1" k3="1"/>
<feColorMatrix type="matrix" values="0 0 0 0 0.0352941 0 0 0 0 0.0823529 0 0 0 0 0.113725 0 0 0 0.16 0"/>
<feBlend mode="normal" in2="shape" result="effect4_innerShadow_18473_84877"/>
</filter>
</defs>
</svg>
