<svg width="24" height="24" viewBox="0 0 24 24" fill="none" xmlns="http://www.w3.org/2000/svg">
<path d="M22.4994 12C22.4994 13.9891 21.7092 15.8968 20.3027 17.3033C18.8962 18.7098 16.9885 19.5 14.9994 19.5H6.74938C6.00497 19.4991 5.26926 19.3399 4.59108 19.0329C3.9129 18.726 3.30774 18.2783 2.81578 17.7196C2.32381 17.1609 1.95628 16.504 1.73756 15.7925C1.51885 15.0809 1.45396 14.331 1.5472 13.5924C1.64044 12.8539 1.88968 12.1436 2.27838 11.5087C2.66707 10.8738 3.18634 10.3289 3.80172 9.91001C4.4171 9.49113 5.11452 9.20791 5.84771 9.07914C6.5809 8.95037 7.3331 8.979 8.05438 9.16312V9.17249C8.71068 7.56272 9.9058 6.23092 11.4354 5.40483C12.965 4.57873 14.7341 4.30965 16.4401 4.6436C18.1462 4.97754 19.6832 5.89377 20.7885 7.23562C21.8937 8.57746 22.4985 10.2616 22.4994 12Z" fill="#9AF5DC"/>
<path d="M16.7188 15.5306L14.9994 13.8103V19.5C14.9994 19.6989 14.9204 19.8897 14.7798 20.0303C14.6391 20.171 14.4483 20.25 14.2494 20.25C14.0505 20.25 13.8597 20.171 13.7191 20.0303C13.5784 19.8897 13.4994 19.6989 13.4994 19.5V13.8103L11.7801 15.5306C11.7104 15.6003 11.6276 15.6556 11.5366 15.6933C11.4456 15.731 11.348 15.7504 11.2494 15.7504C11.1509 15.7504 11.0533 15.731 10.9623 15.6933C10.8712 15.6556 10.7885 15.6003 10.7188 15.5306C10.6491 15.4609 10.5938 15.3782 10.5561 15.2872C10.5184 15.1961 10.499 15.0985 10.499 15C10.499 14.9015 10.5184 14.8039 10.5561 14.7128C10.5938 14.6218 10.6491 14.5391 10.7188 14.4694L13.7188 11.4694C13.7885 11.3996 13.8712 11.3443 13.9622 11.3066C14.0533 11.2688 14.1509 11.2494 14.2494 11.2494C14.348 11.2494 14.4456 11.2688 14.5366 11.3066C14.6277 11.3443 14.7104 11.3996 14.7801 11.4694L17.7801 14.4694C17.8497 14.5391 17.905 14.6218 17.9427 14.7128C17.9804 14.8039 17.9998 14.9015 17.9998 15C17.9998 15.0985 17.9804 15.1961 17.9427 15.2872C17.905 15.3782 17.8497 15.4609 17.7801 15.5306C17.7104 15.6003 17.6276 15.6556 17.5366 15.6933C17.4456 15.731 17.348 15.7504 17.2494 15.7504C17.1509 15.7504 17.0533 15.731 16.9623 15.6933C16.8712 15.6556 16.7885 15.6003 16.7188 15.5306ZM14.9994 3.75C13.4671 3.75116 11.9654 4.17864 10.6622 4.98463C9.35901 5.79061 8.30579 6.94331 7.62036 8.31375C6.80429 8.19383 5.97226 8.24346 5.17623 8.45954C4.3802 8.67563 3.63727 9.05352 2.99385 9.56962C2.35042 10.0857 1.82032 10.7289 1.43665 11.4591C1.05298 12.1893 0.823981 12.9907 0.763956 13.8134C0.703931 14.636 0.814169 15.4622 1.08779 16.2403C1.3614 17.0185 1.79252 17.7318 2.35421 18.3359C2.91591 18.9399 3.59611 19.4216 4.35234 19.751C5.10857 20.0803 5.92459 20.2502 6.74942 20.25H10.4994C10.6983 20.25 10.8891 20.171 11.0298 20.0303C11.1704 19.8897 11.2494 19.6989 11.2494 19.5C11.2494 19.3011 11.1704 19.1103 11.0298 18.9697C10.8891 18.829 10.6983 18.75 10.4994 18.75H6.74942C5.55595 18.75 4.41136 18.2759 3.56744 17.432C2.72353 16.5881 2.24943 15.4435 2.24943 14.25C2.24943 13.0565 2.72353 11.9119 3.56744 11.068C4.41136 10.2241 5.55595 9.75 6.74942 9.75C6.85255 9.75 6.95568 9.75 7.05786 9.76125C6.85284 10.4898 6.74906 11.2431 6.74942 12C6.74942 12.1989 6.82844 12.3897 6.9691 12.5303C7.10975 12.671 7.30051 12.75 7.49942 12.75C7.69834 12.75 7.8891 12.671 8.02976 12.5303C8.17041 12.3897 8.24942 12.1989 8.24942 12C8.24961 10.7831 8.57877 9.58886 9.20207 8.54369C9.82537 7.49852 10.7196 6.64129 11.7902 6.06272C12.8608 5.48415 14.0679 5.20576 15.2837 5.25701C16.4995 5.30826 17.6789 5.68724 18.697 6.35385C19.7151 7.02046 20.534 7.94989 21.0672 9.04381C21.6003 10.1377 21.8278 11.3554 21.7256 12.568C21.6233 13.7806 21.1952 14.9431 20.4865 15.9323C19.7777 16.9215 18.8147 17.7007 17.6994 18.1875C17.5411 18.2562 17.4112 18.3773 17.3318 18.5306C17.2524 18.6839 17.2283 18.8598 17.2635 19.0288C17.2988 19.1978 17.3912 19.3494 17.5253 19.4581C17.6594 19.5669 17.8268 19.626 17.9994 19.6256C18.1028 19.6255 18.205 19.6038 18.2994 19.5619C20.0369 18.804 21.4604 17.4708 22.3305 15.7867C23.2006 14.1025 23.4641 12.1701 23.0768 10.3145C22.6896 8.45888 21.6751 6.79322 20.204 5.59768C18.7329 4.40215 16.895 3.74967 14.9994 3.75Z" fill="#09151D"/>
</svg>
