<svg width="56" height="56" viewBox="0 0 56 56" fill="none" xmlns="http://www.w3.org/2000/svg">
<g filter="url(#filter0_dddi_18473_84859)">
<rect x="4" y="2" width="48" height="48" rx="10" fill="white"/>
<path d="M28 19.25C20.5 19.25 17.5 26 17.5 26C17.5 26 20.5 32.75 28 32.75C35.5 32.75 38.5 26 38.5 26C38.5 26 35.5 19.25 28 19.25ZM28 29.75C27.2583 29.75 26.5333 29.5301 25.9166 29.118C25.2999 28.706 24.8193 28.1203 24.5355 27.4351C24.2516 26.7498 24.1774 25.9958 24.3221 25.2684C24.4667 24.541 24.8239 23.8728 25.3483 23.3483C25.8728 22.8239 26.541 22.4667 27.2684 22.3221C27.9958 22.1774 28.7498 22.2516 29.4351 22.5355C30.1203 22.8193 30.706 23.2999 31.118 23.9166C31.5301 24.5333 31.75 25.2583 31.75 26C31.75 26.9946 31.3549 27.9484 30.6517 28.6517C29.9484 29.3549 28.9946 29.75 28 29.75Z" fill="#9AF5DC"/>
<path d="M39.1853 25.6962C39.1525 25.6222 38.3584 23.8606 36.5931 22.0953C34.2409 19.7431 31.27 18.5 28 18.5C24.73 18.5 21.7591 19.7431 19.4069 22.0953C17.6416 23.8606 16.8437 25.625 16.8147 25.6962C16.772 25.7922 16.75 25.896 16.75 26.0009C16.75 26.1059 16.772 26.2097 16.8147 26.3056C16.8475 26.3797 17.6416 28.1403 19.4069 29.9056C21.7591 32.2569 24.73 33.5 28 33.5C31.27 33.5 34.2409 32.2569 36.5931 29.9056C38.3584 28.1403 39.1525 26.3797 39.1853 26.3056C39.2279 26.2097 39.25 26.1059 39.25 26.0009C39.25 25.896 39.2279 25.7922 39.1853 25.6962ZM28 32C25.1144 32 22.5934 30.9509 20.5066 28.8828C19.6503 28.0313 18.9218 27.0603 18.3437 26C18.9216 24.9396 19.6501 23.9686 20.5066 23.1172C22.5934 21.0491 25.1144 20 28 20C30.8856 20 33.4066 21.0491 35.4934 23.1172C36.3514 23.9684 37.0815 24.9394 37.6609 26C36.985 27.2619 34.0403 32 28 32ZM28 21.5C27.11 21.5 26.2399 21.7639 25.4999 22.2584C24.7599 22.7529 24.1831 23.4557 23.8425 24.2779C23.5019 25.1002 23.4128 26.005 23.5865 26.8779C23.7601 27.7508 24.1887 28.5526 24.818 29.182C25.4473 29.8113 26.2492 30.2399 27.1221 30.4135C27.995 30.5872 28.8998 30.4981 29.7221 30.1575C30.5443 29.8169 31.2471 29.2401 31.7416 28.5001C32.2361 27.76 32.5 26.89 32.5 26C32.4988 24.8069 32.0242 23.663 31.1806 22.8194C30.337 21.9757 29.1931 21.5012 28 21.5ZM28 29C27.4066 29 26.8266 28.8241 26.3333 28.4944C25.8399 28.1648 25.4554 27.6962 25.2284 27.1481C25.0013 26.5999 24.9419 25.9967 25.0576 25.4147C25.1734 24.8328 25.4591 24.2982 25.8787 23.8787C26.2982 23.4591 26.8328 23.1734 27.4147 23.0576C27.9967 22.9419 28.5999 23.0013 29.148 23.2284C29.6962 23.4554 30.1648 23.8399 30.4944 24.3333C30.824 24.8266 31 25.4067 31 26C31 26.7956 30.6839 27.5587 30.1213 28.1213C29.5587 28.6839 28.7956 29 28 29Z" fill="#09151D"/>
</g>
<defs>
<filter id="filter0_dddi_18473_84859" x="0" y="0" width="56" height="56" filterUnits="userSpaceOnUse" color-interpolation-filters="sRGB">
<feFlood flood-opacity="0" result="BackgroundImageFix"/>
<feColorMatrix in="SourceAlpha" type="matrix" values="0 0 0 0 0 0 0 0 0 0 0 0 0 0 0 0 0 0 127 0" result="hardAlpha"/>
<feOffset dy="1"/>
<feGaussianBlur stdDeviation="1"/>
<feComposite in2="hardAlpha" operator="out"/>
<feColorMatrix type="matrix" values="0 0 0 0 0.0352941 0 0 0 0 0.0823529 0 0 0 0 0.113725 0 0 0 0.08 0"/>
<feBlend mode="normal" in2="BackgroundImageFix" result="effect1_dropShadow_18473_84859"/>
<feColorMatrix in="SourceAlpha" type="matrix" values="0 0 0 0 0 0 0 0 0 0 0 0 0 0 0 0 0 0 127 0" result="hardAlpha"/>
<feMorphology radius="1" operator="dilate" in="SourceAlpha" result="effect2_dropShadow_18473_84859"/>
<feOffset/>
<feComposite in2="hardAlpha" operator="out"/>
<feColorMatrix type="matrix" values="0 0 0 0 0.0352941 0 0 0 0 0.0823529 0 0 0 0 0.113725 0 0 0 0.08 0"/>
<feBlend mode="normal" in2="effect1_dropShadow_18473_84859" result="effect2_dropShadow_18473_84859"/>
<feColorMatrix in="SourceAlpha" type="matrix" values="0 0 0 0 0 0 0 0 0 0 0 0 0 0 0 0 0 0 127 0" result="hardAlpha"/>
<feOffset dy="2"/>
<feGaussianBlur stdDeviation="2"/>
<feComposite in2="hardAlpha" operator="out"/>
<feColorMatrix type="matrix" values="0 0 0 0 0.0352941 0 0 0 0 0.0823529 0 0 0 0 0.113725 0 0 0 0.04 0"/>
<feBlend mode="normal" in2="effect2_dropShadow_18473_84859" result="effect3_dropShadow_18473_84859"/>
<feBlend mode="normal" in="SourceGraphic" in2="effect3_dropShadow_18473_84859" result="shape"/>
<feColorMatrix in="SourceAlpha" type="matrix" values="0 0 0 0 0 0 0 0 0 0 0 0 0 0 0 0 0 0 127 0" result="hardAlpha"/>
<feOffset dy="-1"/>
<feComposite in2="hardAlpha" operator="arithmetic" k2="-1" k3="1"/>
<feColorMatrix type="matrix" values="0 0 0 0 0.0352941 0 0 0 0 0.0823529 0 0 0 0 0.113725 0 0 0 0.16 0"/>
<feBlend mode="normal" in2="shape" result="effect4_innerShadow_18473_84859"/>
</filter>
</defs>
</svg>
