<svg width="24" height="24" viewBox="0 0 24 24" fill="none" xmlns="http://www.w3.org/2000/svg">
<path d="M22.5 9.75L12 21L7.5 9.75L12 3.75H17.25L22.5 9.75Z" fill="#9AF5DC"/>
<path d="M23.0628 9.25594L17.8128 3.25594C17.7426 3.17577 17.6561 3.11147 17.5591 3.06734C17.4621 3.02321 17.3568 3.00025 17.2503 3H6.75026C6.6437 3.00025 6.53842 3.02321 6.44143 3.06734C6.34444 3.11147 6.25796 3.17577 6.18776 3.25594L0.937764 9.25594C0.815286 9.39577 0.749103 9.57611 0.752047 9.76197C0.754992 9.94784 0.826856 10.126 0.953701 10.2619L11.4537 21.5119C11.5239 21.5871 11.6088 21.6471 11.7031 21.6881C11.7975 21.7291 11.8993 21.7503 12.0021 21.7503C12.105 21.7503 12.2068 21.7291 12.3011 21.6881C12.3955 21.6471 12.4804 21.5871 12.5506 21.5119L23.0506 10.2619C23.1769 10.1255 23.2481 9.94712 23.2503 9.76125C23.2526 9.57539 23.1857 9.39531 23.0628 9.25594ZM20.8475 9H16.8753L13.5003 4.5H16.91L20.8475 9ZM6.99214 10.5L9.81683 17.5622L3.2262 10.5H6.99214ZM15.3921 10.5L12.0003 18.9806L8.60839 10.5H15.3921ZM9.00026 9L12.0003 4.99969L15.0003 9H9.00026ZM17.0084 10.5H20.7743L14.1837 17.5622L17.0084 10.5ZM7.09058 4.5H10.5003L7.12526 9H3.15308L7.09058 4.5Z" fill="#09151D"/>
</svg>
