<svg width="24" height="24" viewBox="0 0 24 24" fill="none" xmlns="http://www.w3.org/2000/svg">
<path d="M15.75 13.5C15.75 14.2417 15.5301 14.9667 15.118 15.5834C14.706 16.2001 14.1203 16.6807 13.4351 16.9645C12.7498 17.2484 11.9958 17.3226 11.2684 17.1779C10.541 17.0333 9.8728 16.6761 9.34835 16.1517C8.8239 15.6272 8.46675 14.959 8.32206 14.2316C8.17736 13.5042 8.25162 12.7502 8.53545 12.0649C8.81928 11.3797 9.29993 10.794 9.91661 10.382C10.5333 9.96993 11.2583 9.75 12 9.75C12.9946 9.75 13.9484 10.1451 14.6517 10.8483C15.3549 11.5516 15.75 12.5054 15.75 13.5ZM6 5.25C5.40666 5.25 4.82664 5.42595 4.33329 5.75559C3.83994 6.08524 3.45543 6.55377 3.22836 7.10195C3.0013 7.65013 2.94189 8.25333 3.05765 8.83527C3.1734 9.41721 3.45912 9.95176 3.87868 10.3713C4.29824 10.7909 4.83279 11.0766 5.41473 11.1924C5.99667 11.3081 6.59987 11.2487 7.14805 11.0216C7.69623 10.7946 8.16477 10.4101 8.49441 9.91671C8.82405 9.42336 9 8.84334 9 8.25C9 7.45435 8.68393 6.69129 8.12132 6.12868C7.55871 5.56607 6.79565 5.25 6 5.25ZM18 5.25C17.4067 5.25 16.8266 5.42595 16.3333 5.75559C15.8399 6.08524 15.4554 6.55377 15.2284 7.10195C15.0013 7.65013 14.9419 8.25333 15.0576 8.83527C15.1734 9.41721 15.4591 9.95176 15.8787 10.3713C16.2982 10.7909 16.8328 11.0766 17.4147 11.1924C17.9967 11.3081 18.5999 11.2487 19.1481 11.0216C19.6962 10.7946 20.1648 10.4101 20.4944 9.91671C20.8241 9.42336 21 8.84334 21 8.25C21 7.45435 20.6839 6.69129 20.1213 6.12868C19.5587 5.56607 18.7957 5.25 18 5.25Z" fill="#F5DC9A"/>
<path d="M22.9503 14.1002C22.8715 14.1593 22.7818 14.2023 22.6864 14.2267C22.591 14.2511 22.4917 14.2566 22.3942 14.2426C22.2967 14.2287 22.2029 14.1957 22.1182 14.1455C22.0334 14.0953 21.9594 14.029 21.9003 13.9502C21.4482 13.3425 20.8598 12.8495 20.1824 12.5108C19.5051 12.1721 18.7576 11.9972 18.0003 12.0002C17.8014 12.0002 17.6106 11.9211 17.47 11.7805C17.3293 11.6398 17.2503 11.4491 17.2503 11.2502C17.2503 11.0513 17.3293 10.8605 17.47 10.7198C17.6106 10.5792 17.8014 10.5002 18.0003 10.5002C18.4211 10.5001 18.8335 10.3821 19.1906 10.1594C19.5476 9.93677 19.8351 9.61844 20.0204 9.24058C20.2056 8.86273 20.2812 8.4405 20.2385 8.02185C20.1958 7.6032 20.0365 7.20493 19.7788 6.87225C19.5211 6.53958 19.1753 6.28584 18.7806 6.13987C18.3859 5.9939 17.9582 5.96154 17.546 6.04646C17.1338 6.13139 16.7538 6.3302 16.4489 6.62031C16.1441 6.91043 15.9267 7.28021 15.8215 7.68767C15.7969 7.78308 15.7537 7.87271 15.6945 7.95144C15.6352 8.03017 15.561 8.09645 15.4761 8.14651C15.3913 8.19656 15.2974 8.22941 15.1998 8.24318C15.1022 8.25694 15.0029 8.25135 14.9075 8.22673C14.8121 8.20211 14.7224 8.15893 14.6437 8.09967C14.565 8.04041 14.4987 7.96622 14.4486 7.88134C14.3986 7.79646 14.3657 7.70256 14.352 7.60498C14.3382 7.50741 14.3438 7.40808 14.3684 7.31267C14.5144 6.74765 14.7903 6.22451 15.1741 5.78487C15.5579 5.34523 16.039 5.00124 16.5791 4.78025C17.1192 4.55926 17.7034 4.46738 18.2853 4.51191C18.8672 4.55645 19.4307 4.73618 19.9309 5.0368C20.431 5.33742 20.8542 5.75063 21.1666 6.24356C21.479 6.73648 21.672 7.29552 21.7303 7.87618C21.7887 8.45684 21.7107 9.0431 21.5026 9.58831C21.2944 10.1335 20.9619 10.6226 20.5315 11.0167C21.5514 11.4583 22.4379 12.159 23.1031 13.0492C23.1622 13.1282 23.2051 13.2181 23.2294 13.3137C23.2537 13.4093 23.2589 13.5088 23.2447 13.6064C23.2305 13.704 23.1972 13.7979 23.1467 13.8826C23.0962 13.9673 23.0294 14.0413 22.9503 14.1002ZM17.899 19.8752C17.9514 19.9605 17.9861 20.0555 18.0012 20.1546C18.0162 20.2536 18.0113 20.3546 17.9867 20.4517C17.962 20.5488 17.9182 20.6399 17.8578 20.7198C17.7974 20.7997 17.7215 20.8666 17.6348 20.9167C17.5481 20.9668 17.4522 20.999 17.3528 21.0115C17.2535 21.0239 17.1526 21.0163 17.0562 20.9891C16.9598 20.962 16.8698 20.9158 16.7916 20.8532C16.7133 20.7907 16.6484 20.7132 16.6006 20.6252C16.1281 19.8254 15.4552 19.1626 14.6484 18.7022C13.8416 18.2417 12.9287 17.9996 11.9998 17.9996C11.0709 17.9996 10.158 18.2417 9.35119 18.7022C8.54439 19.1626 7.87155 19.8254 7.39903 20.6252C7.35215 20.7148 7.28762 20.794 7.20932 20.8581C7.13102 20.9221 7.04058 20.9696 6.94344 20.9978C6.84629 21.026 6.74445 21.0342 6.64403 21.022C6.54362 21.0099 6.44671 20.9775 6.35914 20.9268C6.27156 20.8762 6.19513 20.8084 6.13445 20.7275C6.07376 20.6466 6.03007 20.5542 6.00601 20.456C5.98194 20.3577 5.978 20.2556 5.99441 20.1558C6.01083 20.056 6.04727 19.9605 6.10153 19.8752C6.82866 18.6258 7.93734 17.6427 9.26466 17.0702C8.51778 16.4983 7.96887 15.7068 7.6951 14.8069C7.42132 13.9069 7.43644 12.9438 7.73833 12.053C8.04022 11.1621 8.6137 10.3882 9.37816 9.84005C10.1426 9.29194 11.0596 8.99716 12.0003 8.99716C12.9409 8.99716 13.8579 9.29194 14.6224 9.84005C15.3869 10.3882 15.9603 11.1621 16.2622 12.053C16.5641 12.9438 16.5792 13.9069 16.3055 14.8069C16.0317 15.7068 15.4828 16.4983 14.7359 17.0702C16.0632 17.6427 17.1719 18.6258 17.899 19.8752ZM12.0003 16.5002C12.5936 16.5002 13.1736 16.3242 13.667 15.9946C14.1603 15.6649 14.5449 15.1964 14.7719 14.6482C14.999 14.1 15.0584 13.4968 14.9426 12.9149C14.8269 12.333 14.5412 11.7984 14.1216 11.3788C13.702 10.9593 13.1675 10.6736 12.5856 10.5578C12.0036 10.4421 11.4004 10.5015 10.8522 10.7285C10.3041 10.9556 9.83552 11.3401 9.50588 11.8335C9.17623 12.3268 9.00028 12.9068 9.00028 13.5002C9.00028 14.2958 9.31635 15.0589 9.87896 15.6215C10.4416 16.1841 11.2046 16.5002 12.0003 16.5002ZM6.75028 11.2502C6.75028 11.0513 6.67127 10.8605 6.53061 10.7198C6.38996 10.5792 6.1992 10.5002 6.00028 10.5002C5.57947 10.5001 5.16709 10.3821 4.81 10.1594C4.45292 9.93677 4.16543 9.61844 3.98019 9.24058C3.79495 8.86273 3.71939 8.4405 3.76209 8.02185C3.8048 7.6032 3.96405 7.20493 4.22176 6.87225C4.47947 6.53958 4.82531 6.28584 5.22 6.13987C5.61469 5.9939 6.04241 5.96154 6.45457 6.04646C6.86672 6.13139 7.2468 6.3302 7.55164 6.62031C7.85647 6.91043 8.07383 7.28021 8.17903 7.68767C8.22876 7.88036 8.353 8.04541 8.52442 8.14651C8.69584 8.2476 8.9004 8.27646 9.0931 8.22673C9.28579 8.177 9.45084 8.05276 9.55194 7.88134C9.65303 7.70992 9.68189 7.50536 9.63216 7.31267C9.48614 6.74765 9.21026 6.22451 8.82648 5.78487C8.4427 5.34523 7.96161 5.00124 7.42149 4.78025C6.88137 4.55926 6.29712 4.46738 5.71524 4.51191C5.13336 4.55645 4.56991 4.73618 4.06972 5.0368C3.56952 5.33742 3.14639 5.75063 2.83399 6.24356C2.52159 6.73648 2.32855 7.29552 2.27022 7.87618C2.2119 8.45684 2.2899 9.0431 2.49801 9.58831C2.70613 10.1335 3.03862 10.6226 3.46903 11.0167C2.45024 11.4587 1.5647 12.1594 0.900284 13.0492C0.780813 13.2084 0.729448 13.4084 0.757491 13.6054C0.785533 13.8024 0.890686 13.9802 1.04982 14.0997C1.20895 14.2192 1.40902 14.2705 1.60602 14.2425C1.80302 14.2144 1.98081 14.1093 2.10028 13.9502C2.55233 13.3425 3.14073 12.8495 3.81812 12.5108C4.49551 12.1721 5.24295 11.9972 6.00028 12.0002C6.1992 12.0002 6.38996 11.9211 6.53061 11.7805C6.67127 11.6398 6.75028 11.4491 6.75028 11.2502Z" fill="#09151D"/>
</svg>
